SplineFontDB: 3.0
FontName: RisingSun-HeavyItalic
FullName: Rising Sin Heavy Italic
FamilyName: Rising Sun Heavy
Weight: Heavy
Copyright: Copyright (c) 2010 - 2013, Matt McInerney (matt@pixelspread.com), Pablo Impallari (impallari@gmail.com), Rodrigo Fuenzalida (hello@rfuenzalida.com) with Reserved Font Name RALEWAY.\nCopyright (c) 2016, Cristiano Sobral (cssobral2013@gmail.com), with Reserved Font Name RISING SUN.
Version: 1.000
ItalicAngle: -12
UnderlinePosition: -100
UnderlineWidth: 50
Ascent: 800
Descent: 200
InvalidEm: 0
sfntRevision: 0x00010000
LayerCount: 2
Layer: 0 1 "Back" 1
Layer: 1 1 "Fore" 0
XUID: [1021 368 144034212 7407]
StyleMap: 0x0021
FSType: 4
OS2Version: 3
OS2_WeightWidthSlopeOnly: 0
OS2_UseTypoMetrics: 0
CreationTime: 1372299720
ModificationTime: 1466167930
PfmFamily: 17
TTFWeight: 800
TTFWidth: 5
LineGap: 0
VLineGap: 0
Panose: 2 11 9 3 3 1 1 6 0 3
OS2TypoAscent: 800
OS2TypoAOffset: 0
OS2TypoDescent: -200
OS2TypoDOffset: 0
OS2TypoLinegap: 0
OS2WinAscent: 930
OS2WinAOffset: 0
OS2WinDescent: 251
OS2WinDOffset: 0
HheadAscent: 930
HheadAOffset: 0
HheadDescent: -251
HheadDOffset: 0
OS2SubXSize: 700
OS2SubYSize: 650
OS2SubXOff: 0
OS2SubYOff: 140
OS2SupXSize: 700
OS2SupYSize: 650
OS2SupXOff: 0
OS2SupYOff: 477
OS2StrikeYSize: 50
OS2StrikeYPos: 250
OS2CapHeight: 710
OS2XHeight: 525
OS2Vendor: 'pyrs'
OS2CodePages: 20000093.00000000
OS2UnicodeRanges: a00000ff.5000205b.00000000.00000000
Lookup: 1 0 0 "'aalt' Access All Alternates in Latin lookup 0" { "'aalt' Access All Alternates in Latin lookup 0 subtable"  } ['aalt' ('latn' <'dflt' > ) ]
Lookup: 3 0 0 "'aalt' Access All Alternates in Latin lookup 1" { "'aalt' Access All Alternates in Latin lookup 1 subtable"  } ['aalt' ('latn' <'dflt' > ) ]
Lookup: 1 0 0 "'smcp' Lowercase to Small Capitals in Latin lookup 2" { "'smcp' Lowercase to Small Capitals in Latin lookup 2 subtable"  } ['smcp' ('latn' <'dflt' > ) ]

StartChar: exclam
Encoding: 33 33 5
Width: 309
GlyphClass: 2
Flags: W
LayerCount: 2
Fore
SplineSet
71 282 m 1,0,-1
 162 717 l 1,1,-1
 322 717 l 1,2,-1
 231 282 l 1,3,-1
 71 282 l 1,0,-1
10 0 m 1,4,-1
 46 166 l 1,5,-1
 206 166 l 1,6,-1
 170 0 l 1,7,-1
 10 0 l 1,4,-1
EndSplineSet
EndChar

StartChar: quotedbl
Encoding: 34 34 6
Width: 427
GlyphClass: 2
Flags: W
LayerCount: 2
Fore
SplineSet
96 498 m 1,0,-1
 145 726 l 1,1,-1
 280 726 l 1,2,-1
 231 498 l 1,3,-1
 96 498 l 1,0,-1
276 498 m 1,4,-1
 325 726 l 1,5,-1
 460 726 l 1,6,-1
 411 498 l 1,7,-1
 276 498 l 1,4,-1
EndSplineSet
EndChar

StartChar: numbersign
Encoding: 35 35 7
Width: 708
GlyphClass: 2
Flags: W
LayerCount: 2
Fore
SplineSet
696 412 m 1,0,-1
 550 412 l 1,1,-1
 503 298 l 1,2,-1
 625 298 l 1,3,-1
 600 179 l 1,4,-1
 449 179 l 1,5,-1
 370 0 l 1,6,-1
 242 0 l 1,7,-1
 322 179 l 1,8,-1
 243 179 l 1,9,-1
 165 0 l 1,10,-1
 37 0 l 1,11,-1
 116 179 l 1,12,-1
 10 179 l 1,13,-1
 35 298 l 1,14,-1
 170 298 l 1,15,-1
 218 412 l 1,16,-1
 106 412 l 1,17,-1
 130 522 l 1,18,-1
 269 522 l 1,19,-1
 352 710 l 1,20,-1
 480 710 l 1,21,-1
 396 522 l 1,22,-1
 475 522 l 1,23,-1
 557 710 l 1,24,-1
 685 710 l 1,25,-1
 601 522 l 1,26,-1
 720 522 l 1,27,-1
 696 412 l 1,0,-1
376 298 m 1,28,-1
 423 412 l 1,29,-1
 345 412 l 1,30,-1
 297 298 l 1,31,-1
 376 298 l 1,28,-1
EndSplineSet
EndChar

StartChar: dollar
Encoding: 36 36 8
Width: 620
GlyphClass: 2
Flags: W
LayerCount: 2
Fore
SplineSet
529 502 m 2,0,1
 527 505 527 505 515.5 514.5 c 128,-1,2
 504 524 504 524 485.5 534.5 c 128,-1,3
 467 545 467 545 443 554.5 c 128,-1,4
 419 564 419 564 392 568 c 1,5,-1
 364 433 l 1,6,-1
 394 424 l 2,7,8
 432 412 432 412 463.5 397.5 c 128,-1,9
 495 383 495 383 517 363 c 128,-1,10
 539 343 539 343 551 316 c 128,-1,11
 563 289 563 289 563 252 c 0,12,13
 563 185 563 185 539 137 c 128,-1,14
 515 89 515 89 475 58 c 128,-1,15
 435 27 435 27 384.5 11.5 c 128,-1,16
 334 -4 334 -4 282 -7 c 1,17,-1
 258 -123 l 1,18,-1
 188 -123 l 1,19,-1
 213 -6 l 1,20,21
 149 0 149 0 89.5 22.5 c 128,-1,22
 30 45 30 45 -14 80 c 1,23,-1
 88 223 l 1,24,25
 90 218 90 218 104 206.5 c 128,-1,26
 118 195 118 195 140.5 182.5 c 128,-1,27
 163 170 163 170 193 158.5 c 128,-1,28
 223 147 223 147 256 142 c 1,29,-1
 284 273 l 1,30,-1
 238 289 l 2,31,32
 166 315 166 315 130.5 350 c 128,-1,33
 95 385 95 385 95 444 c 0,34,35
 95 504 95 504 117.5 551.5 c 128,-1,36
 140 599 140 599 177.5 633.5 c 128,-1,37
 215 668 215 668 264 688.5 c 128,-1,38
 313 709 313 709 367 714 c 1,39,-1
 388 815 l 1,40,-1
 456 815 l 1,41,-1
 435 714 l 1,42,43
 495 708 495 708 544.5 685 c 128,-1,44
 594 662 594 662 629 638 c 1,45,-1
 529 502 l 2,0,1
379 203 m 0,46,47
 379 222 379 222 364.5 234.5 c 128,-1,48
 350 247 350 247 326 257 c 1,49,-1
 301 140 l 1,50,51
 343 142 343 142 361 159.5 c 128,-1,52
 379 177 379 177 379 203 c 0,46,47
275 500 m 0,53,54
 275 482 275 482 287 470.5 c 128,-1,55
 299 459 299 459 322 449 c 1,56,-1
 347 569 l 1,57,58
 312 566 312 566 293.5 547.5 c 128,-1,59
 275 529 275 529 275 500 c 0,53,54
EndSplineSet
EndChar

StartChar: percent
Encoding: 37 37 9
Width: 790
GlyphClass: 2
Flags: W
LayerCount: 2
Fore
SplineSet
223 411 m 0,0,1
 193 411 193 411 168 421 c 128,-1,2
 143 431 143 431 125 448.5 c 128,-1,3
 107 466 107 466 97.5 489.5 c 128,-1,4
 88 513 88 513 88 540 c 0,5,6
 88 576 88 576 105 609 c 128,-1,7
 122 642 122 642 149.5 666.5 c 128,-1,8
 177 691 177 691 213 705.5 c 128,-1,9
 249 720 249 720 288 720 c 0,10,11
 318 720 318 720 343 710 c 128,-1,12
 368 700 368 700 386 682.5 c 128,-1,13
 404 665 404 665 413.5 641.5 c 128,-1,14
 423 618 423 618 423 591 c 0,15,16
 423 555 423 555 406 522 c 128,-1,17
 389 489 389 489 361.5 464.5 c 128,-1,18
 334 440 334 440 298 425.5 c 128,-1,19
 262 411 262 411 223 411 c 0,0,1
239 489 m 0,20,21
 252 489 252 489 265 497 c 128,-1,22
 278 505 278 505 288.5 518 c 128,-1,23
 299 531 299 531 305.5 548 c 128,-1,24
 312 565 312 565 312 584 c 0,25,26
 312 609 312 609 301 625.5 c 128,-1,27
 290 642 290 642 272 642 c 0,28,29
 259 642 259 642 246 634 c 128,-1,30
 233 626 233 626 222.5 613 c 128,-1,31
 212 600 212 600 205.5 583 c 128,-1,32
 199 566 199 566 199 547 c 0,33,34
 199 523 199 523 210 506 c 128,-1,35
 221 489 221 489 239 489 c 0,20,21
525 -10 m 0,36,37
 495 -10 495 -10 470 0 c 128,-1,38
 445 10 445 10 427 27.5 c 128,-1,39
 409 45 409 45 399.5 68.5 c 128,-1,40
 390 92 390 92 390 119 c 0,41,42
 390 155 390 155 407 188 c 128,-1,43
 424 221 424 221 451.5 245.5 c 128,-1,44
 479 270 479 270 515.5 284.5 c 128,-1,45
 552 299 552 299 591 299 c 0,46,47
 621 299 621 299 645.5 289 c 128,-1,48
 670 279 670 279 688 261.5 c 128,-1,49
 706 244 706 244 715.5 220.5 c 128,-1,50
 725 197 725 197 725 170 c 0,51,52
 725 134 725 134 708.5 101 c 128,-1,53
 692 68 692 68 664 43.5 c 128,-1,54
 636 19 636 19 600 4.5 c 128,-1,55
 564 -10 564 -10 525 -10 c 0,36,37
542 68 m 0,56,57
 555 68 555 68 567.5 76 c 128,-1,58
 580 84 580 84 590.5 97 c 128,-1,59
 601 110 601 110 607.5 127 c 128,-1,60
 614 144 614 144 614 163 c 0,61,62
 614 187 614 187 603 204 c 128,-1,63
 592 221 592 221 574 221 c 0,64,65
 561 221 561 221 548 213 c 128,-1,66
 535 205 535 205 524.5 192 c 128,-1,67
 514 179 514 179 507.5 162 c 128,-1,68
 501 145 501 145 501 126 c 0,69,70
 501 101 501 101 512 84.5 c 128,-1,71
 523 68 523 68 542 68 c 0,56,57
52 56 m 1,72,-1
 390 380 l 1,73,-1
 703 719 l 1,74,-1
 761 655 l 1,75,-1
 435 340 l 1,76,-1
 110 -9 l 1,77,-1
 52 56 l 1,72,-1
EndSplineSet
EndChar

StartChar: ampersand
Encoding: 38 38 10
Width: 712
GlyphClass: 2
Flags: W
LayerCount: 2
Fore
SplineSet
395 52 m 1,0,1
 347 21 347 21 298 5.5 c 128,-1,2
 249 -10 249 -10 202 -10 c 256,3,4
 155 -10 155 -10 119.5 5 c 128,-1,5
 84 20 84 20 60.5 44.5 c 128,-1,6
 37 69 37 69 25 101.5 c 128,-1,7
 13 134 13 134 13 170 c 0,8,9
 13 207 13 207 25.5 238 c 128,-1,10
 38 269 38 269 60 295.5 c 128,-1,11
 82 322 82 322 110.5 344 c 128,-1,12
 139 366 139 366 172 386 c 1,13,14
 149 424 149 424 138 453.5 c 128,-1,15
 127 483 127 483 127 515 c 0,16,17
 127 560 127 560 146 597.5 c 128,-1,18
 165 635 165 635 197 662 c 128,-1,19
 229 689 229 689 270 704 c 128,-1,20
 311 719 311 719 356 719 c 0,21,22
 419 719 419 719 468.5 685 c 128,-1,23
 518 651 518 651 535 579 c 1,24,-1
 423 528 l 1,25,26
 413 566 413 566 391 584.5 c 128,-1,27
 369 603 369 603 344 603 c 256,28,29
 319 603 319 603 298 586 c 128,-1,30
 277 569 277 569 277 542 c 0,31,32
 277 532 277 532 280.5 522.5 c 128,-1,33
 284 513 284 513 292 500.5 c 128,-1,34
 300 488 300 488 311.5 471.5 c 128,-1,35
 323 455 323 455 340 431 c 2,36,-1
 451 269 l 1,37,38
 468 301 468 301 480 337.5 c 128,-1,39
 492 374 492 374 498 416 c 1,40,-1
 682 416 l 1,41,-1
 667 305 l 1,42,-1
 596 305 l 1,43,44
 580 267 580 267 561 233 c 128,-1,45
 542 199 542 199 520 170 c 1,46,-1
 638 0 l 1,47,-1
 431 0 l 1,48,-1
 395 52 l 1,0,1
246 112 m 0,49,50
 268 112 268 112 291 119 c 128,-1,51
 314 126 314 126 337 140 c 1,52,-1
 240 284 l 1,53,54
 202 261 202 261 185.5 238 c 128,-1,55
 169 215 169 215 169 186 c 0,56,57
 169 149 169 149 191.5 130.5 c 128,-1,58
 214 112 214 112 246 112 c 0,49,50
EndSplineSet
EndChar

StartChar: quotesingle
Encoding: 39 39 11
Width: 247
GlyphClass: 2
Flags: W
LayerCount: 2
Fore
SplineSet
96 497 m 1,0,-1
 145 726 l 1,1,-1
 280 726 l 1,2,-1
 231 497 l 1,3,-1
 96 497 l 1,0,-1
EndSplineSet
EndChar

StartChar: parenleft
Encoding: 40 40 12
Width: 319
GlyphClass: 2
Flags: W
LayerCount: 2
Fore
SplineSet
31 265 m 0,0,1
 31 330 31 330 50 391.5 c 128,-1,2
 69 453 69 453 102 513.5 c 128,-1,3
 135 574 135 574 179.5 636 c 128,-1,4
 224 698 224 698 275 764 c 1,5,-1
 386 714 l 1,6,7
 339 654 339 654 301.5 595 c 128,-1,8
 264 536 264 536 237 480.5 c 128,-1,9
 210 425 210 425 195.5 372.5 c 128,-1,10
 181 320 181 320 181 273 c 0,11,12
 181 210 181 210 194.5 138.5 c 128,-1,13
 208 67 208 67 231 -2 c 1,14,-1
 101 -59 l 1,15,16
 86 -24 86 -24 73.5 15.5 c 128,-1,17
 61 55 61 55 51.5 97 c 128,-1,18
 42 139 42 139 36.5 181.5 c 128,-1,19
 31 224 31 224 31 265 c 0,0,1
EndSplineSet
EndChar

StartChar: parenright
Encoding: 41 41 13
Width: 318
GlyphClass: 2
Flags: W
LayerCount: 2
Fore
SplineSet
308 431 m 0,0,1
 308 363 308 363 287.5 299 c 128,-1,2
 267 235 267 235 233 174 c 128,-1,3
 199 113 199 113 155 54.5 c 128,-1,4
 111 -4 111 -4 64 -59 c 1,5,-1
 -40 -2 l 1,6,7
 2 55 2 55 38 107 c 128,-1,8
 74 159 74 159 100.5 211 c 128,-1,9
 127 263 127 263 142 315.5 c 128,-1,10
 157 368 157 368 157 425 c 0,11,12
 157 468 157 468 151.5 512 c 128,-1,13
 146 556 146 556 138.5 595.5 c 128,-1,14
 131 635 131 635 122.5 666 c 128,-1,15
 114 697 114 697 108 714 c 1,16,-1
 241 764 l 1,17,18
 269 682 269 682 288.5 595.5 c 128,-1,19
 308 509 308 509 308 431 c 0,0,1
EndSplineSet
EndChar

StartChar: asterisk
Encoding: 42 42 14
Width: 346
GlyphClass: 2
Flags: W
LayerCount: 2
Fore
SplineSet
114 510 m 1,0,-1
 175 585 l 1,1,-1
 112 606 l 1,2,-1
 147 673 l 1,3,-1
 210 639 l 1,4,-1
 221 719 l 1,5,-1
 303 719 l 1,6,-1
 281 639 l 1,7,-1
 358 673 l 1,8,-1
 364 606 l 1,9,-1
 291 585 l 1,10,-1
 322 510 l 1,11,-1
 254 471 l 1,12,-1
 226 550 l 1,13,-1
 165 471 l 1,14,-1
 114 510 l 1,0,-1
EndSplineSet
EndChar

StartChar: plus
Encoding: 43 43 15
Width: 433
GlyphClass: 2
Flags: W
LayerCount: 2
Fore
SplineSet
393 419 m 1,0,-1
 393 291 l 1,1,-1
 298 291 l 1,2,-1
 298 187 l 1,3,-1
 154 187 l 1,4,-1
 154 291 l 1,5,-1
 60 291 l 1,6,-1
 60 419 l 1,7,-1
 154 419 l 1,8,-1
 154 523 l 1,9,-1
 298 523 l 1,10,-1
 298 419 l 1,11,-1
 393 419 l 1,0,-1
EndSplineSet
EndChar

StartChar: comma
Encoding: 44 44 16
Width: 242
GlyphClass: 2
Flags: W
LayerCount: 2
Fore
SplineSet
-20 -135 m 1,0,-1
 40 2 l 1,1,-1
 -9 2 l 1,2,-1
 25 163 l 1,3,-1
 160 163 l 1,4,-1
 125 2 l 1,5,-1
 50 -135 l 1,6,-1
 -20 -135 l 1,0,-1
EndSplineSet
EndChar

StartChar: hyphen
Encoding: 45 45 17
Width: 400
GlyphClass: 2
Flags: W
LayerCount: 2
Fore
SplineSet
32 203 m 1,0,-1
 63 347 l 1,1,-1
 357 347 l 1,2,-1
 326 203 l 1,3,-1
 32 203 l 1,0,-1
EndSplineSet
EndChar

StartChar: period
Encoding: 46 46 18
Width: 238
GlyphClass: 2
Flags: W
LayerCount: 2
Fore
SplineSet
-9 0 m 1,0,-1
 25 163 l 1,1,-1
 156 163 l 1,2,-1
 121 0 l 1,3,-1
 -9 0 l 1,0,-1
EndSplineSet
EndChar

StartChar: slash
Encoding: 47 47 19
Width: 729
GlyphClass: 2
Flags: W
LayerCount: 2
Fore
SplineSet
782 710 m 1,0,-1
 149 0 l 1,1,-1
 -27 0 l 1,2,-1
 606 710 l 1,3,-1
 782 710 l 1,0,-1
EndSplineSet
EndChar

StartChar: zero
Encoding: 48 48 20
Width: 682
GlyphClass: 2
Flags: W
LayerCount: 2
Fore
SplineSet
275 -10 m 0,0,1
 213 -10 213 -10 169 16 c 128,-1,2
 125 42 125 42 96.5 83.5 c 128,-1,3
 68 125 68 125 54.5 176.5 c 128,-1,4
 41 228 41 228 41 280 c 0,5,6
 41 329 41 329 55 380 c 128,-1,7
 69 431 69 431 94 478.5 c 128,-1,8
 119 526 119 526 154.5 568.5 c 128,-1,9
 190 611 190 611 233 642.5 c 128,-1,10
 276 674 276 674 325 692 c 128,-1,11
 374 710 374 710 427 710 c 0,12,13
 489 710 489 710 533 683.5 c 128,-1,14
 577 657 577 657 605.5 615 c 128,-1,15
 634 573 634 573 647.5 521 c 128,-1,16
 661 469 661 469 661 418 c 0,17,18
 661 369 661 369 647 318 c 128,-1,19
 633 267 633 267 608 219.5 c 128,-1,20
 583 172 583 172 548 130.5 c 128,-1,21
 513 89 513 89 470 57.5 c 128,-1,22
 427 26 427 26 377.5 8 c 128,-1,23
 328 -10 328 -10 275 -10 c 0,0,1
306 136 m 0,24,25
 350 136 350 136 385 164 c 128,-1,26
 420 192 420 192 444 233.5 c 128,-1,27
 468 275 468 275 481 323 c 128,-1,28
 494 371 494 371 494 410 c 0,29,30
 494 439 494 439 488.5 466.5 c 128,-1,31
 483 494 483 494 471.5 516 c 128,-1,32
 460 538 460 538 441.5 551 c 128,-1,33
 423 564 423 564 397 564 c 0,34,35
 352 564 352 564 316.5 533.5 c 128,-1,36
 281 503 281 503 257 458.5 c 128,-1,37
 233 414 233 414 220.5 364 c 128,-1,38
 208 314 208 314 208 274 c 0,39,40
 208 247 208 247 213.5 222 c 128,-1,41
 219 197 219 197 230.5 178 c 128,-1,42
 242 159 242 159 260.5 147.5 c 128,-1,43
 279 136 279 136 306 136 c 0,24,25
EndSplineSet
Substitution2: "'lnum' Lining Figures in Latin lookup 3 subtable" zero.lnum
Substitution2: "'aalt' Access All Alternates in Latin lookup 0 subtable" zero.lnum
EndChar

StartChar: one
Encoding: 49 49 21
Width: 502
GlyphClass: 2
Flags: W
LayerCount: 2
Fore
SplineSet
30 144 m 1,0,-1
 164 144 l 1,1,-1
 252 559 l 1,2,3
 242 547 242 547 220.5 532.5 c 128,-1,4
 199 518 199 518 174 504.5 c 128,-1,5
 149 491 149 491 123 482 c 128,-1,6
 97 473 97 473 78 473 c 1,7,-1
 110 620 l 1,8,9
 135 620 135 620 165.5 634.5 c 128,-1,10
 196 649 196 649 222 666.5 c 128,-1,11
 248 684 248 684 266 699 c 128,-1,12
 284 714 284 714 285 716 c 2,13,-1
 449 716 l 1,14,-1
 327 144 l 1,15,-1
 448 144 l 1,16,-1
 417 0 l 1,17,-1
 0 0 l 1,18,-1
 30 144 l 1,0,-1
EndSplineSet
Substitution2: "'lnum' Lining Figures in Latin lookup 3 subtable" one.lnum
Substitution2: "'aalt' Access All Alternates in Latin lookup 0 subtable" one.lnum
EndChar

StartChar: two
Encoding: 50 50 22
Width: 600
GlyphClass: 2
Flags: W
LayerCount: 2
Fore
SplineSet
-23 0 m 1,0,1
 -8 69 -8 69 9 121 c 128,-1,2
 26 173 26 173 53 212 c 128,-1,3
 80 251 80 251 119 280.5 c 128,-1,4
 158 310 158 310 217 336 c 0,5,6
 254 352 254 352 289 368.5 c 128,-1,7
 324 385 324 385 351 405 c 128,-1,8
 378 425 378 425 394 451.5 c 128,-1,9
 410 478 410 478 410 514 c 0,10,11
 410 544 410 544 393 560 c 128,-1,12
 376 576 376 576 348 576 c 0,13,14
 326 576 326 576 303.5 569 c 128,-1,15
 281 562 281 562 259.5 550.5 c 128,-1,16
 238 539 238 539 218.5 525 c 128,-1,17
 199 511 199 511 183 497 c 1,18,-1
 106 603 l 1,19,20
 127 622 127 622 157.5 642 c 128,-1,21
 188 662 188 662 226 679 c 128,-1,22
 264 696 264 696 308.5 707 c 128,-1,23
 353 718 353 718 401 718 c 0,24,25
 498 718 498 718 547 671.5 c 128,-1,26
 596 625 596 625 596 545 c 0,27,28
 596 492 596 492 583 453.5 c 128,-1,29
 570 415 570 415 544.5 384.5 c 128,-1,30
 519 354 519 354 482 329 c 128,-1,31
 445 304 445 304 398 279 c 0,32,33
 368 263 368 263 341.5 248 c 128,-1,34
 315 233 315 233 294.5 217.5 c 128,-1,35
 274 202 274 202 260 184 c 128,-1,36
 246 166 246 166 242 144 c 1,37,-1
 516 144 l 1,38,-1
 485 0 l 1,39,-1
 -23 0 l 1,40,-1
 -23 0 l 1,0,1
EndSplineSet
Substitution2: "'lnum' Lining Figures in Latin lookup 3 subtable" two.lnum
Substitution2: "'aalt' Access All Alternates in Latin lookup 0 subtable" two.lnum
EndChar

StartChar: three
Encoding: 51 51 23
Width: 563
GlyphClass: 2
Flags: W
LayerCount: 2
Fore
SplineSet
190 -9 m 0,0,1
 110 -9 110 -9 61.5 23.5 c 128,-1,2
 13 56 13 56 -2 119 c 1,3,-1
 104 228 l 1,4,5
 105 219 105 219 110.5 203.5 c 128,-1,6
 116 188 116 188 128.5 173.5 c 128,-1,7
 141 159 141 159 161.5 148.5 c 128,-1,8
 182 138 182 138 215 138 c 0,9,10
 238 138 238 138 259.5 144 c 128,-1,11
 281 150 281 150 297.5 161 c 128,-1,12
 314 172 314 172 324 188.5 c 128,-1,13
 334 205 334 205 334 225 c 0,14,15
 334 267 334 267 292.5 284 c 128,-1,16
 251 301 251 301 169 301 c 2,17,-1
 138 301 l 1,18,-1
 166 434 l 1,19,-1
 197 434 l 2,20,21
 234 434 234 434 267.5 439.5 c 128,-1,22
 301 445 301 445 326 456 c 128,-1,23
 351 467 351 467 366 484.5 c 128,-1,24
 381 502 381 502 381 526 c 0,25,26
 381 541 381 541 375.5 551.5 c 128,-1,27
 370 562 370 562 361 568 c 128,-1,28
 352 574 352 574 341.5 576.5 c 128,-1,29
 331 579 331 579 321 579 c 0,30,31
 295 579 295 579 271.5 571.5 c 128,-1,32
 248 564 248 564 229.5 552.5 c 128,-1,33
 211 541 211 541 197 528 c 128,-1,34
 183 515 183 515 176 505 c 1,35,-1
 99 623 l 1,36,37
 121 646 121 646 151.5 664 c 128,-1,38
 182 682 182 682 216 694 c 128,-1,39
 250 706 250 706 285 712.5 c 128,-1,40
 320 719 320 719 353 719 c 0,41,42
 399 719 399 719 436.5 706.5 c 128,-1,43
 474 694 474 694 500.5 672 c 128,-1,44
 527 650 527 650 541.5 619 c 128,-1,45
 556 588 556 588 556 552 c 0,46,47
 556 519 556 519 544 490 c 128,-1,48
 532 461 532 461 511 438.5 c 128,-1,49
 490 416 490 416 461 399.5 c 128,-1,50
 432 383 432 383 397 376 c 1,51,52
 447 367 447 367 473.5 326.5 c 128,-1,53
 500 286 500 286 500 229 c 0,54,55
 500 168 500 168 471 123 c 128,-1,56
 442 78 442 78 397 49 c 128,-1,57
 352 20 352 20 297 5.5 c 128,-1,58
 242 -9 242 -9 190 -9 c 0,0,1
EndSplineSet
Substitution2: "'lnum' Lining Figures in Latin lookup 3 subtable" three.lnum
Substitution2: "'aalt' Access All Alternates in Latin lookup 0 subtable" three.lnum
EndChar

StartChar: four
Encoding: 52 52 24
Width: 569
GlyphClass: 2
Flags: W
LayerCount: 2
Fore
SplineSet
223 1 m 1,0,-1
 255 150 l 1,1,-1
 -5 150 l 1,2,-1
 25 293 l 1,3,-1
 424 711 l 1,4,-1
 534 711 l 1,5,-1
 445 293 l 1,6,-1
 529 293 l 1,7,-1
 499 150 l 1,8,-1
 415 150 l 1,9,-1
 383 1 l 1,10,-1
 223 1 l 1,0,-1
303 293 m 1,11,-1
 341 471 l 1,12,-1
 184 293 l 1,13,-1
 303 293 l 1,11,-1
EndSplineSet
Substitution2: "'lnum' Lining Figures in Latin lookup 3 subtable" four.lnum
Substitution2: "'aalt' Access All Alternates in Latin lookup 0 subtable" four.lnum
EndChar

StartChar: five
Encoding: 53 53 25
Width: 552
GlyphClass: 2
Flags: W
LayerCount: 2
Fore
SplineSet
190 -9 m 0,0,1
 116 -9 116 -9 64 22 c 128,-1,2
 12 53 12 53 -8 109 c 1,3,-1
 102 208 l 1,4,5
 122 173 122 173 153.5 152 c 128,-1,6
 185 131 185 131 221 131 c 0,7,8
 245 131 245 131 266 140 c 128,-1,9
 287 149 287 149 302.5 165 c 128,-1,10
 318 181 318 181 327 203 c 128,-1,11
 336 225 336 225 336 251 c 0,12,13
 336 284 336 284 319 304.5 c 128,-1,14
 302 325 302 325 271 325 c 0,15,16
 247 325 247 325 223.5 313 c 128,-1,17
 200 301 200 301 184 279 c 1,18,-1
 47 279 l 1,19,20
 64 321 64 321 87 379.5 c 128,-1,21
 110 438 110 438 133.5 498.5 c 128,-1,22
 157 559 157 559 179 615.5 c 128,-1,23
 201 672 201 672 217 711 c 1,24,-1
 553 711 l 1,25,-1
 522 565 l 1,26,-1
 302 565 l 1,27,-1
 259 444 l 2,28,29
 265 451 265 451 281.5 456.5 c 128,-1,30
 298 462 298 462 324 462 c 0,31,32
 365 462 365 462 398.5 448.5 c 128,-1,33
 432 435 432 435 455.5 411 c 128,-1,34
 479 387 479 387 491.5 353 c 128,-1,35
 504 319 504 319 504 279 c 0,36,37
 504 217 504 217 479.5 164 c 128,-1,38
 455 111 455 111 412 72.5 c 128,-1,39
 369 34 369 34 312 12.5 c 128,-1,40
 255 -9 255 -9 190 -9 c 0,0,1
EndSplineSet
Substitution2: "'lnum' Lining Figures in Latin lookup 3 subtable" five.lnum
Substitution2: "'aalt' Access All Alternates in Latin lookup 0 subtable" five.lnum
EndChar

StartChar: six
Encoding: 54 54 26
Width: 592
GlyphClass: 2
Flags: W
LayerCount: 2
Fore
SplineSet
235 -10 m 0,0,1
 141 -10 141 -10 91 53.5 c 128,-1,2
 41 117 41 117 41 229 c 0,3,4
 41 330 41 330 67.5 419 c 128,-1,5
 94 508 94 508 142.5 574 c 128,-1,6
 191 640 191 640 258 678 c 128,-1,7
 325 716 325 716 406 716 c 0,8,9
 469 716 469 716 516.5 689 c 128,-1,10
 564 662 564 662 596 611 c 1,11,-1
 484 509 l 1,12,13
 467 541 467 541 438 559 c 128,-1,14
 409 577 409 577 374 577 c 0,15,16
 320 577 320 577 280 535 c 128,-1,17
 240 493 240 493 222 416 c 1,18,19
 247 443 247 443 280 458 c 128,-1,20
 313 473 313 473 352 473 c 0,21,22
 395 473 395 473 430.5 458.5 c 128,-1,23
 466 444 466 444 491.5 418.5 c 128,-1,24
 517 393 517 393 530.5 357.5 c 128,-1,25
 544 322 544 322 544 281 c 0,26,27
 544 222 544 222 518.5 169 c 128,-1,28
 493 116 493 116 450 76.5 c 128,-1,29
 407 37 407 37 351.5 13.5 c 128,-1,30
 296 -10 296 -10 235 -10 c 0,0,1
264 125 m 0,31,32
 286 125 286 125 308.5 136 c 128,-1,33
 331 147 331 147 348.5 165.5 c 128,-1,34
 366 184 366 184 377 208.5 c 128,-1,35
 388 233 388 233 388 259 c 0,36,37
 388 297 388 297 367 322 c 128,-1,38
 346 347 346 347 311 347 c 0,39,40
 288 347 288 347 265.5 336.5 c 128,-1,41
 243 326 243 326 226 308 c 128,-1,42
 209 290 209 290 198.5 266.5 c 128,-1,43
 188 243 188 243 188 217 c 0,44,45
 188 179 188 179 209 152 c 128,-1,46
 230 125 230 125 264 125 c 0,31,32
EndSplineSet
Substitution2: "'lnum' Lining Figures in Latin lookup 3 subtable" six.lnum
Substitution2: "'aalt' Access All Alternates in Latin lookup 0 subtable" six.lnum
EndChar

StartChar: seven
Encoding: 55 55 27
Width: 564
GlyphClass: 2
Flags: W
LayerCount: 2
Fore
SplineSet
367 565 m 1,0,-1
 91 565 l 1,1,-1
 122 711 l 1,2,-1
 651 711 l 1,3,-1
 167 1 l 1,4,-1
 -13 1 l 1,5,-1
 367 565 l 1,0,-1
EndSplineSet
Substitution2: "'lnum' Lining Figures in Latin lookup 3 subtable" seven.lnum
Substitution2: "'aalt' Access All Alternates in Latin lookup 0 subtable" seven.lnum
EndChar

StartChar: eight
Encoding: 56 56 28
Width: 587
GlyphClass: 2
Flags: W
LayerCount: 2
Fore
SplineSet
529 248 m 0,0,1
 529 192 529 192 503.5 145 c 128,-1,2
 478 98 478 98 436 63.5 c 128,-1,3
 394 29 394 29 339 10 c 128,-1,4
 284 -9 284 -9 226 -9 c 0,5,6
 182 -9 182 -9 144 4.5 c 128,-1,7
 106 18 106 18 78 43 c 128,-1,8
 50 68 50 68 34.5 103 c 128,-1,9
 19 138 19 138 19 181 c 0,10,11
 19 219 19 219 31.5 250.5 c 128,-1,12
 44 282 44 282 63 306.5 c 128,-1,13
 82 331 82 331 105 349 c 128,-1,14
 128 367 128 367 149 379 c 1,15,16
 127 393 127 393 114.5 421.5 c 128,-1,17
 102 450 102 450 102 482 c 0,18,19
 102 536 102 536 129 578.5 c 128,-1,20
 156 621 156 621 197.5 650 c 128,-1,21
 239 679 239 679 287.5 694.5 c 128,-1,22
 336 710 336 710 379 710 c 0,23,24
 414 710 414 710 448.5 699 c 128,-1,25
 483 688 483 688 511 666.5 c 128,-1,26
 539 645 539 645 556 613.5 c 128,-1,27
 573 582 573 582 573 540 c 0,28,29
 573 514 573 514 564 489 c 128,-1,30
 555 464 555 464 540.5 443 c 128,-1,31
 526 422 526 422 507 405.5 c 128,-1,32
 488 389 488 389 469 379 c 1,33,34
 492 361 492 361 510.5 327 c 128,-1,35
 529 293 529 293 529 248 c 0,0,1
367 243 m 0,36,37
 367 277 367 277 346.5 295 c 128,-1,38
 326 313 326 313 295 313 c 0,39,40
 274 313 274 313 254 305 c 128,-1,41
 234 297 234 297 219 283 c 128,-1,42
 204 269 204 269 195 250 c 128,-1,43
 186 231 186 231 186 208 c 0,44,45
 186 176 186 176 206.5 156 c 128,-1,46
 227 136 227 136 257 136 c 0,47,48
 278 136 278 136 298 144.5 c 128,-1,49
 318 153 318 153 333 167 c 128,-1,50
 348 181 348 181 357.5 200.5 c 128,-1,51
 367 220 367 220 367 243 c 0,36,37
264 488 m 0,52,53
 264 461 264 461 281.5 447 c 128,-1,54
 299 433 299 433 320 433 c 0,55,56
 334 433 334 433 349.5 438.5 c 128,-1,57
 365 444 365 444 377.5 454.5 c 128,-1,58
 390 465 390 465 398.5 480 c 128,-1,59
 407 495 407 495 407 515 c 0,60,61
 407 539 407 539 391 554 c 128,-1,62
 375 569 375 569 349 569 c 0,63,64
 332 569 332 569 317 563 c 128,-1,65
 302 557 302 557 290 546 c 128,-1,66
 278 535 278 535 271 520 c 128,-1,67
 264 505 264 505 264 488 c 0,52,53
EndSplineSet
Substitution2: "'lnum' Lining Figures in Latin lookup 3 subtable" eight.lnum
Substitution2: "'aalt' Access All Alternates in Latin lookup 0 subtable" eight.lnum
EndChar

StartChar: nine
Encoding: 57 57 29
Width: 593
GlyphClass: 2
Flags: W
LayerCount: 2
Fore
SplineSet
70 425 m 0,0,1
 70 484 70 484 95.5 537 c 128,-1,2
 121 590 121 590 164 629.5 c 128,-1,3
 207 669 207 669 263 692.5 c 128,-1,4
 319 716 319 716 380 716 c 0,5,6
 474 716 474 716 523.5 652.5 c 128,-1,7
 573 589 573 589 573 477 c 0,8,9
 573 376 573 376 546.5 287 c 128,-1,10
 520 198 520 198 472 132 c 128,-1,11
 424 66 424 66 357 28 c 128,-1,12
 290 -10 290 -10 209 -10 c 0,13,14
 147 -10 147 -10 99 17 c 128,-1,15
 51 44 51 44 19 95 c 1,16,-1
 131 197 l 1,17,18
 148 165 148 165 176.5 147 c 128,-1,19
 205 129 205 129 241 129 c 0,20,21
 295 129 295 129 334.5 171 c 128,-1,22
 374 213 374 213 393 290 c 1,23,24
 368 262 368 262 335 247 c 128,-1,25
 302 232 302 232 263 232 c 0,26,27
 219 232 219 232 183.5 246.5 c 128,-1,28
 148 261 148 261 122.5 287 c 128,-1,29
 97 313 97 313 83.5 348.5 c 128,-1,30
 70 384 70 384 70 425 c 0,0,1
351 581 m 0,31,32
 328 581 328 581 306 570 c 128,-1,33
 284 559 284 559 266.5 540.5 c 128,-1,34
 249 522 249 522 238 497.5 c 128,-1,35
 227 473 227 473 227 447 c 0,36,37
 227 409 227 409 248 384 c 128,-1,38
 269 359 269 359 304 359 c 0,39,40
 327 359 327 359 349 369.5 c 128,-1,41
 371 380 371 380 388.5 397.5 c 128,-1,42
 406 415 406 415 416.5 438.5 c 128,-1,43
 427 462 427 462 427 489 c 0,44,45
 427 527 427 527 406 554 c 128,-1,46
 385 581 385 581 351 581 c 0,31,32
EndSplineSet
Substitution2: "'lnum' Lining Figures in Latin lookup 3 subtable" nine.lnum
Substitution2: "'aalt' Access All Alternates in Latin lookup 0 subtable" nine.lnum
EndChar

StartChar: colon
Encoding: 58 58 30
Width: 269
GlyphClass: 2
Flags: W
LayerCount: 2
Fore
SplineSet
81 356 m 1,0,-1
 116 519 l 1,1,-1
 246 519 l 1,2,-1
 211 356 l 1,3,-1
 81 356 l 1,0,-1
6 0 m 1,4,-1
 40 163 l 1,5,-1
 171 163 l 1,6,-1
 136 0 l 1,7,-1
 6 0 l 1,4,-1
EndSplineSet
EndChar

StartChar: semicolon
Encoding: 59 59 31
Width: 272
GlyphClass: 2
Flags: W
LayerCount: 2
Fore
SplineSet
82 356 m 1,0,-1
 116 519 l 1,1,-1
 247 519 l 1,2,-1
 212 356 l 1,3,-1
 82 356 l 1,0,-1
-6 -135 m 1,4,-1
 54 2 l 1,5,-1
 5 2 l 1,6,-1
 40 163 l 1,7,-1
 174 163 l 1,8,-1
 139 2 l 1,9,-1
 64 -135 l 1,10,-1
 -6 -135 l 1,4,-1
EndSplineSet
EndChar

StartChar: less
Encoding: 60 60 32
Width: 552
GlyphClass: 2
Flags: W
LayerCount: 2
Fore
SplineSet
29 293 m 1,0,-1
 451 549 l 1,1,-1
 451 379 l 1,2,-1
 261 259 l 1,3,-1
 451 146 l 1,4,-1
 451 -33 l 1,5,-1
 29 217 l 1,6,-1
 29 293 l 1,0,-1
EndSplineSet
EndChar

StartChar: equal
Encoding: 61 61 33
Width: 488
GlyphClass: 2
Flags: W
LayerCount: 2
Fore
SplineSet
79 124 m 1,0,-1
 79 226 l 1,1,-1
 397 226 l 1,2,-1
 397 124 l 1,3,-1
 79 124 l 1,0,-1
79 326 m 1,4,-1
 79 428 l 1,5,-1
 397 428 l 1,6,-1
 397 326 l 1,7,-1
 79 326 l 1,4,-1
EndSplineSet
EndChar

StartChar: greater
Encoding: 62 62 34
Width: 552
GlyphClass: 2
Flags: W
LayerCount: 2
Fore
SplineSet
504 217 m 1,0,-1
 82 -33 l 1,1,-1
 82 146 l 1,2,-1
 272 259 l 1,3,-1
 82 379 l 1,4,-1
 82 549 l 1,5,-1
 504 293 l 1,6,-1
 504 217 l 1,0,-1
EndSplineSet
EndChar

StartChar: question
Encoding: 63 63 35
Width: 476
GlyphClass: 2
Flags: W
LayerCount: 2
Fore
SplineSet
92 245 m 1,0,1
 96 268 96 268 103 289 c 128,-1,2
 110 310 110 310 122 329.5 c 128,-1,3
 134 349 134 349 152.5 366 c 128,-1,4
 171 383 171 383 200 397 c 0,5,6
 234 414 234 414 261 429 c 128,-1,7
 288 444 288 444 307 460 c 128,-1,8
 326 476 326 476 336.5 493.5 c 128,-1,9
 347 511 347 511 347 534 c 0,10,11
 347 560 347 560 330.5 575 c 128,-1,12
 314 590 314 590 290 590 c 0,13,14
 272 590 272 590 256.5 582.5 c 128,-1,15
 241 575 241 575 228 564.5 c 128,-1,16
 215 554 215 554 204 541 c 128,-1,17
 193 528 193 528 185 518 c 1,18,-1
 97 590 l 1,19,20
 135 651 135 651 195.5 685 c 128,-1,21
 256 719 256 719 324 719 c 0,22,23
 355 719 355 719 385.5 710 c 128,-1,24
 416 701 416 701 439 682 c 128,-1,25
 462 663 462 663 476.5 633 c 128,-1,26
 491 603 491 603 491 561 c 256,27,28
 491 519 491 519 481 487.5 c 128,-1,29
 471 456 471 456 454 432 c 128,-1,30
 437 408 437 408 414 390 c 128,-1,31
 391 372 391 372 364 356 c 0,32,33
 341 342 341 342 318 331 c 128,-1,34
 295 320 295 320 275 308 c 128,-1,35
 255 296 255 296 241 281 c 128,-1,36
 227 266 227 266 223 245 c 1,37,-1
 92 245 l 1,0,1
42 0 m 1,38,-1
 74 150 l 1,39,-1
 205 150 l 1,40,-1
 173 0 l 1,41,-1
 42 0 l 1,38,-1
EndSplineSet
EndChar

StartChar: at
Encoding: 64 64 36
Width: 816
GlyphClass: 2
Flags: W
LayerCount: 2
Fore
SplineSet
582 53 m 0,0,1
 606 53 606 53 627.5 75.5 c 128,-1,2
 649 98 649 98 664.5 133.5 c 128,-1,3
 680 169 680 169 689.5 211.5 c 128,-1,4
 699 254 699 254 699 294 c 0,5,6
 699 348 699 348 682 393.5 c 128,-1,7
 665 439 665 439 633 472 c 128,-1,8
 601 505 601 505 554.5 523.5 c 128,-1,9
 508 542 508 542 450 542 c 0,10,11
 376 542 376 542 309.5 512.5 c 128,-1,12
 243 483 243 483 193 432 c 128,-1,13
 143 381 143 381 113.5 312 c 128,-1,14
 84 243 84 243 84 164 c 0,15,16
 84 107 84 107 99.5 61 c 128,-1,17
 115 15 115 15 144.5 -17.5 c 128,-1,18
 174 -50 174 -50 216.5 -67.5 c 128,-1,19
 259 -85 259 -85 312 -85 c 0,20,21
 350 -85 350 -85 385.5 -76 c 128,-1,22
 421 -67 421 -67 465 -47 c 1,23,-1
 472 -106 l 1,24,25
 384 -146 384 -146 299 -146 c 0,26,27
 235 -146 235 -146 183 -124.5 c 128,-1,28
 131 -103 131 -103 94.5 -63.5 c 128,-1,29
 58 -24 58 -24 38 31.5 c 128,-1,30
 18 87 18 87 18 156 c 0,31,32
 18 251 18 251 55 333 c 128,-1,33
 92 415 92 415 153.5 475 c 128,-1,34
 215 535 215 535 296 569 c 128,-1,35
 377 603 377 603 466 603 c 0,36,37
 535 603 535 603 590 582 c 128,-1,38
 645 561 645 561 683.5 522.5 c 128,-1,39
 722 484 722 484 743 430.5 c 128,-1,40
 764 377 764 377 764 312 c 0,41,42
 764 258 764 258 749.5 200 c 128,-1,43
 735 142 735 142 707.5 94 c 128,-1,44
 680 46 680 46 640.5 15 c 128,-1,45
 601 -16 601 -16 552 -16 c 0,46,47
 517 -16 517 -16 495.5 0.5 c 128,-1,48
 474 17 474 17 474 49 c 0,49,50
 474 60 474 60 476 64 c 1,51,52
 398 -5 398 -5 320 -5 c 0,53,54
 283 -5 283 -5 253 8.5 c 128,-1,55
 223 22 223 22 202 46.5 c 128,-1,56
 181 71 181 71 170 105 c 128,-1,57
 159 139 159 139 159 179 c 0,58,59
 159 236 159 236 180 287.5 c 128,-1,60
 201 339 201 339 236 378.5 c 128,-1,61
 271 418 271 418 316.5 441.5 c 128,-1,62
 362 465 362 465 411 465 c 0,63,64
 459 465 459 465 490.5 442.5 c 128,-1,65
 522 420 522 420 531 385 c 1,66,-1
 543 450 l 1,67,-1
 618 450 l 1,68,-1
 554 124 l 2,69,70
 552 116 552 116 551 107 c 128,-1,71
 550 98 550 98 550 91 c 0,72,73
 550 53 550 53 582 53 c 0,0,1
352 72 m 0,74,75
 394 72 394 72 425 98 c 128,-1,76
 456 124 456 124 474 167 c 1,77,-1
 493 289 l 1,78,79
 486 327 486 327 462.5 351.5 c 128,-1,80
 439 376 439 376 404 376 c 0,81,82
 377 376 377 376 350 361.5 c 128,-1,83
 323 347 323 347 301.5 322 c 128,-1,84
 280 297 280 297 266.5 263 c 128,-1,85
 253 229 253 229 253 190 c 0,86,87
 253 140 253 140 277.5 106 c 128,-1,88
 302 72 302 72 352 72 c 0,74,75
EndSplineSet
EndChar

StartChar: A
Encoding: 65 65 37
Width: 641
GlyphClass: 2
Flags: W
LayerCount: 2
Fore
SplineSet
337 710 m 1,0,-1
 486 710 l 1,1,-1
 578 0 l 1,2,-1
 410 0 l 1,3,-1
 395 159 l 1,4,-1
 193 159 l 1,5,-1
 112 0 l 1,6,-1
 -57 0 l 1,7,-1
 337 710 l 1,0,-1
392 272 m 1,8,-1
 372 523 l 1,9,-1
 242 272 l 1,10,-1
 392 272 l 1,8,-1
EndSplineSet
EndChar

StartChar: B
Encoding: 66 66 38
Width: 661
GlyphClass: 2
Flags: W
LayerCount: 2
Fore
SplineSet
155 710 m 1,0,-1
 534 710 l 2,1,2
 564 710 564 710 586.5 697.5 c 128,-1,3
 609 685 609 685 624 665 c 128,-1,4
 639 645 639 645 646.5 618.5 c 128,-1,5
 654 592 654 592 654 564 c 0,6,7
 654 534 654 534 644.5 504 c 128,-1,8
 635 474 635 474 617.5 447.5 c 128,-1,9
 600 421 600 421 574.5 399 c 128,-1,10
 549 377 549 377 517 364 c 1,11,12
 562 350 562 350 586 314 c 128,-1,13
 610 278 610 278 610 224 c 0,14,15
 610 167 610 167 587 125 c 128,-1,16
 564 83 564 83 526 55.5 c 128,-1,17
 488 28 488 28 437.5 14 c 128,-1,18
 387 0 387 0 333 0 c 2,19,-1
 4 0 l 1,20,-1
 155 710 l 1,0,-1
363 139 m 2,21,22
 379 139 379 139 394.5 146 c 128,-1,23
 410 153 410 153 422 166 c 128,-1,24
 434 179 434 179 441 196 c 128,-1,25
 448 213 448 213 448 234 c 0,26,27
 448 260 448 260 435.5 277 c 128,-1,28
 423 294 423 294 402 294 c 2,29,-1
 230 294 l 1,30,-1
 198 139 l 1,31,-1
 363 139 l 2,21,22
403 423 m 2,32,33
 417 423 417 423 431.5 429 c 128,-1,34
 446 435 446 435 457.5 446.5 c 128,-1,35
 469 458 469 458 476 475.5 c 128,-1,36
 483 493 483 493 483 516 c 0,37,38
 483 542 483 542 471 556 c 128,-1,39
 459 570 459 570 440 570 c 2,40,-1
 289 570 l 1,41,-1
 258 423 l 1,42,-1
 403 423 l 2,32,33
EndSplineSet
EndChar

StartChar: C
Encoding: 67 67 39
Width: 661
GlyphClass: 2
Flags: W
LayerCount: 2
Fore
SplineSet
297 -6 m 0,0,1
 234 -6 234 -6 185 19.5 c 128,-1,2
 136 45 136 45 102 87.5 c 128,-1,3
 68 130 68 130 50.5 184.5 c 128,-1,4
 33 239 33 239 33 297 c 0,5,6
 33 346 33 346 47.5 396 c 128,-1,7
 62 446 62 446 88.5 492.5 c 128,-1,8
 115 539 115 539 153 579 c 128,-1,9
 191 619 191 619 238 649 c 128,-1,10
 285 679 285 679 340 696.5 c 128,-1,11
 395 714 395 714 456 714 c 0,12,13
 552 714 552 714 613 671 c 128,-1,14
 674 628 674 628 694 559 c 1,15,-1
 549 471 l 1,16,17
 544 499 544 499 531.5 517.5 c 128,-1,18
 519 536 519 536 501 547.5 c 128,-1,19
 483 559 483 559 462 563.5 c 128,-1,20
 441 568 441 568 421 568 c 0,21,22
 369 568 369 568 328 543.5 c 128,-1,23
 287 519 287 519 258.5 480.5 c 128,-1,24
 230 442 230 442 215 396 c 128,-1,25
 200 350 200 350 200 307 c 0,26,27
 200 273 200 273 208.5 243 c 128,-1,28
 217 213 217 213 233.5 190 c 128,-1,29
 250 167 250 167 275 153.5 c 128,-1,30
 300 140 300 140 332 140 c 0,31,32
 353 140 353 140 375.5 145.5 c 128,-1,33
 398 151 398 151 420.5 162.5 c 128,-1,34
 443 174 443 174 463.5 192.5 c 128,-1,35
 484 211 484 211 499 238 c 1,36,-1
 617 159 l 1,37,38
 593 120 593 120 556 89 c 128,-1,39
 519 58 519 58 475.5 37 c 128,-1,40
 432 16 432 16 385.5 5 c 128,-1,41
 339 -6 339 -6 297 -6 c 0,0,1
EndSplineSet
EndChar

StartChar: D
Encoding: 68 68 40
Width: 693
GlyphClass: 2
Flags: W
LayerCount: 2
Fore
SplineSet
155 710 m 1,0,-1
 409 710 l 2,1,2
 478 710 478 710 529.5 688.5 c 128,-1,3
 581 667 581 667 614.5 630 c 128,-1,4
 648 593 648 593 664.5 542.5 c 128,-1,5
 681 492 681 492 681 434 c 0,6,7
 681 340 681 340 649 260.5 c 128,-1,8
 617 181 617 181 560 123 c 128,-1,9
 503 65 503 65 425.5 32.5 c 128,-1,10
 348 0 348 0 258 0 c 2,11,-1
 4 0 l 1,12,-1
 155 710 l 1,0,-1
288 144 m 2,13,14
 338 144 338 144 379 165.5 c 128,-1,15
 420 187 420 187 449.5 224 c 128,-1,16
 479 261 479 261 495 309 c 128,-1,17
 511 357 511 357 511 410 c 0,18,19
 511 480 511 480 477.5 523 c 128,-1,20
 444 566 444 566 378 566 c 2,21,-1
 288 566 l 1,22,-1
 198 144 l 1,23,-1
 288 144 l 2,13,14
EndSplineSet
EndChar

StartChar: E
Encoding: 69 69 41
Width: 576
GlyphClass: 2
Flags: W
LayerCount: 2
Fore
SplineSet
155 710 m 1,0,-1
 622 710 l 1,1,-1
 591 566 l 1,2,-1
 288 566 l 1,3,-1
 259 428 l 1,4,-1
 519 428 l 1,5,-1
 491 295 l 1,6,-1
 231 295 l 1,7,-1
 198 144 l 1,8,-1
 510 144 l 1,9,-1
 480 0 l 1,10,-1
 4 0 l 1,11,-1
 155 710 l 1,0,-1
EndSplineSet
EndChar

StartChar: F
Encoding: 70 70 42
Width: 552
GlyphClass: 2
Flags: W
LayerCount: 2
Fore
SplineSet
155 710 m 1,0,-1
 613 710 l 1,1,-1
 583 566 l 1,2,-1
 288 566 l 1,3,-1
 256 413 l 1,4,-1
 498 413 l 1,5,-1
 470 280 l 1,6,-1
 227 280 l 1,7,-1
 168 0 l 1,8,-1
 4 0 l 1,9,-1
 155 710 l 1,0,-1
EndSplineSet
EndChar

StartChar: G
Encoding: 71 71 43
Width: 704
GlyphClass: 2
Flags: W
LayerCount: 2
Fore
SplineSet
481 70 m 1,0,1
 433 32 433 32 387.5 13.5 c 128,-1,2
 342 -5 342 -5 291 -5 c 0,3,4
 234 -5 234 -5 187 16 c 128,-1,5
 140 37 140 37 105.5 75 c 128,-1,6
 71 113 71 113 52 166.5 c 128,-1,7
 33 220 33 220 33 285 c 0,8,9
 33 373 33 373 68.5 451.5 c 128,-1,10
 104 530 104 530 163.5 588.5 c 128,-1,11
 223 647 223 647 299.5 681 c 128,-1,12
 376 715 376 715 458 715 c 0,13,14
 551 715 551 715 613.5 673.5 c 128,-1,15
 676 632 676 632 696 560 c 1,16,-1
 555 468 l 1,17,18
 542 516 542 516 505.5 542.5 c 128,-1,19
 469 569 469 569 421 569 c 0,20,21
 377 569 377 569 337.5 547.5 c 128,-1,22
 298 526 298 526 268 489.5 c 128,-1,23
 238 453 238 453 220 405 c 128,-1,24
 202 357 202 357 202 304 c 0,25,26
 202 269 202 269 211 239 c 128,-1,27
 220 209 220 209 237.5 187 c 128,-1,28
 255 165 255 165 279.5 153 c 128,-1,29
 304 141 304 141 336 141 c 0,30,31
 425 141 425 141 515 229 c 1,32,-1
 520 252 l 1,33,-1
 391 252 l 1,34,-1
 416 371 l 1,35,-1
 681 371 l 1,36,-1
 602 0 l 1,37,-1
 466 0 l 1,38,-1
 481 70 l 1,0,1
EndSplineSet
Substitution2: "'ss01' Style Set 1 in Latin lookup 8 subtable" G.alt
Substitution2: "'salt' Stylistic Alternatives in Latin lookup 5 subtable" G.alt
Substitution2: "'aalt' Access All Alternates in Latin lookup 0 subtable" G.alt
EndChar

StartChar: H
Encoding: 72 72 44
Width: 721
GlyphClass: 2
Flags: W
LayerCount: 2
Fore
SplineSet
155 710 m 1,0,-1
 319 710 l 1,1,-1
 260 435 l 1,2,-1
 517 435 l 1,3,-1
 576 710 l 1,4,-1
 740 710 l 1,5,-1
 589 0 l 1,6,-1
 425 0 l 1,7,-1
 487 291 l 1,8,-1
 230 291 l 1,9,-1
 168 0 l 1,10,-1
 4 0 l 1,11,-1
 155 710 l 1,0,-1
EndSplineSet
EndChar

StartChar: I
Encoding: 73 73 45
Width: 300
GlyphClass: 2
Flags: W
LayerCount: 2
Fore
SplineSet
155 710 m 1,0,-1
 319 710 l 1,1,-1
 168 0 l 1,2,-1
 4 0 l 1,3,-1
 155 710 l 1,0,-1
EndSplineSet
EndChar

StartChar: J
Encoding: 74 74 46
Width: 483
GlyphClass: 2
Flags: W
LayerCount: 2
Fore
SplineSet
92 -11 m 0,0,1
 7 -11 7 -11 -45 33 c 1,2,-1
 18 167 l 1,3,4
 25 159 25 159 53.5 147 c 128,-1,5
 82 135 82 135 123 135 c 0,6,7
 156 135 156 135 178.5 147.5 c 128,-1,8
 201 160 201 160 217 186 c 128,-1,9
 233 212 233 212 245 252.5 c 128,-1,10
 257 293 257 293 269 349 c 2,11,-1
 346 710 l 1,12,-1
 511 710 l 1,13,-1
 434 349 l 2,14,15
 417 268 417 268 394.5 201.5 c 128,-1,16
 372 135 372 135 334.5 88 c 128,-1,17
 297 41 297 41 238.5 15 c 128,-1,18
 180 -11 180 -11 92 -11 c 0,0,1
EndSplineSet
EndChar

StartChar: K
Encoding: 75 75 47
Width: 653
GlyphClass: 2
Flags: W
LayerCount: 2
Fore
SplineSet
155 710 m 1,0,-1
 319 710 l 1,1,-1
 254 404 l 1,2,-1
 554 710 l 1,3,-1
 739 710 l 1,4,-1
 420 393 l 1,5,-1
 604 0 l 1,6,-1
 416 0 l 1,7,-1
 293 286 l 1,8,-1
 212 209 l 1,9,-1
 168 0 l 1,10,-1
 4 0 l 1,11,-1
 155 710 l 1,0,-1
EndSplineSet
EndChar

StartChar: L
Encoding: 76 76 48
Width: 563
GlyphClass: 2
Flags: W
LayerCount: 2
Fore
SplineSet
155 710 m 1,0,-1
 319 710 l 1,1,-1
 198 144 l 1,2,-1
 519 144 l 1,3,-1
 489 0 l 1,4,-1
 4 0 l 1,5,-1
 155 710 l 1,0,-1
EndSplineSet
EndChar

StartChar: M
Encoding: 77 77 49
Width: 825
GlyphClass: 2
Flags: W
LayerCount: 2
Fore
SplineSet
155 710 m 1,0,-1
 333 710 l 1,1,-1
 421 339 l 1,2,-1
 667 710 l 1,3,-1
 845 710 l 1,4,-1
 694 0 l 1,5,-1
 529 0 l 1,6,-1
 620 425 l 1,7,-1
 417 116 l 1,8,-1
 329 116 l 1,9,-1
 259 425 l 1,10,-1
 168 0 l 1,11,-1
 4 0 l 1,12,-1
 155 710 l 1,0,-1
EndSplineSet
EndChar

StartChar: N
Encoding: 78 78 50
Width: 729
GlyphClass: 2
Flags: W
LayerCount: 2
Fore
SplineSet
155 710 m 1,0,-1
 283 710 l 1,1,-1
 496 293 l 1,2,-1
 584 710 l 1,3,-1
 748 710 l 1,4,-1
 597 0 l 1,5,-1
 467 0 l 1,6,-1
 254 406 l 1,7,-1
 168 0 l 1,8,-1
 4 0 l 1,9,-1
 155 710 l 1,0,-1
EndSplineSet
EndChar

StartChar: O
Encoding: 79 79 51
Width: 733
GlyphClass: 2
Flags: W
LayerCount: 2
Fore
SplineSet
301 -6 m 0,0,1
 236 -6 236 -6 186 18.5 c 128,-1,2
 136 43 136 43 102 84.5 c 128,-1,3
 68 126 68 126 50.5 179.5 c 128,-1,4
 33 233 33 233 33 291 c 0,5,6
 33 345 33 345 49 397 c 128,-1,7
 65 449 65 449 93.5 496 c 128,-1,8
 122 543 122 543 161 583 c 128,-1,9
 200 623 200 623 247.5 652 c 128,-1,10
 295 681 295 681 348 697.5 c 128,-1,11
 401 714 401 714 457 714 c 0,12,13
 521 714 521 714 571 689 c 128,-1,14
 621 664 621 664 654.5 623 c 128,-1,15
 688 582 688 582 705.5 528 c 128,-1,16
 723 474 723 474 723 417 c 0,17,18
 723 337 723 337 688.5 261 c 128,-1,19
 654 185 654 185 595.5 125.5 c 128,-1,20
 537 66 537 66 461 30 c 128,-1,21
 385 -6 385 -6 301 -6 c 0,0,1
333 140 m 0,22,23
 385 140 385 140 426 165 c 128,-1,24
 467 190 467 190 495.5 228.5 c 128,-1,25
 524 267 524 267 539.5 314 c 128,-1,26
 555 361 555 361 555 406 c 0,27,28
 555 439 555 439 547 468 c 128,-1,29
 539 497 539 497 523 519.5 c 128,-1,30
 507 542 507 542 482 555 c 128,-1,31
 457 568 457 568 423 568 c 0,32,33
 372 568 372 568 330.5 543.5 c 128,-1,34
 289 519 289 519 260.5 481 c 128,-1,35
 232 443 232 443 216.5 396 c 128,-1,36
 201 349 201 349 201 304 c 0,37,38
 201 271 201 271 209 241.5 c 128,-1,39
 217 212 217 212 233 189.5 c 128,-1,40
 249 167 249 167 274 153.5 c 128,-1,41
 299 140 299 140 333 140 c 0,22,23
EndSplineSet
EndChar

StartChar: P
Encoding: 80 80 52
Width: 602
GlyphClass: 2
Flags: W
LayerCount: 2
Fore
SplineSet
155 710 m 1,0,-1
 444 710 l 2,1,2
 485 710 485 710 518 693 c 128,-1,3
 551 676 551 676 573.5 648 c 128,-1,4
 596 620 596 620 608 584 c 128,-1,5
 620 548 620 548 620 510 c 0,6,7
 620 459 620 459 598 408.5 c 128,-1,8
 576 358 576 358 538.5 318.5 c 128,-1,9
 501 279 501 279 451.5 254 c 128,-1,10
 402 229 402 229 346 229 c 2,11,-1
 216 229 l 1,12,-1
 168 0 l 1,13,-1
 4 0 l 1,14,-1
 155 710 l 1,0,-1
366 372 m 2,15,16
 381 372 381 372 396.5 380.5 c 128,-1,17
 412 389 412 389 424.5 405.5 c 128,-1,18
 437 422 437 422 444.5 444.5 c 128,-1,19
 452 467 452 467 452 496 c 0,20,21
 452 532 452 532 437 549 c 128,-1,22
 422 566 422 566 402 566 c 2,23,-1
 288 566 l 1,24,-1
 247 372 l 1,25,-1
 366 372 l 2,15,16
EndSplineSet
EndChar

StartChar: Q
Encoding: 81 81 53
Width: 732
GlyphClass: 2
Flags: W
LayerCount: 2
Fore
SplineSet
472 36 m 1,0,1
 432 16 432 16 388.5 5.5 c 128,-1,2
 345 -5 345 -5 300 -5 c 0,3,4
 235 -5 235 -5 185.5 19.5 c 128,-1,5
 136 44 136 44 101.5 85 c 128,-1,6
 67 126 67 126 49.5 179.5 c 128,-1,7
 32 233 32 233 32 291 c 0,8,9
 32 372 32 372 67 448 c 128,-1,10
 102 524 102 524 160.5 583.5 c 128,-1,11
 219 643 219 643 295.5 679 c 128,-1,12
 372 715 372 715 456 715 c 0,13,14
 521 715 521 715 570.5 690 c 128,-1,15
 620 665 620 665 654 623.5 c 128,-1,16
 688 582 688 582 705 528 c 128,-1,17
 722 474 722 474 722 417 c 0,18,19
 722 331 722 331 683 250.5 c 128,-1,20
 644 170 644 170 578 110 c 1,21,-1
 652 0 l 1,22,-1
 497 0 l 1,23,-1
 472 36 l 1,0,1
333 141 m 0,24,25
 365 141 365 141 396 152 c 1,26,-1
 311 280 l 1,27,-1
 464 280 l 1,28,-1
 497 230 l 1,29,30
 525 268 525 268 540 314.5 c 128,-1,31
 555 361 555 361 555 406 c 0,32,33
 555 439 555 439 547 468.5 c 128,-1,34
 539 498 539 498 522.5 520.5 c 128,-1,35
 506 543 506 543 481.5 556 c 128,-1,36
 457 569 457 569 423 569 c 0,37,38
 372 569 372 569 330.5 544.5 c 128,-1,39
 289 520 289 520 260 481.5 c 128,-1,40
 231 443 231 443 215.5 396 c 128,-1,41
 200 349 200 349 200 304 c 0,42,43
 200 272 200 272 208 242.5 c 128,-1,44
 216 213 216 213 232.5 190.5 c 128,-1,45
 249 168 249 168 274 154.5 c 128,-1,46
 299 141 299 141 333 141 c 0,24,25
EndSplineSet
EndChar

StartChar: R
Encoding: 82 82 54
Width: 647
GlyphClass: 2
Flags: W
LayerCount: 2
Fore
SplineSet
4 0 m 1,0,-1
 155 710 l 1,1,-1
 460 710 l 2,2,3
 502 710 502 710 534.5 693 c 128,-1,4
 567 676 567 676 589.5 648 c 128,-1,5
 612 620 612 620 624 584 c 128,-1,6
 636 548 636 548 636 510 c 0,7,8
 636 473 636 473 624.5 437 c 128,-1,9
 613 401 613 401 592.5 368.5 c 128,-1,10
 572 336 572 336 543.5 309 c 128,-1,11
 515 282 515 282 481 264 c 1,12,-1
 572 0 l 1,13,-1
 387 0 l 1,14,-1
 309 229 l 1,15,-1
 216 229 l 1,16,-1
 168 0 l 1,17,-1
 4 0 l 1,0,-1
383 372 m 2,18,19
 398 372 398 372 413 381.5 c 128,-1,20
 428 391 428 391 440 407.5 c 128,-1,21
 452 424 452 424 459.5 446 c 128,-1,22
 467 468 467 468 467 493 c 0,23,24
 467 526 467 526 453 546 c 128,-1,25
 439 566 439 566 419 566 c 2,26,-1
 288 566 l 1,27,-1
 247 372 l 1,28,-1
 383 372 l 2,18,19
EndSplineSet
EndChar

StartChar: S
Encoding: 83 83 55
Width: 594
GlyphClass: 2
Flags: W
LayerCount: 2
Fore
SplineSet
244 -8 m 0,0,1
 169 -8 169 -8 97 15 c 128,-1,2
 25 38 25 38 -27 80 c 1,3,-1
 75 223 l 1,4,5
 77 218 77 218 94.5 204 c 128,-1,6
 112 190 112 190 139.5 176 c 128,-1,7
 167 162 167 162 203 151 c 128,-1,8
 239 140 239 140 278 140 c 0,9,10
 326 140 326 140 346 157.5 c 128,-1,11
 366 175 366 175 366 203 c 0,12,13
 366 220 366 220 355 231.5 c 128,-1,14
 344 243 344 243 324.5 252.5 c 128,-1,15
 305 262 305 262 279.5 270.5 c 128,-1,16
 254 279 254 279 225 289 c 0,17,18
 153 315 153 315 117.5 350 c 128,-1,19
 82 385 82 385 82 444 c 0,20,21
 82 508 82 508 108 559 c 128,-1,22
 134 610 134 610 176.5 644.5 c 128,-1,23
 219 679 219 679 274 697.5 c 128,-1,24
 329 716 329 716 387 716 c 0,25,26
 423 716 423 716 456 709 c 128,-1,27
 489 702 489 702 518 691 c 128,-1,28
 547 680 547 680 571.5 666 c 128,-1,29
 596 652 596 652 616 638 c 1,30,-1
 516 502 l 2,31,32
 514 506 514 506 499.5 517 c 128,-1,33
 485 528 485 528 462 540 c 128,-1,34
 439 552 439 552 410 561 c 128,-1,35
 381 570 381 570 351 570 c 0,36,37
 309 570 309 570 285.5 551.5 c 128,-1,38
 262 533 262 533 262 500 c 0,39,40
 262 471 262 471 293 456.5 c 128,-1,41
 324 442 324 442 381 424 c 0,42,43
 419 412 419 412 450.5 397.5 c 128,-1,44
 482 383 482 383 504.5 363 c 128,-1,45
 527 343 527 343 539 316 c 128,-1,46
 551 289 551 289 551 252 c 0,47,48
 551 181 551 181 524 131.5 c 128,-1,49
 497 82 497 82 453 51 c 128,-1,50
 409 20 409 20 354 6 c 128,-1,51
 299 -8 299 -8 244 -8 c 0,0,1
EndSplineSet
EndChar

StartChar: T
Encoding: 84 84 56
Width: 596
GlyphClass: 2
Flags: W
LayerCount: 2
Fore
SplineSet
273 566 m 1,0,-1
 70 566 l 1,1,-1
 100 710 l 1,2,-1
 669 710 l 1,3,-1
 639 566 l 1,4,-1
 437 566 l 1,5,-1
 316 0 l 1,6,-1
 152 0 l 1,7,-1
 273 566 l 1,0,-1
EndSplineSet
EndChar

StartChar: U
Encoding: 85 85 57
Width: 717
GlyphClass: 2
Flags: W
LayerCount: 2
Fore
SplineSet
293 -6 m 0,0,1
 228 -6 228 -6 183 12.5 c 128,-1,2
 138 31 138 31 109.5 63.5 c 128,-1,3
 81 96 81 96 68 140.5 c 128,-1,4
 55 185 55 185 55 236 c 0,5,6
 55 290 55 290 67 347 c 2,7,-1
 145 710 l 1,8,-1
 309 710 l 1,9,-1
 231 347 l 2,10,11
 222 303 222 303 222 266 c 0,12,13
 222 239 222 239 227.5 216 c 128,-1,14
 233 193 233 193 245 176 c 128,-1,15
 257 159 257 159 276.5 149.5 c 128,-1,16
 296 140 296 140 324 140 c 0,17,18
 362 140 362 140 392 157.5 c 128,-1,19
 422 175 422 175 444 204 c 128,-1,20
 466 233 466 233 481 270.5 c 128,-1,21
 496 308 496 308 505 347 c 2,22,-1
 582 710 l 1,23,-1
 746 710 l 1,24,-1
 669 347 l 2,25,26
 653 273 653 273 621.5 209 c 128,-1,27
 590 145 590 145 543 97 c 128,-1,28
 496 49 496 49 433.5 21.5 c 128,-1,29
 371 -6 371 -6 293 -6 c 0,0,1
EndSplineSet
EndChar

StartChar: V
Encoding: 86 86 58
Width: 644
GlyphClass: 2
Flags: W
LayerCount: 2
Fore
SplineSet
82 710 m 1,0,-1
 255 710 l 1,1,-1
 299 206 l 1,2,-1
 556 710 l 1,3,-1
 728 710 l 1,4,-1
 324 0 l 1,5,-1
 187 0 l 1,6,-1
 82 710 l 1,0,-1
EndSplineSet
EndChar

StartChar: W
Encoding: 87 87 59
Width: 1002
GlyphClass: 2
Flags: W
LayerCount: 2
Fore
SplineSet
76 710 m 1,0,-1
 254 710 l 1,1,-1
 306 188 l 1,2,-1
 408 379 l 1,3,-1
 368 709 l 1,4,-1
 518 709 l 1,5,-1
 536 482 l 1,6,-1
 650 709 l 1,7,-1
 801 709 l 1,8,-1
 618 379 l 1,9,-1
 641 188 l 1,10,-1
 914 710 l 1,11,-1
 1094 710 l 1,12,-1
 674 0 l 1,13,-1
 538 0 l 1,14,-1
 492 278 l 1,15,-1
 330 0 l 1,16,-1
 193 0 l 1,17,-1
 76 710 l 1,0,-1
EndSplineSet
Substitution2: "'ss01' Style Set 1 in Latin lookup 8 subtable" W.alt
Substitution2: "'salt' Stylistic Alternatives in Latin lookup 5 subtable" W.alt
Substitution2: "'aalt' Access All Alternates in Latin lookup 0 subtable" W.alt
EndChar

StartChar: X
Encoding: 88 88 60
Width: 625
GlyphClass: 2
Flags: W
LayerCount: 2
Fore
SplineSet
236 350 m 1,0,-1
 81 710 l 1,1,-1
 259 710 l 1,2,-1
 348 465 l 1,3,-1
 540 710 l 1,4,-1
 717 710 l 1,5,-1
 409 350 l 1,6,-1
 558 0 l 1,7,-1
 381 0 l 1,8,-1
 298 235 l 1,9,-1
 116 0 l 1,10,-1
 -62 0 l 1,11,-1
 236 350 l 1,0,-1
EndSplineSet
EndChar

StartChar: Y
Encoding: 89 89 61
Width: 623
GlyphClass: 2
Flags: W
LayerCount: 2
Fore
SplineSet
213 244 m 1,0,-1
 77 710 l 1,1,-1
 255 710 l 1,2,-1
 324 384 l 1,3,-1
 535 710 l 1,4,-1
 713 710 l 1,5,-1
 375 242 l 1,6,-1
 324 0 l 1,7,-1
 160 0 l 1,8,-1
 213 244 l 1,0,-1
EndSplineSet
EndChar

StartChar: Z
Encoding: 90 90 62
Width: 595
GlyphClass: 2
Flags: W
LayerCount: 2
Fore
SplineSet
-10 123 m 1,0,-1
 425 566 l 1,1,-1
 98 566 l 1,2,-1
 128 710 l 1,3,-1
 646 710 l 1,4,-1
 619 587 l 1,5,-1
 200 144 l 1,6,-1
 529 144 l 1,7,-1
 499 0 l 1,8,-1
 -36 0 l 1,9,-1
 -10 123 l 1,0,-1
EndSplineSet
EndChar

StartChar: bracketleft
Encoding: 91 91 63
Width: 322
GlyphClass: 2
Flags: W
LayerCount: 2
Fore
SplineSet
-4 -40 m 1,0,-1
 162 740 l 1,1,-1
 373 740 l 1,2,-1
 346 613 l 1,3,-1
 282 613 l 1,4,-1
 171 87 l 1,5,-1
 234 87 l 1,6,-1
 208 -40 l 1,7,-1
 -4 -40 l 1,0,-1
EndSplineSet
EndChar

StartChar: backslash
Encoding: 92 92 64
Width: 632
GlyphClass: 2
Flags: W
LayerCount: 2
Fore
SplineSet
284 710 m 1,0,-1
 546 0 l 1,1,-1
 370 0 l 1,2,-1
 107 710 l 1,3,-1
 284 710 l 1,0,-1
EndSplineSet
EndChar

StartChar: bracketright
Encoding: 93 93 65
Width: 323
GlyphClass: 2
Flags: W
LayerCount: 2
Fore
SplineSet
-30 -40 m 1,0,-1
 -3 87 l 1,1,-1
 62 87 l 1,2,-1
 173 613 l 1,3,-1
 109 613 l 1,4,-1
 136 740 l 1,5,-1
 347 740 l 1,6,-1
 182 -40 l 1,7,-1
 -30 -40 l 1,0,-1
EndSplineSet
EndChar

StartChar: asciicircum
Encoding: 94 94 66
Width: 608
GlyphClass: 2
Flags: W
LayerCount: 2
Fore
SplineSet
46 303 m 1,0,-1
 244 710 l 1,1,-1
 377 710 l 1,2,-1
 574 303 l 1,3,-1
 444 303 l 1,4,-1
 311 578 l 1,5,-1
 174 303 l 1,6,-1
 46 303 l 1,0,-1
EndSplineSet
EndChar

StartChar: underscore
Encoding: 95 95 67
Width: 441
GlyphClass: 2
Flags: W
LayerCount: 2
Fore
SplineSet
-44 -144 m 1,0,-1
 -14 0 l 1,1,-1
 326 0 l 1,2,-1
 296 -144 l 1,3,-1
 -44 -144 l 1,0,-1
EndSplineSet
EndChar

StartChar: grave
Encoding: 96 96 68
Width: 260
GlyphClass: 2
Flags: W
LayerCount: 2
Fore
SplineSet
53 730 m 1,0,-1
 197 730 l 1,1,-1
 219 600 l 1,2,-1
 108 584 l 1,3,-1
 53 730 l 1,0,-1
EndSplineSet
EndChar

StartChar: a
Encoding: 97 97 69
Width: 634
GlyphClass: 2
Flags: W
LayerCount: 2
Fore
SplineSet
197 -10 m 0,0,1
 153 -10 153 -10 118.5 6 c 128,-1,2
 84 22 84 22 60 50.5 c 128,-1,3
 36 79 36 79 23.5 118 c 128,-1,4
 11 157 11 157 11 203 c 0,5,6
 11 269 11 269 34.5 329.5 c 128,-1,7
 58 390 58 390 97 435.5 c 128,-1,8
 136 481 136 481 188 508 c 128,-1,9
 240 535 240 535 297 535 c 0,10,11
 348 535 348 535 384 509 c 128,-1,12
 420 483 420 483 434 439 c 1,13,-1
 452 522 l 1,14,-1
 613 522 l 1,15,-1
 539 180 l 2,16,17
 538 173 538 173 537.5 168.5 c 128,-1,18
 537 164 537 164 537 159 c 0,19,20
 537 136 537 136 562 135 c 1,21,-1
 534 0 l 1,22,23
 511 -5 511 -5 494.5 -6.5 c 128,-1,24
 478 -8 478 -8 466 -8 c 0,25,26
 427 -8 427 -8 404 7.5 c 128,-1,27
 381 23 381 23 381 59 c 0,28,29
 381 69 381 69 384 87 c 1,30,31
 347 38 347 38 297.5 14 c 128,-1,32
 248 -10 248 -10 197 -10 c 0,0,1
269 125 m 0,33,34
 299 125 299 125 330 144.5 c 128,-1,35
 361 164 361 164 384 198 c 1,36,-1
 407 308 l 1,37,38
 402 348 402 348 377 373.5 c 128,-1,39
 352 399 352 399 320 399 c 0,40,41
 293 399 293 399 267.5 384.5 c 128,-1,42
 242 370 242 370 222.5 346.5 c 128,-1,43
 203 323 203 323 191.5 292.5 c 128,-1,44
 180 262 180 262 180 229 c 0,45,46
 180 184 180 184 203.5 154.5 c 128,-1,47
 227 125 227 125 269 125 c 0,33,34
EndSplineSet
Substitution2: "'ss02' Style Set 2 in Latin lookup 9 subtable" a.alt2
Substitution2: "'ss01' Style Set 1 in Latin lookup 8 subtable" a.alt
Substitution2: "'salt' Stylistic Alternatives in Latin lookup 5 subtable" a.alt
Substitution2: "'smcp' Lowercase to Small Capitals in Latin lookup 2 subtable" A.sc
AlternateSubs2: "'aalt' Access All Alternates in Latin lookup 1 subtable" A.sc a.alt a.alt2
EndChar

StartChar: b
Encoding: 98 98 70
Width: 619
GlyphClass: 2
Flags: W
LayerCount: 2
Fore
SplineSet
293 -10 m 0,0,1
 236 -10 236 -10 199 15.5 c 128,-1,2
 162 41 162 41 148 87 c 1,3,-1
 130 0 l 1,4,-1
 -10 0 l 1,5,-1
 145 730 l 1,6,-1
 305 730 l 1,7,-1
 243 439 l 1,8,9
 275 483 275 483 322 509 c 128,-1,10
 369 535 369 535 421 535 c 0,11,12
 462 535 462 535 494 518.5 c 128,-1,13
 526 502 526 502 547.5 473.5 c 128,-1,14
 569 445 569 445 580 406.5 c 128,-1,15
 591 368 591 368 591 323 c 0,16,17
 591 254 591 254 566 193.5 c 128,-1,18
 541 133 541 133 500 87.5 c 128,-1,19
 459 42 459 42 405 16 c 128,-1,20
 351 -10 351 -10 293 -10 c 0,0,1
279 125 m 0,21,22
 307 125 307 125 333 138.5 c 128,-1,23
 359 152 359 152 379 174.5 c 128,-1,24
 399 197 399 197 411 227 c 128,-1,25
 423 257 423 257 423 291 c 0,26,27
 423 336 423 336 401.5 367.5 c 128,-1,28
 380 399 380 399 342 399 c 0,29,30
 308 399 308 399 273.5 373 c 128,-1,31
 239 347 239 347 216 308 c 1,32,-1
 192 198 l 1,33,34
 202 164 202 164 223.5 144.5 c 128,-1,35
 245 125 245 125 279 125 c 0,21,22
EndSplineSet
Substitution2: "'smcp' Lowercase to Small Capitals in Latin lookup 2 subtable" B.sc
Substitution2: "'aalt' Access All Alternates in Latin lookup 0 subtable" B.sc
EndChar

StartChar: c
Encoding: 99 99 71
Width: 548
GlyphClass: 2
Flags: W
LayerCount: 2
Fore
SplineSet
230 -10 m 0,0,1
 175 -10 175 -10 134 7.5 c 128,-1,2
 93 25 93 25 65.5 55.5 c 128,-1,3
 38 86 38 86 24.5 126 c 128,-1,4
 11 166 11 166 11 211 c 0,5,6
 11 272 11 272 35.5 330.5 c 128,-1,7
 60 389 60 389 104 434.5 c 128,-1,8
 148 480 148 480 209.5 507.5 c 128,-1,9
 271 535 271 535 345 535 c 0,10,11
 433 535 433 535 484 496.5 c 128,-1,12
 535 458 535 458 552 396 c 1,13,-1
 387 349 l 1,14,15
 368 399 368 399 315 399 c 0,16,17
 289 399 289 399 264 386 c 128,-1,18
 239 373 239 373 219.5 350.5 c 128,-1,19
 200 328 200 328 188.5 297 c 128,-1,20
 177 266 177 266 177 229 c 0,21,22
 177 182 177 182 199 153.5 c 128,-1,23
 221 125 221 125 257 125 c 0,24,25
 283 125 283 125 308.5 139.5 c 128,-1,26
 334 154 334 154 350 177 c 1,27,-1
 496 129 l 1,28,29
 454 68 454 68 386 29 c 128,-1,30
 318 -10 318 -10 230 -10 c 0,0,1
EndSplineSet
Substitution2: "'smcp' Lowercase to Small Capitals in Latin lookup 2 subtable" C.sc
Substitution2: "'aalt' Access All Alternates in Latin lookup 0 subtable" C.sc
EndChar

StartChar: d
Encoding: 100 100 72
Width: 634
GlyphClass: 2
Flags: W
LayerCount: 2
Fore
SplineSet
197 -10 m 0,0,1
 153 -10 153 -10 118.5 6 c 128,-1,2
 84 22 84 22 60 50.5 c 128,-1,3
 36 79 36 79 23.5 118 c 128,-1,4
 11 157 11 157 11 203 c 0,5,6
 11 269 11 269 34.5 329.5 c 128,-1,7
 58 390 58 390 97 435.5 c 128,-1,8
 136 481 136 481 188 508 c 128,-1,9
 240 535 240 535 297 535 c 0,10,11
 348 535 348 535 384 509 c 128,-1,12
 420 483 420 483 434 439 c 1,13,-1
 496 730 l 1,14,-1
 657 730 l 1,15,-1
 539 180 l 2,16,17
 538 173 538 173 537.5 168.5 c 128,-1,18
 537 164 537 164 537 159 c 0,19,20
 537 136 537 136 562 135 c 1,21,-1
 534 0 l 1,22,23
 511 -5 511 -5 494.5 -6.5 c 128,-1,24
 478 -8 478 -8 466 -8 c 0,25,26
 428 -8 428 -8 404 7 c 128,-1,27
 380 22 380 22 380 56 c 0,28,29
 380 68 380 68 384 87 c 1,30,31
 347 38 347 38 297.5 14 c 128,-1,32
 248 -10 248 -10 197 -10 c 0,0,1
269 125 m 0,33,34
 299 125 299 125 330 144.5 c 128,-1,35
 361 164 361 164 384 198 c 1,36,-1
 407 308 l 1,37,38
 402 348 402 348 377 373.5 c 128,-1,39
 352 399 352 399 320 399 c 0,40,41
 293 399 293 399 267.5 384.5 c 128,-1,42
 242 370 242 370 222.5 346.5 c 128,-1,43
 203 323 203 323 191.5 292.5 c 128,-1,44
 180 262 180 262 180 229 c 0,45,46
 180 184 180 184 203.5 154.5 c 128,-1,47
 227 125 227 125 269 125 c 0,33,34
EndSplineSet
Substitution2: "'ss01' Style Set 1 in Latin lookup 8 subtable" d.alt
Substitution2: "'salt' Stylistic Alternatives in Latin lookup 5 subtable" d.alt
Substitution2: "'smcp' Lowercase to Small Capitals in Latin lookup 2 subtable" D.sc
AlternateSubs2: "'aalt' Access All Alternates in Latin lookup 1 subtable" D.sc d.alt
EndChar

StartChar: e
Encoding: 101 101 73
Width: 558
GlyphClass: 2
Flags: W
LayerCount: 2
Fore
SplineSet
232 -10 m 0,0,1
 181 -10 181 -10 140 6.5 c 128,-1,2
 99 23 99 23 70.5 52 c 128,-1,3
 42 81 42 81 27 122 c 128,-1,4
 12 163 12 163 12 212 c 0,5,6
 12 278 12 278 38 337 c 128,-1,7
 64 396 64 396 110 440 c 128,-1,8
 156 484 156 484 217.5 509.5 c 128,-1,9
 279 535 279 535 350 535 c 0,10,11
 441 535 441 535 492.5 496 c 128,-1,12
 544 457 544 457 544 385 c 0,13,14
 544 299 544 299 466 255 c 128,-1,15
 388 211 388 211 232 211 c 0,16,17
 219 211 219 211 205.5 211 c 128,-1,18
 192 211 192 211 178 212 c 1,19,20
 178 159 178 159 197 132 c 128,-1,21
 216 105 216 105 261 105 c 0,22,23
 297 105 297 105 327.5 122 c 128,-1,24
 358 139 358 139 377 169 c 1,25,-1
 503 129 l 1,26,27
 482 98 482 98 452 72.5 c 128,-1,28
 422 47 422 47 386.5 28.5 c 128,-1,29
 351 10 351 10 311.5 0 c 128,-1,30
 272 -10 272 -10 232 -10 c 0,0,1
324 420 m 0,31,32
 279 420 279 420 246.5 389 c 128,-1,33
 214 358 214 358 196 310 c 1,34,-1
 232 310 l 2,35,36
 320 310 320 310 355 325 c 128,-1,37
 390 340 390 340 390 371 c 0,38,39
 390 394 390 394 371.5 407 c 128,-1,40
 353 420 353 420 324 420 c 0,31,32
EndSplineSet
Substitution2: "'smcp' Lowercase to Small Capitals in Latin lookup 2 subtable" E.sc
Substitution2: "'aalt' Access All Alternates in Latin lookup 0 subtable" E.sc
EndChar

StartChar: f
Encoding: 102 102 74
Width: 376
GlyphClass: 2
Flags: W
LayerCount: 2
Fore
SplineSet
98 361 m 1,0,-1
 35 361 l 1,1,-1
 61 482 l 1,2,-1
 124 482 l 1,3,-1
 133 525 l 2,4,5
 143 574 143 574 164 614 c 128,-1,6
 185 654 185 654 214.5 682 c 128,-1,7
 244 710 244 710 280 725 c 128,-1,8
 316 740 316 740 356 740 c 0,9,10
 417 740 417 740 482 709 c 1,11,-1
 427 589 l 1,12,13
 414 596 414 596 396 600.5 c 128,-1,14
 378 605 378 605 363 605 c 0,15,16
 309 605 309 605 294 531 c 2,17,-1
 283 482 l 1,18,-1
 398 482 l 1,19,-1
 372 361 l 1,20,-1
 258 361 l 1,21,-1
 136 -213 l 1,22,-1
 -24 -213 l 1,23,-1
 98 361 l 1,0,-1
EndSplineSet
Substitution2: "'smcp' Lowercase to Small Capitals in Latin lookup 2 subtable" F.sc
Substitution2: "'aalt' Access All Alternates in Latin lookup 0 subtable" F.sc
EndChar

StartChar: g
Encoding: 103 103 75
Width: 618
GlyphClass: 2
Flags: W
LayerCount: 2
Fore
SplineSet
160 -223 m 0,0,1
 79 -223 79 -223 27 -196 c 128,-1,2
 -25 -169 -25 -169 -57 -118 c 1,3,-1
 47 -31 l 1,4,5
 67 -64 67 -64 103.5 -83.5 c 128,-1,6
 140 -103 140 -103 185 -103 c 0,7,8
 212 -103 212 -103 238 -95 c 128,-1,9
 264 -87 264 -87 286 -70.5 c 128,-1,10
 308 -54 308 -54 324 -27.5 c 128,-1,11
 340 -1 340 -1 348 36 c 2,12,-1
 358 87 l 1,13,14
 327 43 327 43 279.5 20.5 c 128,-1,15
 232 -2 232 -2 183 -2 c 0,16,17
 142 -2 142 -2 110.5 14 c 128,-1,18
 79 30 79 30 57 58 c 128,-1,19
 35 86 35 86 23.5 123.5 c 128,-1,20
 12 161 12 161 12 205 c 0,21,22
 12 272 12 272 36 332 c 128,-1,23
 60 392 60 392 101 437 c 128,-1,24
 142 482 142 482 196 508.5 c 128,-1,25
 250 535 250 535 310 535 c 0,26,27
 365 535 365 535 401.5 509.5 c 128,-1,28
 438 484 438 484 454 439 c 1,29,-1
 473 525 l 1,30,-1
 612 525 l 1,31,-1
 508 36 l 2,32,33
 495 -24 495 -24 463.5 -72 c 128,-1,34
 432 -120 432 -120 386.5 -153.5 c 128,-1,35
 341 -187 341 -187 283 -205 c 128,-1,36
 225 -223 225 -223 160 -223 c 0,0,1
267 125 m 0,37,38
 299 125 299 125 329 145.5 c 128,-1,39
 359 166 359 166 382 198 c 1,40,-1
 406 308 l 1,41,42
 400 350 400 350 375 374.5 c 128,-1,43
 350 399 350 399 318 399 c 0,44,45
 291 399 291 399 265.5 384 c 128,-1,46
 240 369 240 369 221 345 c 128,-1,47
 202 321 202 321 190.5 290.5 c 128,-1,48
 179 260 179 260 179 229 c 0,49,50
 179 184 179 184 202.5 154.5 c 128,-1,51
 226 125 226 125 267 125 c 0,37,38
EndSplineSet
Substitution2: "'smcp' Lowercase to Small Capitals in Latin lookup 2 subtable" G.sc
Substitution2: "'aalt' Access All Alternates in Latin lookup 0 subtable" G.sc
EndChar

StartChar: h
Encoding: 104 104 76
Width: 591
GlyphClass: 2
Flags: W
LayerCount: 2
Fore
SplineSet
145 730 m 1,0,-1
 305 730 l 1,1,-1
 243 437 l 1,2,3
 280 484 280 484 330 509.5 c 128,-1,4
 380 535 380 535 435 535 c 0,5,6
 471 535 471 535 494.5 525 c 128,-1,7
 518 515 518 515 532.5 498.5 c 128,-1,8
 547 482 547 482 552.5 460 c 128,-1,9
 558 438 558 438 558 414 c 0,10,11
 558 395 558 395 555.5 375.5 c 128,-1,12
 553 356 553 356 549 336 c 2,13,-1
 478 0 l 1,14,-1
 318 0 l 1,15,-1
 381 295 l 2,16,17
 383 306 383 306 384 315.5 c 128,-1,18
 385 325 385 325 385 334 c 0,19,20
 385 365 385 365 371 379.5 c 128,-1,21
 357 394 357 394 333 394 c 0,22,23
 321 394 321 394 305 387.5 c 128,-1,24
 289 381 289 381 272.5 368.5 c 128,-1,25
 256 356 256 356 240.5 339 c 128,-1,26
 225 322 225 322 214 301 c 1,27,-1
 150 0 l 1,28,-1
 -10 0 l 1,29,-1
 145 730 l 1,0,-1
EndSplineSet
Substitution2: "'smcp' Lowercase to Small Capitals in Latin lookup 2 subtable" H.sc
Substitution2: "'aalt' Access All Alternates in Latin lookup 0 subtable" H.sc
EndChar

StartChar: i
Encoding: 105 105 77
Width: 268
GlyphClass: 2
Flags: W
LayerCount: 2
Fore
SplineSet
102 525 m 1,0,-1
 262 525 l 1,1,-1
 150 0 l 1,2,-1
 -10 0 l 1,3,-1
 102 525 l 1,0,-1
145 730 m 1,4,-1
 305 730 l 1,5,-1
 274 585 l 1,6,-1
 114 585 l 1,7,-1
 145 730 l 1,4,-1
EndSplineSet
Substitution2: "'smcp' Lowercase to Small Capitals in Latin lookup 2 subtable" I.sc
Substitution2: "'aalt' Access All Alternates in Latin lookup 0 subtable" I.sc
EndChar

StartChar: j
Encoding: 106 106 78
Width: 273
GlyphClass: 2
Flags: W
LayerCount: 2
Fore
SplineSet
-75 -202 m 0,0,1
 -113 -202 -113 -202 -145 -189.5 c 128,-1,2
 -177 -177 -177 -177 -200 -152 c 1,3,-1
 -110 -43 l 1,4,5
 -103 -54 -103 -54 -91.5 -59 c 128,-1,6
 -80 -64 -80 -64 -66 -64 c 0,7,8
 -46 -64 -46 -64 -29 -49.5 c 128,-1,9
 -12 -35 -12 -35 -7 -9 c 2,10,-1
 106 525 l 1,11,-1
 266 525 l 1,12,-1
 156 3 l 2,13,14
 146 -42 146 -42 124 -80 c 128,-1,15
 102 -118 102 -118 71 -145 c 128,-1,16
 40 -172 40 -172 2.5 -187 c 128,-1,17
 -35 -202 -35 -202 -75 -202 c 0,0,1
150 730 m 1,18,-1
 310 730 l 1,19,-1
 279 585 l 1,20,-1
 119 585 l 1,21,-1
 150 730 l 1,18,-1
EndSplineSet
Substitution2: "'ss01' Style Set 1 in Latin lookup 8 subtable" j.alt
Substitution2: "'salt' Stylistic Alternatives in Latin lookup 5 subtable" j.alt
Substitution2: "'smcp' Lowercase to Small Capitals in Latin lookup 2 subtable" J.sc
AlternateSubs2: "'aalt' Access All Alternates in Latin lookup 1 subtable" J.sc j.alt
EndChar

StartChar: k
Encoding: 107 107 79
Width: 570
GlyphClass: 2
Flags: W
LayerCount: 2
Fore
SplineSet
145 730 m 1,0,-1
 304 730 l 1,1,-1
 233 394 l 1,2,3
 273 458 273 458 324.5 494.5 c 128,-1,4
 376 531 376 531 436 531 c 0,5,6
 491 531 491 531 519.5 500 c 128,-1,7
 548 469 548 469 548 413 c 0,8,9
 548 347 548 347 511.5 291 c 128,-1,10
 475 235 475 235 406 198 c 1,11,-1
 495 0 l 1,12,-1
 325 0 l 1,13,-1
 237 227 l 1,14,15
 316 242 316 242 360 275.5 c 128,-1,16
 404 309 404 309 404 350 c 0,17,18
 404 372 404 372 392 383.5 c 128,-1,19
 380 395 380 395 360 395 c 0,20,21
 339 395 339 395 316 382.5 c 128,-1,22
 293 370 293 370 271 349 c 128,-1,23
 249 328 249 328 230.5 299.5 c 128,-1,24
 212 271 212 271 200 239 c 1,25,-1
 149 0 l 1,26,-1
 -10 0 l 1,27,-1
 145 730 l 1,0,-1
EndSplineSet
Substitution2: "'smcp' Lowercase to Small Capitals in Latin lookup 2 subtable" K.sc
Substitution2: "'aalt' Access All Alternates in Latin lookup 0 subtable" K.sc
EndChar

StartChar: l
Encoding: 108 108 80
Width: 326
GlyphClass: 2
Flags: W
LayerCount: 2
Fore
SplineSet
126 -9 m 0,0,1
 69 -9 69 -9 40 16 c 128,-1,2
 11 41 11 41 11 89 c 0,3,4
 11 99 11 99 12.5 109 c 128,-1,5
 14 119 14 119 16 131 c 2,6,-1
 143 730 l 1,7,-1
 303 730 l 1,8,-1
 187 187 l 2,9,10
 186 182 186 182 185.5 176.5 c 128,-1,11
 185 171 185 171 185 166 c 0,12,13
 185 127 185 127 223 127 c 0,14,15
 234 127 234 127 248.5 130.5 c 128,-1,16
 263 134 263 134 276 141 c 1,17,-1
 271 21 l 1,18,19
 239 7 239 7 199 -1 c 128,-1,20
 159 -9 159 -9 126 -9 c 0,0,1
EndSplineSet
Substitution2: "'ss01' Style Set 1 in Latin lookup 8 subtable" l.alt
Substitution2: "'salt' Stylistic Alternatives in Latin lookup 5 subtable" l.alt
Substitution2: "'smcp' Lowercase to Small Capitals in Latin lookup 2 subtable" L.sc
AlternateSubs2: "'aalt' Access All Alternates in Latin lookup 1 subtable" L.sc l.alt
EndChar

StartChar: m
Encoding: 109 109 81
Width: 897
GlyphClass: 2
Flags: W
LayerCount: 2
Fore
SplineSet
102 525 m 1,0,-1
 246 525 l 1,1,-1
 227 437 l 1,2,3
 263 484 263 484 317 509.5 c 128,-1,4
 371 535 371 535 428 535 c 0,5,6
 460 535 460 535 482 527 c 128,-1,7
 504 519 504 519 518 505.5 c 128,-1,8
 532 492 532 492 538.5 473.5 c 128,-1,9
 545 455 545 455 547 433 c 1,10,11
 586 482 586 482 638 508.5 c 128,-1,12
 690 535 690 535 747 535 c 0,13,14
 781 535 781 535 804 525 c 128,-1,15
 827 515 827 515 840.5 498.5 c 128,-1,16
 854 482 854 482 859.5 460.5 c 128,-1,17
 865 439 865 439 865 415 c 0,18,19
 865 403 865 403 863 383.5 c 128,-1,20
 861 364 861 364 855 336 c 2,21,-1
 783 0 l 1,22,-1
 623 0 l 1,23,-1
 686 295 l 2,24,25
 688 307 688 307 689.5 317.5 c 128,-1,26
 691 328 691 328 691 337 c 0,27,28
 691 366 691 366 679 380 c 128,-1,29
 667 394 667 394 647 394 c 0,30,31
 632 394 632 394 616 387 c 128,-1,32
 600 380 600 380 584.5 367.5 c 128,-1,33
 569 355 569 355 554.5 338 c 128,-1,34
 540 321 540 321 530 301 c 1,35,-1
 467 0 l 1,36,-1
 307 0 l 1,37,-1
 370 295 l 2,38,39
 372 307 372 307 373.5 317.5 c 128,-1,40
 375 328 375 328 375 337 c 0,41,42
 375 366 375 366 362.5 380 c 128,-1,43
 350 394 350 394 330 394 c 0,44,45
 301 394 301 394 268 367.5 c 128,-1,46
 235 341 235 341 214 301 c 1,47,-1
 150 0 l 1,48,-1
 -10 0 l 1,49,-1
 102 525 l 1,0,-1
EndSplineSet
Substitution2: "'smcp' Lowercase to Small Capitals in Latin lookup 2 subtable" M.sc
Substitution2: "'aalt' Access All Alternates in Latin lookup 0 subtable" M.sc
EndChar

StartChar: n
Encoding: 110 110 82
Width: 591
GlyphClass: 2
Flags: W
LayerCount: 2
Fore
SplineSet
102 525 m 1,0,-1
 246 525 l 1,1,-1
 227 437 l 1,2,3
 264 484 264 484 319 509.5 c 128,-1,4
 374 535 374 535 440 535 c 0,5,6
 475 535 475 535 497.5 525 c 128,-1,7
 520 515 520 515 533.5 498.5 c 128,-1,8
 547 482 547 482 552.5 460 c 128,-1,9
 558 438 558 438 558 414 c 0,10,11
 558 394 558 394 555.5 374.5 c 128,-1,12
 553 355 553 355 549 336 c 2,13,-1
 478 0 l 1,14,-1
 318 0 l 1,15,-1
 381 295 l 2,16,17
 385 315 385 315 385 335 c 0,18,19
 385 366 385 366 372 380 c 128,-1,20
 359 394 359 394 337 394 c 0,21,22
 308 394 308 394 272 368 c 128,-1,23
 236 342 236 342 214 301 c 1,24,-1
 150 0 l 1,25,-1
 -10 0 l 1,26,-1
 102 525 l 1,0,-1
EndSplineSet
Substitution2: "'smcp' Lowercase to Small Capitals in Latin lookup 2 subtable" N.sc
Substitution2: "'aalt' Access All Alternates in Latin lookup 0 subtable" N.sc
EndChar

StartChar: o
Encoding: 111 111 83
Width: 591
GlyphClass: 2
Flags: W
LayerCount: 2
Fore
SplineSet
229 -10 m 0,0,1
 174 -10 174 -10 133 7.5 c 128,-1,2
 92 25 92 25 65 55 c 128,-1,3
 38 85 38 85 24.5 124.5 c 128,-1,4
 11 164 11 164 11 209 c 0,5,6
 11 271 11 271 35 329.5 c 128,-1,7
 59 388 59 388 103 434 c 128,-1,8
 147 480 147 480 208.5 507.5 c 128,-1,9
 270 535 270 535 345 535 c 0,10,11
 399 535 399 535 440 517.5 c 128,-1,12
 481 500 481 500 508.5 470 c 128,-1,13
 536 440 536 440 549.5 400.5 c 128,-1,14
 563 361 563 361 563 316 c 0,15,16
 563 254 563 254 539 195.5 c 128,-1,17
 515 137 515 137 471 91.5 c 128,-1,18
 427 46 427 46 365.5 18 c 128,-1,19
 304 -10 304 -10 229 -10 c 0,0,1
258 125 m 0,20,21
 285 125 285 125 310 138 c 128,-1,22
 335 151 335 151 354 174.5 c 128,-1,23
 373 198 373 198 384.5 229 c 128,-1,24
 396 260 396 260 396 296 c 0,25,26
 396 343 396 343 374.5 371 c 128,-1,27
 353 399 353 399 316 399 c 0,28,29
 289 399 289 399 264 386 c 128,-1,30
 239 373 239 373 220 349.5 c 128,-1,31
 201 326 201 326 189.5 295 c 128,-1,32
 178 264 178 264 178 228 c 0,33,34
 178 181 178 181 199.5 153 c 128,-1,35
 221 125 221 125 258 125 c 0,20,21
EndSplineSet
Substitution2: "'smcp' Lowercase to Small Capitals in Latin lookup 2 subtable" O.sc
Substitution2: "'aalt' Access All Alternates in Latin lookup 0 subtable" O.sc
EndChar

StartChar: p
Encoding: 112 112 84
Width: 618
GlyphClass: 2
Flags: W
LayerCount: 2
Fore
SplineSet
101 525 m 1,0,-1
 241 525 l 1,1,-1
 222 440 l 1,2,3
 259 485 259 485 305 510 c 128,-1,4
 351 535 351 535 408 535 c 0,5,6
 450 535 450 535 484 518.5 c 128,-1,7
 518 502 518 502 541.5 473.5 c 128,-1,8
 565 445 565 445 577.5 405.5 c 128,-1,9
 590 366 590 366 590 321 c 0,10,11
 590 255 590 255 567 195 c 128,-1,12
 544 135 544 135 505 89.5 c 128,-1,13
 466 44 466 44 415 17 c 128,-1,14
 364 -10 364 -10 309 -10 c 0,15,16
 253 -10 253 -10 217 15 c 128,-1,17
 181 40 181 40 168 85 c 1,18,-1
 104 -213 l 1,19,-1
 -56 -213 l 1,20,-1
 101 525 l 1,0,-1
283 125 m 0,21,22
 310 125 310 125 335 139.5 c 128,-1,23
 360 154 360 154 379.5 178 c 128,-1,24
 399 202 399 202 411 232.5 c 128,-1,25
 423 263 423 263 423 295 c 0,26,27
 423 340 423 340 399 369.5 c 128,-1,28
 375 399 375 399 333 399 c 0,29,30
 304 399 304 399 273 379.5 c 128,-1,31
 242 360 242 360 219 327 c 1,32,-1
 196 219 l 1,33,34
 203 179 203 179 226.5 152 c 128,-1,35
 250 125 250 125 283 125 c 0,21,22
EndSplineSet
Substitution2: "'smcp' Lowercase to Small Capitals in Latin lookup 2 subtable" P.sc
Substitution2: "'aalt' Access All Alternates in Latin lookup 0 subtable" P.sc
EndChar

StartChar: q
Encoding: 113 113 85
Width: 618
GlyphClass: 2
Flags: W
LayerCount: 2
Fore
SplineSet
176 -10 m 0,0,1
 137 -10 137 -10 106.5 6 c 128,-1,2
 76 22 76 22 55 50.5 c 128,-1,3
 34 79 34 79 22.5 117.5 c 128,-1,4
 11 156 11 156 11 201 c 0,5,6
 11 270 11 270 36 331 c 128,-1,7
 61 392 61 392 102 437 c 128,-1,8
 143 482 143 482 197 508.5 c 128,-1,9
 251 535 251 535 309 535 c 0,10,11
 366 535 366 535 401.5 509 c 128,-1,12
 437 483 437 483 454 439 c 1,13,-1
 472 525 l 1,14,-1
 612 525 l 1,15,-1
 495 -25 l 2,16,17
 492 -36 492 -36 492 -43 c 0,18,19
 492 -68 492 -68 526 -69 c 1,20,-1
 497 -205 l 1,21,22
 475 -209 475 -209 451 -211 c 128,-1,23
 427 -213 427 -213 409 -213 c 0,24,25
 367 -213 367 -213 340.5 -191.5 c 128,-1,26
 314 -170 314 -170 314 -132 c 0,27,28
 314 -121 314 -121 317 -110 c 2,29,-1
 358 85 l 1,30,31
 324 38 324 38 277.5 14 c 128,-1,32
 231 -10 231 -10 176 -10 c 0,0,1
267 125 m 0,33,34
 298 125 298 125 327 144.5 c 128,-1,35
 356 164 356 164 382 196 c 1,36,-1
 406 307 l 1,37,38
 401 346 401 346 376.5 372.5 c 128,-1,39
 352 399 352 399 319 399 c 0,40,41
 292 399 292 399 266.5 384.5 c 128,-1,42
 241 370 241 370 221.5 346.5 c 128,-1,43
 202 323 202 323 190 292.5 c 128,-1,44
 178 262 178 262 178 229 c 0,45,46
 178 184 178 184 201.5 154.5 c 128,-1,47
 225 125 225 125 267 125 c 0,33,34
EndSplineSet
Substitution2: "'ss01' Style Set 1 in Latin lookup 8 subtable" q.alt
Substitution2: "'salt' Stylistic Alternatives in Latin lookup 5 subtable" q.alt
Substitution2: "'smcp' Lowercase to Small Capitals in Latin lookup 2 subtable" Q.sc
AlternateSubs2: "'aalt' Access All Alternates in Latin lookup 1 subtable" Q.sc q.alt
EndChar

StartChar: r
Encoding: 114 114 86
Width: 392
GlyphClass: 2
Flags: W
LayerCount: 2
Fore
SplineSet
102 525 m 1,0,-1
 249 525 l 1,1,-1
 226 419 l 1,2,3
 264 472 264 472 310.5 502 c 128,-1,4
 357 532 357 532 402 532 c 0,5,6
 421 532 421 532 425 531 c 1,7,-1
 395 388 l 1,8,9
 341 387 341 387 293.5 369 c 128,-1,10
 246 351 246 351 217 315 c 1,11,-1
 150 0 l 1,12,-1
 -10 0 l 1,13,-1
 102 525 l 1,0,-1
EndSplineSet
Substitution2: "'smcp' Lowercase to Small Capitals in Latin lookup 2 subtable" R.sc
Substitution2: "'aalt' Access All Alternates in Latin lookup 0 subtable" R.sc
EndChar

StartChar: s
Encoding: 115 115 87
Width: 482
GlyphClass: 2
Flags: W
LayerCount: 2
Fore
SplineSet
187 -10 m 0,0,1
 124 -10 124 -10 66.5 11.5 c 128,-1,2
 9 33 9 33 -26 74 c 1,3,-1
 51 172 l 1,4,5
 89 139 89 139 129 121 c 128,-1,6
 169 103 169 103 208 103 c 0,7,8
 240 103 240 103 256 116.5 c 128,-1,9
 272 130 272 130 272 153 c 0,10,11
 272 170 272 170 255.5 181.5 c 128,-1,12
 239 193 239 193 198 206 c 256,13,14
 157 219 157 219 127.5 231.5 c 128,-1,15
 98 244 98 244 79 258.5 c 128,-1,16
 60 273 60 273 51 290.5 c 128,-1,17
 42 308 42 308 42 331 c 0,18,19
 42 375 42 375 61.5 412.5 c 128,-1,20
 81 450 81 450 114 477 c 128,-1,21
 147 504 147 504 191 519.5 c 128,-1,22
 235 535 235 535 285 535 c 0,23,24
 341 535 341 535 386.5 519 c 128,-1,25
 432 503 432 503 470 461 c 1,26,-1
 388 365 l 1,27,28
 351 396 351 396 321 410 c 128,-1,29
 291 424 291 424 261 424 c 0,30,31
 234 424 234 424 216 411 c 128,-1,32
 198 398 198 398 198 372 c 0,33,34
 198 355 198 355 215 344.5 c 128,-1,35
 232 334 232 334 271 323 c 0,36,37
 357 298 357 298 395 269 c 128,-1,38
 433 240 433 240 433 190 c 0,39,40
 433 146 433 146 415 109 c 128,-1,41
 397 72 397 72 364.5 45.5 c 128,-1,42
 332 19 332 19 287 4.5 c 128,-1,43
 242 -10 242 -10 187 -10 c 0,0,1
EndSplineSet
Substitution2: "'smcp' Lowercase to Small Capitals in Latin lookup 2 subtable" S.sc
Substitution2: "'aalt' Access All Alternates in Latin lookup 0 subtable" S.sc
EndChar

StartChar: t
Encoding: 116 116 88
Width: 392
GlyphClass: 2
Flags: W
LayerCount: 2
Fore
SplineSet
163 -10 m 0,0,1
 112 -10 112 -10 79 12.5 c 128,-1,2
 46 35 46 35 46 89 c 0,3,4
 46 110 46 110 50 130 c 2,5,-1
 108 404 l 1,6,-1
 45 404 l 1,7,-1
 72 525 l 1,8,-1
 134 525 l 1,9,-1
 170 692 l 1,10,-1
 330 692 l 1,11,-1
 294 525 l 1,12,-1
 395 525 l 1,13,-1
 369 404 l 1,14,-1
 268 404 l 1,15,-1
 222 185 l 2,16,17
 221 180 221 180 220.5 176 c 128,-1,18
 220 172 220 172 220 168 c 0,19,20
 220 151 220 151 229.5 143.5 c 128,-1,21
 239 136 239 136 254 136 c 0,22,23
 270 136 270 136 290 142 c 128,-1,24
 310 148 310 148 327 155 c 1,25,-1
 327 28 l 1,26,27
 291 12 291 12 248 1 c 128,-1,28
 205 -10 205 -10 163 -10 c 0,0,1
EndSplineSet
Substitution2: "'ss01' Style Set 1 in Latin lookup 8 subtable" t.alt
Substitution2: "'salt' Stylistic Alternatives in Latin lookup 5 subtable" t.alt
Substitution2: "'smcp' Lowercase to Small Capitals in Latin lookup 2 subtable" T.sc
AlternateSubs2: "'aalt' Access All Alternates in Latin lookup 1 subtable" T.sc t.alt
EndChar

StartChar: u
Encoding: 117 117 89
Width: 606
GlyphClass: 2
Flags: W
LayerCount: 2
Fore
SplineSet
139 -10 m 0,0,1
 78 -10 78 -10 47 22 c 128,-1,2
 16 54 16 54 16 116 c 0,3,4
 16 148 16 148 25 189 c 2,5,-1
 97 525 l 1,6,-1
 256 525 l 1,7,-1
 192 224 l 2,8,9
 187 199 187 199 187 185 c 0,10,11
 187 125 187 125 237 125 c 0,12,13
 264 125 264 125 294.5 142 c 128,-1,14
 325 159 325 159 356 201 c 1,15,-1
 425 525 l 1,16,-1
 585 525 l 1,17,-1
 512 180 l 2,18,19
 509 166 509 166 509 159 c 0,20,21
 509 136 509 136 535 135 c 1,22,-1
 506 0 l 1,23,24
 484 -5 484 -5 467.5 -6.5 c 128,-1,25
 451 -8 451 -8 438 -8 c 0,26,27
 400 -8 400 -8 376 7 c 128,-1,28
 352 22 352 22 352 56 c 0,29,30
 352 62 352 62 353.5 69.5 c 128,-1,31
 355 77 355 77 357 91 c 1,32,33
 312 39 312 39 257 14.5 c 128,-1,34
 202 -10 202 -10 139 -10 c 0,0,1
EndSplineSet
Substitution2: "'smcp' Lowercase to Small Capitals in Latin lookup 2 subtable" U.sc
Substitution2: "'aalt' Access All Alternates in Latin lookup 0 subtable" U.sc
EndChar

StartChar: v
Encoding: 118 118 90
Width: 536
GlyphClass: 2
Flags: W
LayerCount: 2
Fore
SplineSet
47 525 m 1,0,-1
 213 525 l 1,1,-1
 230 128 l 1,2,3
 263 183 263 183 289.5 231.5 c 128,-1,4
 316 280 316 280 337.5 326.5 c 128,-1,5
 359 373 359 373 377 421 c 128,-1,6
 395 469 395 469 413 525 c 1,7,-1
 558 525 l 1,8,9
 522 394 522 394 449.5 262.5 c 128,-1,10
 377 131 377 131 275 0 c 1,11,-1
 109 0 l 1,12,-1
 47 525 l 1,0,-1
EndSplineSet
Substitution2: "'smcp' Lowercase to Small Capitals in Latin lookup 2 subtable" V.sc
Substitution2: "'aalt' Access All Alternates in Latin lookup 0 subtable" V.sc
EndChar

StartChar: w
Encoding: 119 119 91
Width: 802
GlyphClass: 2
Flags: W
LayerCount: 2
Fore
SplineSet
38 525 m 1,0,-1
 192 525 l 1,1,-1
 243 145 l 1,2,3
 248 151 248 151 258 169.5 c 128,-1,4
 268 188 268 188 279.5 209 c 128,-1,5
 291 230 291 230 300.5 248.5 c 128,-1,6
 310 267 310 267 314 273 c 1,7,-1
 266 525 l 1,8,-1
 399 525 l 1,9,-1
 417 366 l 2,10,11
 420 372 420 372 431 395.5 c 128,-1,12
 442 419 442 419 454.5 445.5 c 128,-1,13
 467 472 467 472 477 495.5 c 128,-1,14
 487 519 487 519 489 525 c 1,15,-1
 612 525 l 1,16,17
 585 453 585 453 555.5 394 c 128,-1,18
 526 335 526 335 484 274 c 1,19,-1
 501 181 l 1,20,21
 541 234 541 234 569 274.5 c 128,-1,22
 597 315 597 315 618.5 352.5 c 128,-1,23
 640 390 640 390 658.5 430.5 c 128,-1,24
 677 471 677 471 698 525 c 1,25,-1
 843 525 l 1,26,27
 794 394 794 394 709.5 262.5 c 128,-1,28
 625 131 625 131 510 0 c 1,29,-1
 405 0 l 1,30,-1
 380 184 l 2,31,32
 377 180 377 180 369 166 c 128,-1,33
 361 152 361 152 350.5 133 c 128,-1,34
 340 114 340 114 327.5 92 c 128,-1,35
 315 70 315 70 304 51 c 128,-1,36
 293 32 293 32 285 17.5 c 128,-1,37
 277 3 277 3 274 0 c 2,38,-1
 136 0 l 1,39,-1
 38 525 l 1,0,-1
EndSplineSet
Substitution2: "'ss01' Style Set 1 in Latin lookup 8 subtable" w.alt
Substitution2: "'salt' Stylistic Alternatives in Latin lookup 5 subtable" w.alt
Substitution2: "'smcp' Lowercase to Small Capitals in Latin lookup 2 subtable" W.sc
AlternateSubs2: "'aalt' Access All Alternates in Latin lookup 1 subtable" W.sc w.alt
EndChar

StartChar: x
Encoding: 120 120 92
Width: 522
GlyphClass: 2
Flags: W
LayerCount: 2
Fore
SplineSet
166 262 m 1,0,-1
 52 525 l 1,1,-1
 214 525 l 1,2,-1
 268 377 l 1,3,-1
 273 358 l 1,4,-1
 285 377 l 1,5,-1
 405 525 l 1,6,-1
 566 525 l 1,7,-1
 339 262 l 1,8,-1
 458 0 l 1,9,-1
 295 0 l 1,10,-1
 237 147 l 1,11,-1
 232 166 l 1,12,-1
 220 147 l 1,13,-1
 100 0 l 1,14,-1
 -64 0 l 1,15,-1
 166 262 l 1,0,-1
EndSplineSet
Substitution2: "'smcp' Lowercase to Small Capitals in Latin lookup 2 subtable" X.sc
Substitution2: "'aalt' Access All Alternates in Latin lookup 0 subtable" X.sc
EndChar

StartChar: y
Encoding: 121 121 93
Width: 531
GlyphClass: 2
Flags: W
LayerCount: 2
Fore
SplineSet
-50 -111 m 1,0,1
 -20 -110 -20 -110 1 -106.5 c 128,-1,2
 22 -103 22 -103 38 -96 c 128,-1,3
 54 -89 54 -89 67 -77.5 c 128,-1,4
 80 -66 80 -66 94 -48 c 2,5,-1
 123 -11 l 1,6,-1
 45 525 l 1,7,-1
 208 525 l 1,8,-1
 237 137 l 1,9,-1
 271 193 l 2,10,11
 322 275 322 275 353 354.5 c 128,-1,12
 384 434 384 434 404 525 c 1,13,-1
 558 525 l 1,14,15
 544 477 544 477 529 435 c 128,-1,16
 514 393 514 393 491 345.5 c 128,-1,17
 468 298 468 298 434.5 240.5 c 128,-1,18
 401 183 401 183 352 103 c 2,19,-1
 272 -26 l 2,20,21
 237 -83 237 -83 203 -122 c 128,-1,22
 169 -161 169 -161 133 -185 c 128,-1,23
 97 -209 97 -209 57 -220 c 128,-1,24
 17 -231 17 -231 -31 -231 c 1,25,-1
 -50 -111 l 1,0,1
EndSplineSet
Substitution2: "'ss01' Style Set 1 in Latin lookup 8 subtable" y.alt
Substitution2: "'salt' Stylistic Alternatives in Latin lookup 5 subtable" y.alt
Substitution2: "'smcp' Lowercase to Small Capitals in Latin lookup 2 subtable" Y.sc
AlternateSubs2: "'aalt' Access All Alternates in Latin lookup 1 subtable" Y.sc y.alt
EndChar

StartChar: z
Encoding: 122 122 94
Width: 471
GlyphClass: 2
Flags: W
LayerCount: 2
Fore
SplineSet
-19 96 m 1,0,-1
 293 414 l 1,1,-1
 61 414 l 1,2,-1
 85 525 l 1,3,-1
 486 525 l 1,4,-1
 465 429 l 1,5,-1
 153 111 l 1,6,-1
 405 111 l 1,7,-1
 381 0 l 1,8,-1
 -40 0 l 1,9,-1
 -19 96 l 1,0,-1
EndSplineSet
Substitution2: "'smcp' Lowercase to Small Capitals in Latin lookup 2 subtable" Z.sc
Substitution2: "'aalt' Access All Alternates in Latin lookup 0 subtable" Z.sc
EndChar

StartChar: braceleft
Encoding: 123 123 95
Width: 332
GlyphClass: 2
Flags: W
LayerCount: 2
Fore
SplineSet
301 613 m 1,0,-1
 263 432 l 2,1,2
 258 409 258 409 243.5 391.5 c 128,-1,3
 229 374 229 374 211 360 c 1,4,5
 220 349 220 349 227 335.5 c 128,-1,6
 234 322 234 322 234 305 c 0,7,8
 234 298 234 298 232 288 c 2,9,-1
 192 96 l 1,10,-1
 244 96 l 1,11,-1
 217 -31 l 1,12,-1
 43 -31 l 2,13,14
 38 -31 38 -31 32 -27 c 128,-1,15
 26 -23 26 -23 26 -11 c 0,16,17
 26 -5 26 -5 27 -1 c 2,18,-1
 77 234 l 2,19,20
 78 239 78 239 78.5 242.5 c 128,-1,21
 79 246 79 246 79 250 c 0,22,23
 79 273 79 273 67 287.5 c 128,-1,24
 55 302 55 302 39 306 c 1,25,-1
 62 416 l 1,26,27
 72 416 72 416 83 422.5 c 128,-1,28
 94 429 94 429 104 439 c 128,-1,29
 114 449 114 449 121 461.5 c 128,-1,30
 128 474 128 474 131 486 c 2,31,-1
 178 710 l 2,32,33
 182 728 182 728 192 734 c 128,-1,34
 202 740 202 740 207 740 c 2,35,-1
 381 740 l 1,36,-1
 353 613 l 1,37,-1
 301 613 l 1,0,-1
EndSplineSet
EndChar

StartChar: bar
Encoding: 124 124 96
Width: 342
GlyphClass: 2
Flags: W
LayerCount: 2
Fore
SplineSet
108 -130 m 1,0,-1
 108 775 l 1,1,-1
 243 775 l 1,2,-1
 243 -130 l 1,3,-1
 108 -130 l 1,0,-1
EndSplineSet
EndChar

StartChar: braceright
Encoding: 125 125 97
Width: 335
GlyphClass: 2
Flags: W
LayerCount: 2
Fore
SplineSet
115 613 m 1,0,-1
 142 740 l 1,1,-1
 315 740 l 2,2,3
 320 740 320 740 326 735.5 c 128,-1,4
 332 731 332 731 332 720 c 0,5,6
 332 714 332 714 331 710 c 2,7,-1
 283 486 l 2,8,9
 282 482 282 482 281.5 479 c 128,-1,10
 281 476 281 476 281 472 c 0,11,12
 281 450 281 450 293 433 c 128,-1,13
 305 416 305 416 322 416 c 1,14,-1
 298 306 l 1,15,16
 278 301 278 301 257 282 c 128,-1,17
 236 263 236 263 230 234 c 2,18,-1
 180 -1 l 2,19,20
 176 -19 176 -19 166.5 -25 c 128,-1,21
 157 -31 157 -31 151 -31 c 2,22,-1
 -22 -31 l 1,23,-1
 5 96 l 1,24,-1
 57 96 l 1,25,-1
 98 288 l 2,26,27
 103 311 103 311 117.5 328.5 c 128,-1,28
 132 346 132 346 149 360 c 1,29,30
 141 371 141 371 134 384 c 128,-1,31
 127 397 127 397 127 414 c 0,32,33
 127 419 127 419 127 423 c 128,-1,34
 127 427 127 427 129 432 c 2,35,-1
 168 613 l 1,36,-1
 115 613 l 1,0,-1
EndSplineSet
EndChar

StartChar: asciitilde
Encoding: 126 126 98
Width: 565
GlyphClass: 2
Flags: W
LayerCount: 2
Fore
SplineSet
37 222 m 1,0,1
 37 232 37 232 45.5 256 c 128,-1,2
 54 280 54 280 73 305 c 128,-1,3
 92 330 92 330 121.5 348.5 c 128,-1,4
 151 367 151 367 194 367 c 0,5,6
 222 367 222 367 245 358.5 c 128,-1,7
 268 350 268 350 288 340.5 c 128,-1,8
 308 331 308 331 328 322.5 c 128,-1,9
 348 314 348 314 371 314 c 0,10,11
 392 314 392 314 406 321.5 c 128,-1,12
 420 329 420 329 428 338 c 128,-1,13
 436 347 436 347 439 355 c 128,-1,14
 442 363 442 363 442 365 c 2,15,-1
 528 365 l 1,16,17
 528 359 528 359 519 335.5 c 128,-1,18
 510 312 510 312 491 287 c 128,-1,19
 472 262 472 262 441.5 242 c 128,-1,20
 411 222 411 222 366 222 c 0,21,22
 339 222 339 222 316.5 230 c 128,-1,23
 294 238 294 238 273.5 247.5 c 128,-1,24
 253 257 253 257 232.5 265 c 128,-1,25
 212 273 212 273 190 273 c 256,26,27
 168 273 168 273 155 265.5 c 128,-1,28
 142 258 142 258 135 248.5 c 128,-1,29
 128 239 128 239 126 231 c 128,-1,30
 124 223 124 223 124 222 c 2,31,-1
 37 222 l 1,32,-1
 37 222 l 1,0,1
EndSplineSet
EndChar

StartChar: exclamdown
Encoding: 161 161 100
Width: 309
GlyphClass: 2
Flags: W
LayerCount: 2
Fore
SplineSet
262 429 m 1,0,-1
 169 -6 l 1,1,-1
 9 -6 l 1,2,-1
 102 429 l 1,3,-1
 262 429 l 1,0,-1
321 711 m 1,4,-1
 286 545 l 1,5,-1
 126 545 l 1,6,-1
 161 711 l 1,7,-1
 321 711 l 1,4,-1
EndSplineSet
EndChar

StartChar: cent
Encoding: 162 162 101
Width: 584
GlyphClass: 2
Flags: W
LayerCount: 2
Fore
SplineSet
178 -120 m 1,0,-1
 202 -9 l 1,1,2
 160 -6 160 -6 127.5 14 c 128,-1,3
 95 34 95 34 72.5 64.5 c 128,-1,4
 50 95 50 95 38 133 c 128,-1,5
 26 171 26 171 26 212 c 0,6,7
 26 266 26 266 45.5 319 c 128,-1,8
 65 372 65 372 102.5 415.5 c 128,-1,9
 140 459 140 459 194 490.5 c 128,-1,10
 248 522 248 522 317 533 c 1,11,-1
 341 645 l 1,12,-1
 410 645 l 1,13,-1
 386 533 l 1,14,15
 450 531 450 531 499.5 497 c 128,-1,16
 549 463 549 463 569 396 c 1,17,-1
 403 349 l 1,18,19
 398 368 398 368 384.5 380 c 128,-1,20
 371 392 371 392 357 394 c 1,21,-1
 300 129 l 1,22,23
 320 135 320 135 338 147.5 c 128,-1,24
 356 160 356 160 367 177 c 1,25,-1
 513 129 l 1,26,27
 490 94 490 94 458 68 c 128,-1,28
 426 42 426 42 392.5 24.5 c 128,-1,29
 359 7 359 7 326.5 -1.5 c 128,-1,30
 294 -10 294 -10 271 -10 c 1,31,-1
 247 -120 l 1,32,-1
 178 -120 l 1,0,-1
192 225 m 0,33,34
 192 196 192 196 202.5 172 c 128,-1,35
 213 148 213 148 233 137 c 1,36,-1
 286 387 l 1,37,38
 266 380 266 380 249 363 c 128,-1,39
 232 346 232 346 219 323.5 c 128,-1,40
 206 301 206 301 199 275.5 c 128,-1,41
 192 250 192 250 192 225 c 0,33,34
EndSplineSet
EndChar

StartChar: sterling
Encoding: 163 163 102
Width: 544
GlyphClass: 2
Flags: W
LayerCount: 2
Fore
SplineSet
75 384 m 1,0,-1
 134 384 l 1,1,2
 129 413 129 413 123.5 442.5 c 128,-1,3
 118 472 118 472 118 500 c 0,4,5
 118 545 118 545 139 584 c 128,-1,6
 160 623 160 623 194.5 652.5 c 128,-1,7
 229 682 229 682 274.5 698.5 c 128,-1,8
 320 715 320 715 368 715 c 0,9,10
 429 715 429 715 478.5 687.5 c 128,-1,11
 528 660 528 660 556 610 c 1,12,-1
 454 512 l 1,13,14
 437 544 437 544 404.5 565 c 128,-1,15
 372 586 372 586 340 586 c 0,16,17
 305 586 305 586 281.5 561 c 128,-1,18
 258 536 258 536 258 498 c 0,19,20
 258 473 258 473 265 444.5 c 128,-1,21
 272 416 272 416 277 384 c 1,22,-1
 456 384 l 1,23,-1
 430 265 l 1,24,-1
 273 265 l 1,25,26
 262 230 262 230 238 197 c 128,-1,27
 214 164 214 164 169 123 c 1,28,29
 193 131 193 131 211 134 c 128,-1,30
 229 137 229 137 246 137 c 0,31,32
 278 137 278 137 307 129 c 128,-1,33
 336 121 336 121 368 121 c 0,34,35
 385 121 385 121 400 124.5 c 128,-1,36
 415 128 415 128 435 135 c 1,37,-1
 449 17 l 1,38,39
 424 3 424 3 391.5 -6 c 128,-1,40
 359 -15 359 -15 331 -15 c 0,41,42
 309 -15 309 -15 287 -10 c 128,-1,43
 265 -5 265 -5 243 0.5 c 128,-1,44
 221 6 221 6 198.5 11 c 128,-1,45
 176 16 176 16 152 16 c 0,46,47
 126 16 126 16 89 9 c 128,-1,48
 52 2 52 2 16 -9 c 1,49,-1
 7 105 l 1,50,51
 54 137 54 137 87.5 178 c 128,-1,52
 121 219 121 219 134 265 c 1,53,-1
 51 265 l 1,54,-1
 75 384 l 1,0,-1
EndSplineSet
EndChar

StartChar: currency
Encoding: 164 164 103
Width: 580
GlyphClass: 2
Flags: W
LayerCount: 2
Fore
SplineSet
194 501 m 1,0,1
 216 513 216 513 242 520 c 128,-1,2
 268 527 268 527 299 527 c 0,3,4
 329 527 329 527 354.5 520 c 128,-1,5
 380 513 380 513 402 502 c 1,6,-1
 471 572 l 1,7,-1
 533 510 l 1,8,-1
 467 444 l 1,9,10
 498 397 498 397 498 338 c 0,11,12
 498 277 498 277 466 230 c 1,13,-1
 533 164 l 1,14,-1
 476 107 l 1,15,-1
 404 174 l 1,16,17
 360 149 360 149 299 149 c 0,18,19
 267 149 267 149 240.5 156 c 128,-1,20
 214 163 214 163 192 175 c 1,21,-1
 120 107 l 1,22,-1
 63 164 l 1,23,-1
 130 232 l 1,24,25
 116 255 116 255 108 282 c 128,-1,26
 100 309 100 309 100 338 c 0,27,28
 100 396 100 396 129 442 c 1,29,-1
 63 510 l 1,30,-1
 125 572 l 1,31,-1
 194 501 l 1,0,1
215 337 m 0,32,33
 215 296 215 296 239 271 c 128,-1,34
 263 246 263 246 299 246 c 256,35,36
 335 246 335 246 359 271 c 128,-1,37
 383 296 383 296 383 338 c 256,38,39
 383 380 383 380 359 404.5 c 128,-1,40
 335 429 335 429 299 429 c 256,41,42
 263 429 263 429 239 404 c 128,-1,43
 215 379 215 379 215 337 c 0,32,33
EndSplineSet
EndChar

StartChar: yen
Encoding: 165 165 104
Width: 700
GlyphClass: 2
Flags: W
LayerCount: 2
Fore
SplineSet
540 416 m 1,0,-1
 604 416 l 1,1,-1
 582 313 l 1,2,-1
 465 313 l 1,3,-1
 414 242 l 1,4,-1
 407 211 l 1,5,-1
 561 211 l 1,6,-1
 540 108 l 1,7,-1
 385 108 l 1,8,-1
 362 0 l 1,9,-1
 199 0 l 1,10,-1
 221 108 l 1,11,-1
 69 108 l 1,12,-1
 91 211 l 1,13,-1
 244 211 l 1,14,-1
 251 244 l 1,15,-1
 231 313 l 1,16,-1
 113 313 l 1,17,-1
 135 416 l 1,18,-1
 201 416 l 1,19,-1
 115 710 l 1,20,-1
 293 710 l 1,21,-1
 362 384 l 1,22,-1
 572 710 l 1,23,-1
 751 710 l 1,24,-1
 540 416 l 1,0,-1
EndSplineSet
EndChar

StartChar: brokenbar
Encoding: 166 166 105
Width: 334
GlyphClass: 2
Flags: W
LayerCount: 2
Fore
SplineSet
240 260 m 1,0,-1
 240 -130 l 1,1,-1
 104 -130 l 1,2,-1
 104 260 l 1,3,-1
 240 260 l 1,0,-1
240 775 m 1,4,-1
 240 385 l 1,5,-1
 104 385 l 1,6,-1
 104 775 l 1,7,-1
 240 775 l 1,4,-1
EndSplineSet
EndChar

StartChar: section
Encoding: 167 167 106
Width: 524
GlyphClass: 2
Flags: W
LayerCount: 2
Fore
SplineSet
438 223 m 1,0,1
 443 214 443 214 446.5 198.5 c 128,-1,2
 450 183 450 183 450 163 c 0,3,4
 450 94 450 94 422 46 c 128,-1,5
 394 -2 394 -2 352.5 -31.5 c 128,-1,6
 311 -61 311 -61 263.5 -74.5 c 128,-1,7
 216 -88 216 -88 178 -88 c 0,8,9
 139 -88 139 -88 107 -76 c 128,-1,10
 75 -64 75 -64 51 -47 c 128,-1,11
 27 -30 27 -30 11 -11.5 c 128,-1,12
 -5 7 -5 7 -12 21 c 1,13,-1
 111 119 l 1,14,15
 131 89 131 89 154 76.5 c 128,-1,16
 177 64 177 64 203 64 c 0,17,18
 232 64 232 64 254.5 80 c 128,-1,19
 277 96 277 96 277 125 c 0,20,21
 277 145 277 145 263 150 c 128,-1,22
 249 155 249 155 233 157 c 0,23,24
 147 164 147 164 106 204.5 c 128,-1,25
 65 245 65 245 65 306 c 0,26,27
 65 329 65 329 69 346 c 128,-1,28
 73 363 73 363 78.5 375.5 c 128,-1,29
 84 388 84 388 89.5 396.5 c 128,-1,30
 95 405 95 405 98 411 c 1,31,32
 93 420 93 420 88 440 c 128,-1,33
 83 460 83 460 83 486 c 0,34,35
 83 530 83 530 104 571 c 128,-1,36
 125 612 125 612 160 644 c 128,-1,37
 195 676 195 676 241 695.5 c 128,-1,38
 287 715 287 715 337 715 c 0,39,40
 381 715 381 715 413 701 c 128,-1,41
 445 687 445 687 466.5 666.5 c 128,-1,42
 488 646 488 646 502 622.5 c 128,-1,43
 516 599 516 599 524 581 c 1,44,-1
 389 523 l 1,45,46
 381 545 381 545 364 559 c 128,-1,47
 347 573 347 573 318 573 c 0,48,49
 288 573 288 573 267.5 556 c 128,-1,50
 247 539 247 539 247 510 c 0,51,52
 247 488 247 488 261 481.5 c 128,-1,53
 275 475 275 475 295 474 c 0,54,55
 327 473 327 473 359 465 c 128,-1,56
 391 457 391 457 417 440.5 c 128,-1,57
 443 424 443 424 459 397.5 c 128,-1,58
 475 371 475 371 475 332 c 0,59,60
 475 313 475 313 470.5 295.5 c 128,-1,61
 466 278 466 278 460 263.5 c 128,-1,62
 454 249 454 249 448 238.5 c 128,-1,63
 442 228 442 228 438 223 c 1,0,1
218 308 m 0,64,65
 218 291 218 291 227.5 283 c 128,-1,66
 237 275 237 275 249.5 271.5 c 128,-1,67
 262 268 262 268 275.5 267 c 128,-1,68
 289 266 289 266 298 262 c 1,69,70
 307 269 307 269 313 281.5 c 128,-1,71
 319 294 319 294 319 306 c 0,72,73
 319 329 319 329 304 337.5 c 128,-1,74
 289 346 289 346 274 346 c 0,75,76
 262 346 262 346 251 348.5 c 128,-1,77
 240 351 240 351 238 353 c 0,78,79
 230 346 230 346 224 334 c 128,-1,80
 218 322 218 322 218 308 c 0,64,65
EndSplineSet
EndChar

StartChar: dieresis
Encoding: 168 168 107
Width: 497
GlyphClass: 2
Flags: W
LayerCount: 2
Fore
SplineSet
73 593 m 1,0,-1
 101 722 l 1,1,-1
 233 722 l 1,2,-1
 205 593 l 1,3,-1
 73 593 l 1,0,-1
278 593 m 1,4,-1
 306 722 l 1,5,-1
 437 722 l 1,6,-1
 410 593 l 1,7,-1
 278 593 l 1,4,-1
EndSplineSet
EndChar

StartChar: copyright
Encoding: 169 169 108
Width: 858
GlyphClass: 2
Flags: W
LayerCount: 2
Fore
SplineSet
437 -7 m 0,0,1
 356 -7 356 -7 286.5 20.5 c 128,-1,2
 217 48 217 48 166.5 96.5 c 128,-1,3
 116 145 116 145 87.5 211 c 128,-1,4
 59 277 59 277 59 355 c 0,5,6
 59 432 59 432 87.5 498 c 128,-1,7
 116 564 116 564 166.5 612 c 128,-1,8
 217 660 217 660 286.5 687.5 c 128,-1,9
 356 715 356 715 437 715 c 0,10,11
 520 715 520 715 591 687.5 c 128,-1,12
 662 660 662 660 713.5 612 c 128,-1,13
 765 564 765 564 794 498 c 128,-1,14
 823 432 823 432 823 355 c 0,15,16
 823 277 823 277 794 211 c 128,-1,17
 765 145 765 145 713.5 96.5 c 128,-1,18
 662 48 662 48 591 20.5 c 128,-1,19
 520 -7 520 -7 437 -7 c 0,0,1
437 49 m 256,20,21
 505 49 505 49 564.5 71.5 c 128,-1,22
 624 94 624 94 667.5 134 c 128,-1,23
 711 174 711 174 736 230 c 128,-1,24
 761 286 761 286 761 354 c 0,25,26
 761 418 761 418 736.5 473.5 c 128,-1,27
 712 529 712 529 668.5 570.5 c 128,-1,28
 625 612 625 612 566 635.5 c 128,-1,29
 507 659 507 659 437 659 c 0,30,31
 369 659 369 659 311.5 635.5 c 128,-1,32
 254 612 254 612 211.5 571 c 128,-1,33
 169 530 169 530 145 474.5 c 128,-1,34
 121 419 121 419 121 355 c 256,35,36
 121 291 121 291 145 235 c 128,-1,37
 169 179 169 179 211 138 c 128,-1,38
 253 97 253 97 311 73 c 128,-1,39
 369 49 369 49 437 49 c 256,20,21
446 114 m 0,40,41
 386 114 386 114 337.5 133 c 128,-1,42
 289 152 289 152 255.5 184.5 c 128,-1,43
 222 217 222 217 204 260.5 c 128,-1,44
 186 304 186 304 186 354 c 0,45,46
 186 401 186 401 202.5 444.5 c 128,-1,47
 219 488 219 488 251.5 521.5 c 128,-1,48
 284 555 284 555 332.5 575 c 128,-1,49
 381 595 381 595 445 595 c 0,50,51
 530 595 530 595 589.5 558 c 128,-1,52
 649 521 649 521 678 460 c 1,53,-1
 523 412 l 1,54,55
 509 438 509 438 488 449 c 128,-1,56
 467 460 467 460 444 460 c 0,57,58
 402 460 402 460 376 430 c 128,-1,59
 350 400 350 400 350 354 c 0,60,61
 350 329 350 329 358 309.5 c 128,-1,62
 366 290 366 290 379.5 276.5 c 128,-1,63
 393 263 393 263 410 256 c 128,-1,64
 427 249 427 249 445 249 c 0,65,66
 469 249 469 249 490.5 261.5 c 128,-1,67
 512 274 512 274 524 297 c 1,68,-1
 680 250 l 1,69,70
 667 222 667 222 645 197 c 128,-1,71
 623 172 623 172 593.5 153.5 c 128,-1,72
 564 135 564 135 527 124.5 c 128,-1,73
 490 114 490 114 446 114 c 0,40,41
EndSplineSet
EndChar

StartChar: ordfeminine
Encoding: 170 170 109
Width: 429
GlyphClass: 2
Flags: W
LayerCount: 2
Fore
SplineSet
158 336 m 0,0,1
 116 336 116 336 90.5 362.5 c 128,-1,2
 65 389 65 389 65 430 c 0,3,4
 65 461 65 461 78.5 487.5 c 128,-1,5
 92 514 92 514 115 533 c 128,-1,6
 138 552 138 552 169 563 c 128,-1,7
 200 574 200 574 235 574 c 0,8,9
 279 574 279 574 303 559 c 1,10,-1
 306 574 l 2,11,12
 307 580 307 580 307.5 584.5 c 128,-1,13
 308 589 308 589 308 594 c 0,14,15
 308 636 308 636 258 636 c 0,16,17
 230 636 230 636 204 626 c 128,-1,18
 178 616 178 616 146 596 c 1,19,-1
 128 667 l 1,20,21
 203 714 203 714 285 714 c 0,22,23
 351 714 351 714 385 686 c 128,-1,24
 419 658 419 658 419 604 c 0,25,26
 419 586 419 586 414 561 c 2,27,-1
 396 472 l 2,28,29
 395 468 395 468 394.5 465 c 128,-1,30
 394 462 394 462 394 459 c 0,31,32
 394 441 394 441 416 440 c 1,33,-1
 395 343 l 1,34,35
 366 337 366 337 344 337 c 0,36,37
 313 337 313 337 299.5 348.5 c 128,-1,38
 286 360 286 360 286 383 c 0,39,40
 286 384 286 384 286 390.5 c 128,-1,41
 286 397 286 397 287 401 c 1,42,43
 227 336 227 336 158 336 c 0,0,1
209 419 m 0,44,45
 219 419 219 419 231 423 c 128,-1,46
 243 427 243 427 254 433.5 c 128,-1,47
 265 440 265 440 273 448.5 c 128,-1,48
 281 457 281 457 283 466 c 2,49,-1
 290 499 l 1,50,51
 280 505 280 505 266.5 508 c 128,-1,52
 253 511 253 511 242 511 c 0,53,54
 214 511 214 511 193.5 494.5 c 128,-1,55
 173 478 173 478 173 454 c 0,56,57
 173 439 173 439 183 429 c 128,-1,58
 193 419 193 419 209 419 c 0,44,45
EndSplineSet
EndChar

StartChar: guillemotleft
Encoding: 171 171 110
Width: 659
GlyphClass: 2
Flags: W
LayerCount: 2
Fore
SplineSet
32 293 m 1,0,-1
 331 486 l 1,1,-1
 304 357 l 1,2,-1
 150 259 l 1,3,-1
 263 168 l 1,4,-1
 236 39 l 1,5,-1
 15 217 l 1,6,-1
 32 293 l 1,0,-1
343 293 m 1,7,-1
 642 486 l 1,8,-1
 615 357 l 1,9,-1
 462 259 l 1,10,-1
 575 168 l 1,11,-1
 548 39 l 1,12,-1
 327 217 l 1,13,-1
 343 293 l 1,7,-1
EndSplineSet
EndChar

StartChar: logicalnot
Encoding: 172 172 111
Width: 602
GlyphClass: 2
Flags: W
LayerCount: 2
Fore
SplineSet
564 415 m 1,0,-1
 497 98 l 1,1,-1
 362 98 l 1,2,-1
 399 271 l 1,3,-1
 46 271 l 1,4,-1
 76 415 l 1,5,-1
 564 415 l 1,0,-1
EndSplineSet
EndChar

StartChar: uni00AD
Encoding: 173 173 112
Width: 595
GlyphClass: 2
Flags: W
LayerCount: 2
Fore
SplineSet
32 203 m 1,0,-1
 63 347 l 1,1,-1
 551 347 l 1,2,-1
 520 203 l 1,3,-1
 32 203 l 1,0,-1
EndSplineSet
EndChar

StartChar: registered
Encoding: 174 174 113
Width: 858
GlyphClass: 2
Flags: W
LayerCount: 2
Fore
SplineSet
439 -7 m 0,0,1
 356 -7 356 -7 286.5 20.5 c 128,-1,2
 217 48 217 48 166.5 96.5 c 128,-1,3
 116 145 116 145 87.5 211 c 128,-1,4
 59 277 59 277 59 355 c 0,5,6
 59 432 59 432 87.5 498 c 128,-1,7
 116 564 116 564 166.5 612 c 128,-1,8
 217 660 217 660 286.5 687.5 c 128,-1,9
 356 715 356 715 439 715 c 0,10,11
 521 715 521 715 591.5 687.5 c 128,-1,12
 662 660 662 660 713.5 612 c 128,-1,13
 765 564 765 564 794 498 c 128,-1,14
 823 432 823 432 823 355 c 0,15,16
 823 277 823 277 794 211 c 128,-1,17
 765 145 765 145 713.5 96.5 c 128,-1,18
 662 48 662 48 591.5 20.5 c 128,-1,19
 521 -7 521 -7 439 -7 c 0,0,1
439 48 m 0,20,21
 506 48 506 48 564.5 71 c 128,-1,22
 623 94 623 94 666 134.5 c 128,-1,23
 709 175 709 175 733.5 231 c 128,-1,24
 758 287 758 287 758 353 c 0,25,26
 758 417 758 417 734 473 c 128,-1,27
 710 529 710 529 667.5 570 c 128,-1,28
 625 611 625 611 566.5 635 c 128,-1,29
 508 659 508 659 439 659 c 256,30,31
 370 659 370 659 312 635 c 128,-1,32
 254 611 254 611 212.5 570 c 128,-1,33
 171 529 171 529 147.5 473.5 c 128,-1,34
 124 418 124 418 124 354 c 256,35,36
 124 290 124 290 147.5 234.5 c 128,-1,37
 171 179 171 179 212.5 137.5 c 128,-1,38
 254 96 254 96 312 72 c 128,-1,39
 370 48 370 48 439 48 c 0,20,21
273 574 m 1,40,-1
 470 574 l 2,41,42
 501 574 501 574 527 561 c 128,-1,43
 553 548 553 548 572 527 c 128,-1,44
 591 506 591 506 601.5 479.5 c 128,-1,45
 612 453 612 453 612 426 c 0,46,47
 612 387 612 387 592 352.5 c 128,-1,48
 572 318 572 318 540 301 c 1,49,-1
 640 140 l 1,50,-1
 515 140 l 1,51,-1
 428 280 l 1,52,-1
 385 280 l 1,53,-1
 385 140 l 1,54,-1
 273 140 l 1,55,-1
 273 574 l 1,40,-1
459 376 m 2,56,57
 478 376 478 376 490 388 c 128,-1,58
 502 400 502 400 502 426 c 0,59,60
 502 454 502 454 488 465 c 128,-1,61
 474 476 474 476 457 476 c 2,62,-1
 385 476 l 1,63,-1
 385 376 l 1,64,-1
 459 376 l 2,56,57
EndSplineSet
EndChar

StartChar: macron
Encoding: 175 175 114
Width: 410
GlyphClass: 2
Flags: W
LayerCount: 2
Fore
SplineSet
60 620 m 1,0,-1
 80 717 l 1,1,-1
 371 717 l 1,2,-1
 350 620 l 1,3,-1
 60 620 l 1,0,-1
EndSplineSet
EndChar

StartChar: degree
Encoding: 176 176 115
Width: 285
GlyphClass: 2
Flags: W
LayerCount: 2
Fore
SplineSet
183 504 m 0,0,1
 143 504 143 504 120 527 c 128,-1,2
 97 550 97 550 97 588 c 0,3,4
 97 614 97 614 107 638.5 c 128,-1,5
 117 663 117 663 135 682 c 128,-1,6
 153 701 153 701 177.5 712.5 c 128,-1,7
 202 724 202 724 231 724 c 0,8,9
 271 724 271 724 294 699.5 c 128,-1,10
 317 675 317 675 317 637 c 0,11,12
 317 609 317 609 306.5 584.5 c 128,-1,13
 296 560 296 560 278 542 c 128,-1,14
 260 524 260 524 235.5 514 c 128,-1,15
 211 504 211 504 183 504 c 0,0,1
200 579 m 0,16,17
 214 579 214 579 227 591.5 c 128,-1,18
 240 604 240 604 240 621 c 0,19,20
 240 635 240 635 232.5 641.5 c 128,-1,21
 225 648 225 648 214 648 c 0,22,23
 199 648 199 648 186 636 c 128,-1,24
 173 624 173 624 173 608 c 0,25,26
 173 596 173 596 180 587.5 c 128,-1,27
 187 579 187 579 200 579 c 0,16,17
EndSplineSet
EndChar

StartChar: plusminus
Encoding: 177 177 116
Width: 525
GlyphClass: 2
Flags: W
LayerCount: 2
Fore
SplineSet
68 16 m 1,0,-1
 68 143 l 1,1,-1
 434 143 l 1,2,-1
 434 16 l 1,3,-1
 68 16 l 1,0,-1
435 445 m 1,4,-1
 435 318 l 1,5,-1
 324 318 l 1,6,-1
 324 197 l 1,7,-1
 180 197 l 1,8,-1
 180 318 l 1,9,-1
 69 318 l 1,10,-1
 69 445 l 1,11,-1
 180 445 l 1,12,-1
 180 566 l 1,13,-1
 324 566 l 1,14,-1
 324 445 l 1,15,-1
 435 445 l 1,4,-1
EndSplineSet
EndChar

StartChar: twosuperior
Encoding: 178 178 117
Width: 414
GlyphClass: 2
Flags: W
LayerCount: 2
Fore
SplineSet
46 383 m 1,0,1
 55 425 55 425 67.5 456 c 128,-1,2
 80 487 80 487 99.5 511 c 128,-1,3
 119 535 119 535 147.5 553 c 128,-1,4
 176 571 176 571 216 587 c 0,5,6
 243 597 243 597 268.5 607 c 128,-1,7
 294 617 294 617 314.5 628 c 128,-1,8
 335 639 335 639 347.5 653.5 c 128,-1,9
 360 668 360 668 360 689 c 0,10,11
 360 709 360 709 342.5 718 c 128,-1,12
 325 727 325 727 295 727 c 0,13,14
 257 727 257 727 224 712.5 c 128,-1,15
 191 698 191 698 170 681 c 1,16,-1
 126 749 l 1,17,18
 138 761 138 761 157.5 773.5 c 128,-1,19
 177 786 177 786 203 795.5 c 128,-1,20
 229 805 229 805 260.5 811.5 c 128,-1,21
 292 818 292 818 328 818 c 0,22,23
 397 818 397 818 432 789.5 c 128,-1,24
 467 761 467 761 467 708 c 0,25,26
 467 670 467 670 453 642 c 128,-1,27
 439 614 439 614 417 594.5 c 128,-1,28
 395 575 395 575 367.5 562.5 c 128,-1,29
 340 550 340 550 313 542 c 0,30,31
 228 516 228 516 218 474 c 1,32,-1
 405 474 l 1,33,-1
 385 383 l 1,34,-1
 46 383 l 1,0,1
EndSplineSet
EndChar

StartChar: threesuperior
Encoding: 179 179 118
Width: 399
GlyphClass: 2
Flags: W
LayerCount: 2
Fore
SplineSet
203 376 m 0,0,1
 147 376 147 376 112.5 395 c 128,-1,2
 78 414 78 414 56 452 c 1,3,-1
 120 522 l 1,4,5
 123 517 123 517 128.5 508 c 128,-1,6
 134 499 134 499 145.5 490.5 c 128,-1,7
 157 482 157 482 175.5 476 c 128,-1,8
 194 470 194 470 222 470 c 0,9,10
 240 470 240 470 257 473 c 128,-1,11
 274 476 274 476 287.5 482 c 128,-1,12
 301 488 301 488 309.5 497 c 128,-1,13
 318 506 318 506 318 518 c 0,14,15
 318 543 318 543 284 553 c 128,-1,16
 250 563 250 563 187 563 c 2,17,-1
 164 563 l 1,18,-1
 182 648 l 1,19,-1
 204 648 l 2,20,21
 264 648 264 648 303 660 c 128,-1,22
 342 672 342 672 342 698 c 0,23,24
 342 708 342 708 336 714.5 c 128,-1,25
 330 721 330 721 321 725 c 128,-1,26
 312 729 312 729 301 730.5 c 128,-1,27
 290 732 290 732 280 732 c 0,28,29
 243 732 243 732 215 719 c 128,-1,30
 187 706 187 706 164 685 c 1,31,-1
 121 760 l 1,32,33
 136 774 136 774 156.5 785 c 128,-1,34
 177 796 177 796 200 803.5 c 128,-1,35
 223 811 223 811 247.5 814.5 c 128,-1,36
 272 818 272 818 295 818 c 0,37,38
 364 818 364 818 404 789 c 128,-1,39
 444 760 444 760 444 714 c 0,40,41
 444 673 444 673 412 646 c 128,-1,42
 380 619 380 619 331 611 c 1,43,44
 371 604 371 604 391 578.5 c 128,-1,45
 411 553 411 553 411 518 c 0,46,47
 411 482 411 482 392 455 c 128,-1,48
 373 428 373 428 343 410.5 c 128,-1,49
 313 393 313 393 276 384.5 c 128,-1,50
 239 376 239 376 203 376 c 0,0,1
EndSplineSet
EndChar

StartChar: acute
Encoding: 180 180 119
Width: 259
GlyphClass: 2
Flags: W
LayerCount: 2
Fore
SplineSet
125 586 m 1,0,-1
 19 600 l 1,1,-1
 96 730 l 1,2,-1
 240 730 l 1,3,-1
 125 586 l 1,0,-1
EndSplineSet
EndChar

StartChar: mu
Encoding: 181 181 120
Width: 650
GlyphClass: 2
Flags: W
LayerCount: 2
Fore
SplineSet
113 525 m 1,0,-1
 273 525 l 1,1,-1
 209 224 l 2,2,3
 204 199 204 199 204 184 c 0,4,5
 204 125 204 125 257 125 c 0,6,7
 281 125 281 125 311.5 142 c 128,-1,8
 342 159 342 159 373 201 c 1,9,-1
 441 525 l 1,10,-1
 601 525 l 1,11,-1
 528 180 l 2,12,13
 527 175 527 175 526.5 170.5 c 128,-1,14
 526 166 526 166 526 161 c 0,15,16
 526 147 526 147 533.5 141.5 c 128,-1,17
 541 136 541 136 559 135 c 1,18,-1
 530 0 l 1,19,20
 505 -5 505 -5 487 -6.5 c 128,-1,21
 469 -8 469 -8 455 -8 c 0,22,23
 371 -8 371 -8 371 56 c 0,24,25
 371 58 371 58 371.5 69 c 128,-1,26
 372 80 372 80 374 91 c 1,27,28
 365 76 365 76 348 58.5 c 128,-1,29
 331 41 331 41 309.5 26 c 128,-1,30
 288 11 288 11 264 0.5 c 128,-1,31
 240 -10 240 -10 218 -10 c 0,32,33
 190 -10 190 -10 175.5 3 c 128,-1,34
 161 16 161 16 159 38 c 1,35,-1
 116 -213 l 1,36,-1
 -44 -213 l 1,37,-1
 113 525 l 1,0,-1
EndSplineSet
EndChar

StartChar: paragraph
Encoding: 182 182 121
Width: 657
GlyphClass: 2
Flags: W
LayerCount: 2
Fore
SplineSet
61 387 m 0,0,1
 61 460 61 460 84 520 c 128,-1,2
 107 580 107 580 150.5 622 c 128,-1,3
 194 664 194 664 255 687 c 128,-1,4
 316 710 316 710 393 710 c 2,5,-1
 700 710 l 1,6,-1
 675 591 l 1,7,-1
 608 591 l 1,8,-1
 465 -80 l 1,9,-1
 330 -80 l 1,10,-1
 389 199 l 1,11,-1
 353 199 l 1,12,-1
 294 -80 l 1,13,-1
 158 -80 l 1,14,-1
 218 199 l 1,15,16
 181 199 181 199 152 212.5 c 128,-1,17
 123 226 123 226 102.5 251 c 128,-1,18
 82 276 82 276 71.5 310.5 c 128,-1,19
 61 345 61 345 61 387 c 0,0,1
195 399 m 0,20,21
 195 364 195 364 208.5 342 c 128,-1,22
 222 320 222 320 243 317 c 1,23,-1
 302 591 l 1,24,25
 281 589 281 589 261.5 572.5 c 128,-1,26
 242 556 242 556 227.5 529.5 c 128,-1,27
 213 503 213 503 204 469 c 128,-1,28
 195 435 195 435 195 399 c 0,20,21
474 591 m 1,29,-1
 436 591 l 1,30,-1
 378 317 l 1,31,-1
 415 317 l 1,32,-1
 474 591 l 1,29,-1
EndSplineSet
EndChar

StartChar: periodcentered
Encoding: 183 183 122
Width: 238
GlyphClass: 2
Flags: W
LayerCount: 2
Fore
SplineSet
40 240 m 1,0,-1
 75 406 l 1,1,-1
 206 406 l 1,2,-1
 171 240 l 1,3,-1
 40 240 l 1,0,-1
EndSplineSet
EndChar

StartChar: cedilla
Encoding: 184 184 123
Width: 330
GlyphClass: 2
Flags: W
LayerCount: 2
Fore
SplineSet
22 -127 m 1,0,1
 31 -134 31 -134 54.5 -140.5 c 128,-1,2
 78 -147 78 -147 104 -147 c 256,3,4
 130 -147 130 -147 147 -138.5 c 128,-1,5
 164 -130 164 -130 164 -109 c 0,6,7
 164 -95 164 -95 152 -89 c 128,-1,8
 140 -83 140 -83 119 -83 c 0,9,10
 99 -83 99 -83 76 -87 c 128,-1,11
 53 -91 53 -91 41 -94 c 1,12,-1
 128 32 l 1,13,-1
 184 14 l 1,14,-1
 139 -38 l 1,15,16
 151 -35 151 -35 167 -35 c 0,17,18
 196 -35 196 -35 217.5 -49 c 128,-1,19
 239 -63 239 -63 239 -95 c 0,20,21
 239 -117 239 -117 229 -136.5 c 128,-1,22
 219 -156 219 -156 199.5 -171 c 128,-1,23
 180 -186 180 -186 150.5 -195 c 128,-1,24
 121 -204 121 -204 81 -204 c 0,25,26
 48 -204 48 -204 22.5 -197.5 c 128,-1,27
 -3 -191 -3 -191 -20 -183 c 1,28,-1
 22 -127 l 1,0,1
EndSplineSet
EndChar

StartChar: onesuperior
Encoding: 185 185 124
Width: 299
GlyphClass: 2
Flags: W
LayerCount: 2
Fore
SplineSet
315 476 m 1,0,-1
 295 384 l 1,1,-1
 64 384 l 1,2,-1
 84 476 l 1,3,-1
 157 476 l 1,4,-1
 208 719 l 1,5,6
 202 712 202 712 189.5 703 c 128,-1,7
 177 694 177 694 163 686 c 128,-1,8
 149 678 149 678 134 672.5 c 128,-1,9
 119 667 119 667 108 667 c 1,10,-1
 128 760 l 1,11,12
 143 760 143 760 160.5 769 c 128,-1,13
 178 778 178 778 193 788.5 c 128,-1,14
 208 799 208 799 218.5 808 c 128,-1,15
 229 817 229 817 229 818 c 2,16,-1
 323 818 l 1,17,-1
 250 476 l 1,18,-1
 315 476 l 1,0,-1
EndSplineSet
EndChar

StartChar: ordmasculine
Encoding: 186 186 125
Width: 426
GlyphClass: 2
Flags: W
LayerCount: 2
Fore
SplineSet
219 336 m 0,0,1
 183 336 183 336 156 348 c 128,-1,2
 129 360 129 360 111 380.5 c 128,-1,3
 93 401 93 401 84 428.5 c 128,-1,4
 75 456 75 456 75 486 c 0,5,6
 75 529 75 529 91 570.5 c 128,-1,7
 107 612 107 612 136.5 643.5 c 128,-1,8
 166 675 166 675 207.5 694.5 c 128,-1,9
 249 714 249 714 300 714 c 0,10,11
 336 714 336 714 363 702 c 128,-1,12
 390 690 390 690 408 669.5 c 128,-1,13
 426 649 426 649 435 622 c 128,-1,14
 444 595 444 595 444 564 c 0,15,16
 444 521 444 521 428 480 c 128,-1,17
 412 439 412 439 383 407 c 128,-1,18
 354 375 354 375 312 355.5 c 128,-1,19
 270 336 270 336 219 336 c 0,0,1
240 433 m 0,20,21
 257 433 257 433 273 442 c 128,-1,22
 289 451 289 451 301 467 c 128,-1,23
 313 483 313 483 320.5 504 c 128,-1,24
 328 525 328 525 328 549 c 0,25,26
 328 580 328 580 315 598.5 c 128,-1,27
 302 617 302 617 279 617 c 0,28,29
 262 617 262 617 246 608 c 128,-1,30
 230 599 230 599 218 583 c 128,-1,31
 206 567 206 567 198.5 545.5 c 128,-1,32
 191 524 191 524 191 500 c 0,33,34
 191 470 191 470 204 451.5 c 128,-1,35
 217 433 217 433 240 433 c 0,20,21
EndSplineSet
EndChar

StartChar: guillemotright
Encoding: 187 187 126
Width: 659
GlyphClass: 2
Flags: W
LayerCount: 2
Fore
SplineSet
607 217 m 1,0,-1
 311 39 l 1,1,-1
 338 168 l 1,2,-1
 490 259 l 1,3,-1
 378 357 l 1,4,-1
 406 486 l 1,5,-1
 623 293 l 1,6,-1
 607 217 l 1,0,-1
296 217 m 1,7,-1
 0 39 l 1,8,-1
 27 168 l 1,9,-1
 179 259 l 1,10,-1
 67 357 l 1,11,-1
 94 486 l 1,12,-1
 312 293 l 1,13,-1
 296 217 l 1,7,-1
EndSplineSet
EndChar

StartChar: onequarter
Encoding: 188 188 127
Width: 848
GlyphClass: 2
Flags: W
LayerCount: 2
Fore
SplineSet
615 89 m 1,0,-1
 409 89 l 1,1,-1
 429 180 l 1,2,-1
 717 431 l 1,3,-1
 780 431 l 1,4,-1
 727 180 l 1,5,-1
 787 180 l 1,6,-1
 767 89 l 1,7,-1
 708 89 l 1,8,-1
 689 1 l 1,9,-1
 597 1 l 1,10,-1
 615 89 l 1,0,-1
638 180 m 1,11,-1
 668 318 l 1,12,-1
 516 180 l 1,13,-1
 638 180 l 1,11,-1
103 56 m 1,14,-1
 440 380 l 1,15,-1
 754 719 l 1,16,-1
 812 655 l 1,17,-1
 485 340 l 1,18,-1
 160 -9 l 1,19,-1
 103 56 l 1,14,-1
304 389 m 1,20,-1
 285 297 l 1,21,-1
 53 297 l 1,22,-1
 73 389 l 1,23,-1
 146 389 l 1,24,-1
 198 632 l 1,25,26
 191 625 191 625 178.5 616 c 128,-1,27
 166 607 166 607 152 599 c 128,-1,28
 138 591 138 591 123 585.5 c 128,-1,29
 108 580 108 580 97 580 c 1,30,-1
 117 673 l 1,31,32
 132 673 132 673 149.5 682 c 128,-1,33
 167 691 167 691 182 701.5 c 128,-1,34
 197 712 197 712 207.5 721 c 128,-1,35
 218 730 218 730 218 731 c 2,36,-1
 313 731 l 1,37,-1
 239 389 l 1,38,-1
 304 389 l 1,20,-1
EndSplineSet
EndChar

StartChar: onehalf
Encoding: 189 189 128
Width: 881
GlyphClass: 2
Flags: W
LayerCount: 2
Fore
SplineSet
438 0 m 1,0,1
 446 42 446 42 458 73 c 128,-1,2
 470 104 470 104 489 127.5 c 128,-1,3
 508 151 508 151 535 169.5 c 128,-1,4
 562 188 562 188 601 204 c 0,5,6
 627 214 627 214 652 224 c 128,-1,7
 677 234 677 234 696.5 245 c 128,-1,8
 716 256 716 256 728 270.5 c 128,-1,9
 740 285 740 285 740 306 c 0,10,11
 740 326 740 326 723.5 335 c 128,-1,12
 707 344 707 344 678 344 c 0,13,14
 641 344 641 344 609.5 329 c 128,-1,15
 578 314 578 314 557 297 c 1,16,-1
 514 366 l 1,17,18
 526 378 526 378 545 390.5 c 128,-1,19
 564 403 564 403 589 412.5 c 128,-1,20
 614 422 614 422 644.5 428.5 c 128,-1,21
 675 435 675 435 710 435 c 0,22,23
 776 435 776 435 810 406.5 c 128,-1,24
 844 378 844 378 844 325 c 0,25,26
 844 287 844 287 831 259.5 c 128,-1,27
 818 232 818 232 797 212.5 c 128,-1,28
 776 193 776 193 749.5 180.5 c 128,-1,29
 723 168 723 168 696 159 c 0,30,31
 614 133 614 133 604 91 c 1,32,-1
 799 91 l 1,33,-1
 780 0 l 1,34,-1
 438 0 l 1,0,1
68 56 m 1,35,-1
 405 380 l 1,36,-1
 719 719 l 1,37,-1
 777 655 l 1,38,-1
 450 340 l 1,39,-1
 125 -9 l 1,40,-1
 68 56 l 1,35,-1
304 389 m 1,41,-1
 285 297 l 1,42,-1
 53 297 l 1,43,-1
 73 389 l 1,44,-1
 146 389 l 1,45,-1
 198 632 l 1,46,47
 191 625 191 625 178.5 616 c 128,-1,48
 166 607 166 607 152 599 c 128,-1,49
 138 591 138 591 123 585.5 c 128,-1,50
 108 580 108 580 97 580 c 1,51,-1
 117 673 l 1,52,53
 132 673 132 673 149.5 682 c 128,-1,54
 167 691 167 691 182 701.5 c 128,-1,55
 197 712 197 712 207.5 721 c 128,-1,56
 218 730 218 730 218 731 c 2,57,-1
 313 731 l 1,58,-1
 239 389 l 1,59,-1
 304 389 l 1,41,-1
EndSplineSet
EndChar

StartChar: threequarters
Encoding: 190 190 129
Width: 864
GlyphClass: 2
Flags: W
LayerCount: 2
Fore
SplineSet
193 289 m 0,0,1
 133 289 133 289 95 308 c 128,-1,2
 57 327 57 327 49 365 c 1,3,-1
 113 435 l 2,4,5
 114 431 114 431 120 422.5 c 128,-1,6
 126 414 126 414 137.5 405 c 128,-1,7
 149 396 149 396 167 389.5 c 128,-1,8
 185 383 185 383 211 383 c 0,9,10
 251 383 251 383 281 395 c 128,-1,11
 311 407 311 407 311 432 c 0,12,13
 311 456 311 456 276.5 466 c 128,-1,14
 242 476 242 476 180 476 c 2,15,-1
 157 476 l 1,16,-1
 174 561 l 1,17,-1
 197 561 l 2,18,19
 257 561 257 561 296 573 c 128,-1,20
 335 585 335 585 335 612 c 0,21,22
 335 621 335 621 329 627.5 c 128,-1,23
 323 634 323 634 313.5 637.5 c 128,-1,24
 304 641 304 641 293 643 c 128,-1,25
 282 645 282 645 272 645 c 0,26,27
 235 645 235 645 207.5 632 c 128,-1,28
 180 619 180 619 156 598 c 1,29,-1
 114 673 l 1,30,31
 129 687 129 687 149 698 c 128,-1,32
 169 709 169 709 192 716.5 c 128,-1,33
 215 724 215 724 240.5 727.5 c 128,-1,34
 266 731 266 731 290 731 c 0,35,36
 323 731 323 731 350 723 c 128,-1,37
 377 715 377 715 396.5 701.5 c 128,-1,38
 416 688 416 688 426.5 669.5 c 128,-1,39
 437 651 437 651 437 629 c 0,40,41
 437 587 437 587 406 559.5 c 128,-1,42
 375 532 375 532 323 524 c 1,43,44
 363 518 363 518 383.5 492 c 128,-1,45
 404 466 404 466 404 432 c 0,46,47
 404 394 404 394 385 367 c 128,-1,48
 366 340 366 340 336 323 c 128,-1,49
 306 306 306 306 268.5 297.5 c 128,-1,50
 231 289 231 289 193 289 c 0,0,1
628 89 m 1,51,-1
 422 89 l 1,52,-1
 442 180 l 1,53,-1
 730 431 l 1,54,-1
 793 431 l 1,55,-1
 740 180 l 1,56,-1
 800 180 l 1,57,-1
 780 89 l 1,58,-1
 721 89 l 1,59,-1
 702 1 l 1,60,-1
 610 1 l 1,61,-1
 628 89 l 1,51,-1
651 180 m 1,62,-1
 681 318 l 1,63,-1
 529 180 l 1,64,-1
 651 180 l 1,62,-1
139 56 m 1,65,-1
 476 380 l 1,66,-1
 790 719 l 1,67,-1
 848 655 l 1,68,-1
 521 340 l 1,69,-1
 196 -9 l 1,70,-1
 139 56 l 1,65,-1
EndSplineSet
EndChar

StartChar: questiondown
Encoding: 191 191 130
Width: 470
GlyphClass: 2
Flags: W
LayerCount: 2
Fore
SplineSet
361 261 m 1,0,1
 356 238 356 238 349.5 217 c 128,-1,2
 343 196 343 196 331 176.5 c 128,-1,3
 319 157 319 157 300 140 c 128,-1,4
 281 123 281 123 253 109 c 0,5,6
 219 92 219 92 192 77 c 128,-1,7
 165 62 165 62 146 46 c 128,-1,8
 127 30 127 30 116.5 12 c 128,-1,9
 106 -6 106 -6 106 -28 c 0,10,11
 106 -54 106 -54 122.5 -69 c 128,-1,12
 139 -84 139 -84 163 -84 c 0,13,14
 181 -84 181 -84 196.5 -76.5 c 128,-1,15
 212 -69 212 -69 225 -58.5 c 128,-1,16
 238 -48 238 -48 249 -35.5 c 128,-1,17
 260 -23 260 -23 268 -12 c 1,18,-1
 356 -84 l 1,19,20
 318 -145 318 -145 257.5 -179 c 128,-1,21
 197 -213 197 -213 129 -213 c 0,22,23
 97 -213 97 -213 67 -204 c 128,-1,24
 37 -195 37 -195 14 -176 c 128,-1,25
 -9 -157 -9 -157 -23.5 -127 c 128,-1,26
 -38 -97 -38 -97 -38 -55 c 256,27,28
 -38 -13 -38 -13 -28 18.5 c 128,-1,29
 -18 50 -18 50 -1 74 c 128,-1,30
 16 98 16 98 39 116 c 128,-1,31
 62 134 62 134 89 150 c 0,32,33
 111 163 111 163 134.5 174.5 c 128,-1,34
 158 186 158 186 178 198 c 128,-1,35
 198 210 198 210 212 225 c 128,-1,36
 226 240 226 240 230 261 c 1,37,-1
 361 261 l 1,0,1
411 506 m 1,38,-1
 379 356 l 1,39,-1
 248 356 l 1,40,-1
 280 506 l 1,41,-1
 411 506 l 1,38,-1
EndSplineSet
EndChar

StartChar: Agrave
Encoding: 192 192 131
Width: 641
GlyphClass: 2
Flags: W
LayerCount: 2
Fore
SplineSet
337 710 m 1,0,-1
 486 710 l 1,1,-1
 578 0 l 1,2,-1
 410 0 l 1,3,-1
 395 159 l 1,4,-1
 193 159 l 1,5,-1
 112 0 l 1,6,-1
 -57 0 l 1,7,-1
 337 710 l 1,0,-1
392 272 m 1,8,-1
 372 523 l 1,9,-1
 242 272 l 1,10,-1
 392 272 l 1,8,-1
314 917 m 1,11,-1
 458 917 l 1,12,-1
 480 787 l 1,13,-1
 369 771 l 1,14,-1
 314 917 l 1,11,-1
EndSplineSet
EndChar

StartChar: Aacute
Encoding: 193 193 132
Width: 641
GlyphClass: 2
Flags: W
LayerCount: 2
Fore
SplineSet
337 710 m 1,0,-1
 486 710 l 1,1,-1
 578 0 l 1,2,-1
 410 0 l 1,3,-1
 395 159 l 1,4,-1
 193 159 l 1,5,-1
 112 0 l 1,6,-1
 -57 0 l 1,7,-1
 337 710 l 1,0,-1
392 272 m 1,8,-1
 372 523 l 1,9,-1
 242 272 l 1,10,-1
 392 272 l 1,8,-1
451 772 m 1,11,-1
 345 786 l 1,12,-1
 422 916 l 1,13,-1
 566 916 l 1,14,-1
 451 772 l 1,11,-1
EndSplineSet
EndChar

StartChar: Acircumflex
Encoding: 194 194 133
Width: 641
GlyphClass: 2
Flags: W
LayerCount: 2
Fore
SplineSet
337 710 m 1,0,-1
 486 710 l 1,1,-1
 578 0 l 1,2,-1
 410 0 l 1,3,-1
 395 159 l 1,4,-1
 193 159 l 1,5,-1
 112 0 l 1,6,-1
 -57 0 l 1,7,-1
 337 710 l 1,0,-1
392 272 m 1,8,-1
 372 523 l 1,9,-1
 242 272 l 1,10,-1
 392 272 l 1,8,-1
271 808 m 1,11,-1
 399 916 l 1,12,-1
 513 916 l 1,13,-1
 595 808 l 1,14,-1
 506 772 l 1,15,-1
 439 835 l 1,16,-1
 345 772 l 1,17,-1
 271 808 l 1,11,-1
EndSplineSet
EndChar

StartChar: Atilde
Encoding: 195 195 134
Width: 641
GlyphClass: 2
Flags: W
LayerCount: 2
Fore
SplineSet
337 710 m 1,0,-1
 486 710 l 1,1,-1
 578 0 l 1,2,-1
 410 0 l 1,3,-1
 395 159 l 1,4,-1
 193 159 l 1,5,-1
 112 0 l 1,6,-1
 -57 0 l 1,7,-1
 337 710 l 1,0,-1
392 272 m 1,8,-1
 372 523 l 1,9,-1
 242 272 l 1,10,-1
 392 272 l 1,8,-1
486 774 m 0,11,12
 464 774 464 774 449 781 c 128,-1,13
 434 788 434 788 421.5 797 c 128,-1,14
 409 806 409 806 397 813 c 128,-1,15
 385 820 385 820 369 820 c 256,16,17
 353 820 353 820 342.5 813 c 128,-1,18
 332 806 332 806 326 797 c 128,-1,19
 320 788 320 788 317.5 780.5 c 128,-1,20
 315 773 315 773 315 772 c 2,21,-1
 228 772 l 1,22,23
 230 783 230 783 241.5 806.5 c 128,-1,24
 253 830 253 830 273 854 c 128,-1,25
 293 878 293 878 320.5 896 c 128,-1,26
 348 914 348 914 382 914 c 0,27,28
 405 914 405 914 420 906.5 c 128,-1,29
 435 899 435 899 447 890 c 128,-1,30
 459 881 459 881 470.5 873.5 c 128,-1,31
 482 866 482 866 499 866 c 0,32,33
 515 866 515 866 526.5 873.5 c 128,-1,34
 538 881 538 881 545 890 c 128,-1,35
 552 899 552 899 555.5 907 c 128,-1,36
 559 915 559 915 559 916 c 2,37,-1
 644 916 l 1,38,39
 642 908 642 908 630.5 885 c 128,-1,40
 619 862 619 862 598.5 837 c 128,-1,41
 578 812 578 812 549.5 793 c 128,-1,42
 521 774 521 774 486 774 c 0,11,12
EndSplineSet
EndChar

StartChar: Adieresis
Encoding: 196 196 135
Width: 641
GlyphClass: 2
Flags: W
LayerCount: 2
Fore
SplineSet
337 710 m 1,0,-1
 486 710 l 1,1,-1
 578 0 l 1,2,-1
 410 0 l 1,3,-1
 395 159 l 1,4,-1
 193 159 l 1,5,-1
 112 0 l 1,6,-1
 -57 0 l 1,7,-1
 337 710 l 1,0,-1
392 272 m 1,8,-1
 372 523 l 1,9,-1
 242 272 l 1,10,-1
 392 272 l 1,8,-1
251 780 m 1,11,-1
 279 909 l 1,12,-1
 411 909 l 1,13,-1
 383 780 l 1,14,-1
 251 780 l 1,11,-1
456 780 m 1,15,-1
 484 909 l 1,16,-1
 615 909 l 1,17,-1
 588 780 l 1,18,-1
 456 780 l 1,15,-1
EndSplineSet
EndChar

StartChar: Aring
Encoding: 197 197 136
Width: 641
GlyphClass: 2
Flags: W
LayerCount: 2
Fore
SplineSet
337 710 m 1,0,-1
 486 710 l 1,1,-1
 578 0 l 1,2,-1
 410 0 l 1,3,-1
 395 159 l 1,4,-1
 193 159 l 1,5,-1
 112 0 l 1,6,-1
 -57 0 l 1,7,-1
 337 710 l 1,0,-1
392 272 m 1,8,-1
 372 523 l 1,9,-1
 242 272 l 1,10,-1
 392 272 l 1,8,-1
326 818 m 0,11,12
 326 866 326 866 360.5 891 c 128,-1,13
 395 916 395 916 450 916 c 0,14,15
 492 916 492 916 515 899 c 128,-1,16
 538 882 538 882 538 850 c 0,17,18
 538 803 538 803 503.5 778 c 128,-1,19
 469 753 469 753 415 753 c 0,20,21
 373 753 373 753 349.5 769.5 c 128,-1,22
 326 786 326 786 326 818 c 0,11,12
439 869 m 0,23,24
 421 869 421 869 407.5 857.5 c 128,-1,25
 394 846 394 846 394 829 c 0,26,27
 394 816 394 816 402.5 808 c 128,-1,28
 411 800 411 800 425 800 c 0,29,30
 442 800 442 800 456.5 811.5 c 128,-1,31
 471 823 471 823 471 841 c 0,32,33
 471 853 471 853 462 861 c 128,-1,34
 453 869 453 869 439 869 c 0,23,24
EndSplineSet
EndChar

StartChar: AE
Encoding: 198 198 137
Width: 932
GlyphClass: 2
Flags: W
LayerCount: 2
Fore
SplineSet
484 710 m 1,0,-1
 978 710 l 1,1,-1
 947 566 l 1,2,-1
 660 566 l 1,3,-1
 632 433 l 1,4,-1
 867 433 l 1,5,-1
 837 290 l 1,6,-1
 602 290 l 1,7,-1
 571 144 l 1,8,-1
 865 144 l 1,9,-1
 835 0 l 1,10,-1
 377 0 l 1,11,-1
 411 159 l 1,12,-1
 210 159 l 1,13,-1
 94 0 l 1,14,-1
 -80 0 l 1,15,-1
 484 710 l 1,0,-1
429 303 m 1,16,-1
 476 527 l 1,17,-1
 310 303 l 1,18,-1
 429 303 l 1,16,-1
EndSplineSet
EndChar

StartChar: Ccedilla
Encoding: 199 199 138
Width: 660
GlyphClass: 2
Flags: W
LayerCount: 2
Fore
SplineSet
190 -127 m 1,0,1
 199 -134 199 -134 222.5 -140.5 c 128,-1,2
 246 -147 246 -147 272 -147 c 256,3,4
 298 -147 298 -147 315 -138.5 c 128,-1,5
 332 -130 332 -130 332 -109 c 0,6,7
 332 -95 332 -95 320 -89 c 128,-1,8
 308 -83 308 -83 287 -83 c 0,9,10
 267 -83 267 -83 244 -87 c 128,-1,11
 221 -91 221 -91 209 -94 c 1,12,-1
 270 -5 l 1,13,14
 213 0 213 0 168.5 27.5 c 128,-1,15
 124 55 124 55 94 96.5 c 128,-1,16
 64 138 64 138 48 190 c 128,-1,17
 32 242 32 242 32 297 c 0,18,19
 32 346 32 346 46.5 396 c 128,-1,20
 61 446 61 446 87.5 492.5 c 128,-1,21
 114 539 114 539 152 579 c 128,-1,22
 190 619 190 619 237 649 c 128,-1,23
 284 679 284 679 339 696.5 c 128,-1,24
 394 714 394 714 455 714 c 0,25,26
 551 714 551 714 612 671 c 128,-1,27
 673 628 673 628 693 559 c 1,28,-1
 548 471 l 1,29,30
 543 499 543 499 530.5 517.5 c 128,-1,31
 518 536 518 536 500 547.5 c 128,-1,32
 482 559 482 559 461 563.5 c 128,-1,33
 440 568 440 568 420 568 c 0,34,35
 368 568 368 568 327 543.5 c 128,-1,36
 286 519 286 519 257.5 480.5 c 128,-1,37
 229 442 229 442 214 396 c 128,-1,38
 199 350 199 350 199 307 c 0,39,40
 199 273 199 273 207.5 243 c 128,-1,41
 216 213 216 213 232.5 190 c 128,-1,42
 249 167 249 167 274 153.5 c 128,-1,43
 299 140 299 140 331 140 c 0,44,45
 352 140 352 140 374.5 145.5 c 128,-1,46
 397 151 397 151 419.5 162.5 c 128,-1,47
 442 174 442 174 462.5 192.5 c 128,-1,48
 483 211 483 211 498 238 c 1,49,-1
 616 159 l 1,50,51
 595 124 595 124 563.5 96 c 128,-1,52
 532 68 532 68 495 47.5 c 128,-1,53
 458 27 458 27 417 14 c 128,-1,54
 376 1 376 1 337 -3 c 1,55,-1
 307 -38 l 1,56,57
 319 -35 319 -35 335 -35 c 0,58,59
 364 -35 364 -35 385.5 -49 c 128,-1,60
 407 -63 407 -63 407 -95 c 0,61,62
 407 -117 407 -117 397 -136.5 c 128,-1,63
 387 -156 387 -156 367.5 -171 c 128,-1,64
 348 -186 348 -186 318.5 -195 c 128,-1,65
 289 -204 289 -204 249 -204 c 0,66,67
 216 -204 216 -204 190.5 -197.5 c 128,-1,68
 165 -191 165 -191 148 -183 c 1,69,-1
 190 -127 l 1,0,1
EndSplineSet
EndChar

StartChar: Egrave
Encoding: 200 200 139
Width: 576
GlyphClass: 2
Flags: W
LayerCount: 2
Fore
SplineSet
155 710 m 1,0,-1
 622 710 l 1,1,-1
 591 566 l 1,2,-1
 288 566 l 1,3,-1
 259 428 l 1,4,-1
 519 428 l 1,5,-1
 491 295 l 1,6,-1
 231 295 l 1,7,-1
 198 144 l 1,8,-1
 510 144 l 1,9,-1
 480 0 l 1,10,-1
 4 0 l 1,11,-1
 155 710 l 1,0,-1
310 917 m 1,12,-1
 454 917 l 1,13,-1
 476 787 l 1,14,-1
 365 771 l 1,15,-1
 310 917 l 1,12,-1
EndSplineSet
EndChar

StartChar: Eacute
Encoding: 201 201 140
Width: 576
GlyphClass: 2
Flags: W
LayerCount: 2
Fore
SplineSet
431 772 m 1,0,-1
 325 786 l 1,1,-1
 402 916 l 1,2,-1
 546 916 l 1,3,-1
 431 772 l 1,0,-1
155 710 m 1,4,-1
 622 710 l 1,5,-1
 591 566 l 1,6,-1
 288 566 l 1,7,-1
 259 428 l 1,8,-1
 519 428 l 1,9,-1
 491 295 l 1,10,-1
 231 295 l 1,11,-1
 198 144 l 1,12,-1
 510 144 l 1,13,-1
 480 0 l 1,14,-1
 4 0 l 1,15,-1
 155 710 l 1,4,-1
EndSplineSet
EndChar

StartChar: Ecircumflex
Encoding: 202 202 141
Width: 576
GlyphClass: 2
Flags: W
LayerCount: 2
Fore
SplineSet
242 808 m 1,0,-1
 370 916 l 1,1,-1
 484 916 l 1,2,-1
 566 808 l 1,3,-1
 477 772 l 1,4,-1
 410 835 l 1,5,-1
 316 772 l 1,6,-1
 242 808 l 1,0,-1
155 710 m 1,7,-1
 622 710 l 1,8,-1
 591 566 l 1,9,-1
 288 566 l 1,10,-1
 259 428 l 1,11,-1
 519 428 l 1,12,-1
 491 295 l 1,13,-1
 231 295 l 1,14,-1
 198 144 l 1,15,-1
 510 144 l 1,16,-1
 480 0 l 1,17,-1
 4 0 l 1,18,-1
 155 710 l 1,7,-1
EndSplineSet
EndChar

StartChar: Edieresis
Encoding: 203 203 142
Width: 576
GlyphClass: 2
Flags: W
LayerCount: 2
Fore
SplineSet
233 780 m 1,0,-1
 261 909 l 1,1,-1
 393 909 l 1,2,-1
 365 780 l 1,3,-1
 233 780 l 1,0,-1
438 780 m 1,4,-1
 466 909 l 1,5,-1
 597 909 l 1,6,-1
 570 780 l 1,7,-1
 438 780 l 1,4,-1
155 710 m 1,8,-1
 622 710 l 1,9,-1
 591 566 l 1,10,-1
 288 566 l 1,11,-1
 259 428 l 1,12,-1
 519 428 l 1,13,-1
 491 295 l 1,14,-1
 231 295 l 1,15,-1
 198 144 l 1,16,-1
 510 144 l 1,17,-1
 480 0 l 1,18,-1
 4 0 l 1,19,-1
 155 710 l 1,8,-1
EndSplineSet
EndChar

StartChar: Igrave
Encoding: 204 204 143
Width: 300
GlyphClass: 2
Flags: W
LayerCount: 2
Fore
SplineSet
155 710 m 1,0,-1
 319 710 l 1,1,-1
 168 0 l 1,2,-1
 4 0 l 1,3,-1
 155 710 l 1,0,-1
158 917 m 1,4,-1
 302 917 l 1,5,-1
 324 787 l 1,6,-1
 213 771 l 1,7,-1
 158 917 l 1,4,-1
EndSplineSet
EndChar

StartChar: Iacute
Encoding: 205 205 144
Width: 300
GlyphClass: 2
Flags: W
LayerCount: 2
Fore
SplineSet
155 710 m 1,0,-1
 319 710 l 1,1,-1
 168 0 l 1,2,-1
 4 0 l 1,3,-1
 155 710 l 1,0,-1
272 772 m 1,4,-1
 166 786 l 1,5,-1
 243 916 l 1,6,-1
 387 916 l 1,7,-1
 272 772 l 1,4,-1
EndSplineSet
EndChar

StartChar: Icircumflex
Encoding: 206 206 145
Width: 300
GlyphClass: 2
Flags: W
LayerCount: 2
Fore
SplineSet
155 710 m 1,0,-1
 319 710 l 1,1,-1
 168 0 l 1,2,-1
 4 0 l 1,3,-1
 155 710 l 1,0,-1
98 808 m 1,4,-1
 226 916 l 1,5,-1
 340 916 l 1,6,-1
 422 808 l 1,7,-1
 333 772 l 1,8,-1
 266 835 l 1,9,-1
 172 772 l 1,10,-1
 98 808 l 1,4,-1
EndSplineSet
EndChar

StartChar: Idieresis
Encoding: 207 207 146
Width: 300
GlyphClass: 2
Flags: W
LayerCount: 2
Fore
SplineSet
155 710 m 1,0,-1
 319 710 l 1,1,-1
 168 0 l 1,2,-1
 4 0 l 1,3,-1
 155 710 l 1,0,-1
84 780 m 1,4,-1
 112 909 l 1,5,-1
 244 909 l 1,6,-1
 216 780 l 1,7,-1
 84 780 l 1,4,-1
289 780 m 1,8,-1
 317 909 l 1,9,-1
 448 909 l 1,10,-1
 421 780 l 1,11,-1
 289 780 l 1,8,-1
EndSplineSet
EndChar

StartChar: Eth
Encoding: 208 208 147
Width: 697
GlyphClass: 2
Flags: W
LayerCount: 2
Fore
SplineSet
57 416 m 1,0,-1
 96 416 l 1,1,-1
 159 710 l 1,2,-1
 413 710 l 2,3,4
 482 710 482 710 533.5 688.5 c 128,-1,5
 585 667 585 667 618.5 630 c 128,-1,6
 652 593 652 593 668.5 542.5 c 128,-1,7
 685 492 685 492 685 434 c 0,8,9
 685 340 685 340 653 260.5 c 128,-1,10
 621 181 621 181 564 123 c 128,-1,11
 507 65 507 65 429.5 32.5 c 128,-1,12
 352 0 352 0 262 0 c 2,13,-1
 8 0 l 1,14,-1
 71 298 l 1,15,-1
 32 298 l 1,16,-1
 57 416 l 1,0,-1
292 144 m 2,17,18
 342 144 342 144 383.5 165.5 c 128,-1,19
 425 187 425 187 454.5 224 c 128,-1,20
 484 261 484 261 500 309 c 128,-1,21
 516 357 516 357 516 410 c 0,22,23
 516 480 516 480 482.5 523 c 128,-1,24
 449 566 449 566 383 566 c 2,25,-1
 293 566 l 1,26,-1
 260 416 l 1,27,-1
 379 416 l 1,28,-1
 353 298 l 1,29,-1
 235 298 l 1,30,-1
 202 144 l 1,31,-1
 292 144 l 2,17,18
EndSplineSet
EndChar

StartChar: Ntilde
Encoding: 209 209 148
Width: 729
GlyphClass: 2
Flags: W
LayerCount: 2
Fore
SplineSet
155 710 m 1,0,-1
 283 710 l 1,1,-1
 496 293 l 1,2,-1
 584 710 l 1,3,-1
 748 710 l 1,4,-1
 597 0 l 1,5,-1
 467 0 l 1,6,-1
 254 406 l 1,7,-1
 168 0 l 1,8,-1
 4 0 l 1,9,-1
 155 710 l 1,0,-1
528 774 m 0,10,11
 506 774 506 774 491 781 c 128,-1,12
 476 788 476 788 463.5 797 c 128,-1,13
 451 806 451 806 439 813 c 128,-1,14
 427 820 427 820 411 820 c 256,15,16
 395 820 395 820 384.5 813 c 128,-1,17
 374 806 374 806 368 797 c 128,-1,18
 362 788 362 788 359.5 780.5 c 128,-1,19
 357 773 357 773 357 772 c 2,20,-1
 270 772 l 1,21,22
 272 783 272 783 283.5 806.5 c 128,-1,23
 295 830 295 830 315 854 c 128,-1,24
 335 878 335 878 362.5 896 c 128,-1,25
 390 914 390 914 424 914 c 0,26,27
 447 914 447 914 462 906.5 c 128,-1,28
 477 899 477 899 489 890 c 128,-1,29
 501 881 501 881 512.5 873.5 c 128,-1,30
 524 866 524 866 541 866 c 0,31,32
 557 866 557 866 568.5 873.5 c 128,-1,33
 580 881 580 881 587 890 c 128,-1,34
 594 899 594 899 597.5 907 c 128,-1,35
 601 915 601 915 601 916 c 2,36,-1
 686 916 l 1,37,38
 684 908 684 908 672.5 885 c 128,-1,39
 661 862 661 862 640.5 837 c 128,-1,40
 620 812 620 812 591.5 793 c 128,-1,41
 563 774 563 774 528 774 c 0,10,11
EndSplineSet
EndChar

StartChar: Ograve
Encoding: 210 210 149
Width: 733
GlyphClass: 2
Flags: W
LayerCount: 2
Fore
SplineSet
301 -6 m 0,0,1
 236 -6 236 -6 186 18.5 c 128,-1,2
 136 43 136 43 102 84.5 c 128,-1,3
 68 126 68 126 50.5 179.5 c 128,-1,4
 33 233 33 233 33 291 c 0,5,6
 33 345 33 345 49 397 c 128,-1,7
 65 449 65 449 93.5 496 c 128,-1,8
 122 543 122 543 161 583 c 128,-1,9
 200 623 200 623 247.5 652 c 128,-1,10
 295 681 295 681 348 697.5 c 128,-1,11
 401 714 401 714 457 714 c 0,12,13
 521 714 521 714 571 689 c 128,-1,14
 621 664 621 664 654.5 623 c 128,-1,15
 688 582 688 582 705.5 528 c 128,-1,16
 723 474 723 474 723 417 c 0,17,18
 723 337 723 337 688.5 261 c 128,-1,19
 654 185 654 185 595.5 125.5 c 128,-1,20
 537 66 537 66 461 30 c 128,-1,21
 385 -6 385 -6 301 -6 c 0,0,1
333 140 m 0,22,23
 385 140 385 140 426 165 c 128,-1,24
 467 190 467 190 495.5 228.5 c 128,-1,25
 524 267 524 267 539.5 314 c 128,-1,26
 555 361 555 361 555 406 c 0,27,28
 555 439 555 439 547 468 c 128,-1,29
 539 497 539 497 523 519.5 c 128,-1,30
 507 542 507 542 482 555 c 128,-1,31
 457 568 457 568 423 568 c 0,32,33
 372 568 372 568 330.5 543.5 c 128,-1,34
 289 519 289 519 260.5 481 c 128,-1,35
 232 443 232 443 216.5 396 c 128,-1,36
 201 349 201 349 201 304 c 0,37,38
 201 271 201 271 209 241.5 c 128,-1,39
 217 212 217 212 233 189.5 c 128,-1,40
 249 167 249 167 274 153.5 c 128,-1,41
 299 140 299 140 333 140 c 0,22,23
378 917 m 1,42,-1
 522 917 l 1,43,-1
 544 787 l 1,44,-1
 433 771 l 1,45,-1
 378 917 l 1,42,-1
EndSplineSet
EndChar

StartChar: Oacute
Encoding: 211 211 150
Width: 733
GlyphClass: 2
Flags: W
LayerCount: 2
Fore
SplineSet
505 772 m 1,0,-1
 399 786 l 1,1,-1
 476 916 l 1,2,-1
 620 916 l 1,3,-1
 505 772 l 1,0,-1
301 -6 m 0,4,5
 236 -6 236 -6 186 18.5 c 128,-1,6
 136 43 136 43 102 84.5 c 128,-1,7
 68 126 68 126 50.5 179.5 c 128,-1,8
 33 233 33 233 33 291 c 0,9,10
 33 345 33 345 49 397 c 128,-1,11
 65 449 65 449 93.5 496 c 128,-1,12
 122 543 122 543 161 583 c 128,-1,13
 200 623 200 623 247.5 652 c 128,-1,14
 295 681 295 681 348 697.5 c 128,-1,15
 401 714 401 714 457 714 c 0,16,17
 521 714 521 714 571 689 c 128,-1,18
 621 664 621 664 654.5 623 c 128,-1,19
 688 582 688 582 705.5 528 c 128,-1,20
 723 474 723 474 723 417 c 0,21,22
 723 337 723 337 688.5 261 c 128,-1,23
 654 185 654 185 595.5 125.5 c 128,-1,24
 537 66 537 66 461 30 c 128,-1,25
 385 -6 385 -6 301 -6 c 0,4,5
333 140 m 0,26,27
 385 140 385 140 426 165 c 128,-1,28
 467 190 467 190 495.5 228.5 c 128,-1,29
 524 267 524 267 539.5 314 c 128,-1,30
 555 361 555 361 555 406 c 0,31,32
 555 439 555 439 547 468 c 128,-1,33
 539 497 539 497 523 519.5 c 128,-1,34
 507 542 507 542 482 555 c 128,-1,35
 457 568 457 568 423 568 c 0,36,37
 372 568 372 568 330.5 543.5 c 128,-1,38
 289 519 289 519 260.5 481 c 128,-1,39
 232 443 232 443 216.5 396 c 128,-1,40
 201 349 201 349 201 304 c 0,41,42
 201 271 201 271 209 241.5 c 128,-1,43
 217 212 217 212 233 189.5 c 128,-1,44
 249 167 249 167 274 153.5 c 128,-1,45
 299 140 299 140 333 140 c 0,26,27
EndSplineSet
EndChar

StartChar: Ocircumflex
Encoding: 212 212 151
Width: 733
GlyphClass: 2
Flags: W
LayerCount: 2
Fore
SplineSet
316 808 m 1,0,-1
 444 916 l 1,1,-1
 558 916 l 1,2,-1
 640 808 l 1,3,-1
 551 772 l 1,4,-1
 484 835 l 1,5,-1
 390 772 l 1,6,-1
 316 808 l 1,0,-1
301 -6 m 0,7,8
 236 -6 236 -6 186 18.5 c 128,-1,9
 136 43 136 43 102 84.5 c 128,-1,10
 68 126 68 126 50.5 179.5 c 128,-1,11
 33 233 33 233 33 291 c 0,12,13
 33 345 33 345 49 397 c 128,-1,14
 65 449 65 449 93.5 496 c 128,-1,15
 122 543 122 543 161 583 c 128,-1,16
 200 623 200 623 247.5 652 c 128,-1,17
 295 681 295 681 348 697.5 c 128,-1,18
 401 714 401 714 457 714 c 0,19,20
 521 714 521 714 571 689 c 128,-1,21
 621 664 621 664 654.5 623 c 128,-1,22
 688 582 688 582 705.5 528 c 128,-1,23
 723 474 723 474 723 417 c 0,24,25
 723 337 723 337 688.5 261 c 128,-1,26
 654 185 654 185 595.5 125.5 c 128,-1,27
 537 66 537 66 461 30 c 128,-1,28
 385 -6 385 -6 301 -6 c 0,7,8
333 140 m 0,29,30
 385 140 385 140 426 165 c 128,-1,31
 467 190 467 190 495.5 228.5 c 128,-1,32
 524 267 524 267 539.5 314 c 128,-1,33
 555 361 555 361 555 406 c 0,34,35
 555 439 555 439 547 468 c 128,-1,36
 539 497 539 497 523 519.5 c 128,-1,37
 507 542 507 542 482 555 c 128,-1,38
 457 568 457 568 423 568 c 0,39,40
 372 568 372 568 330.5 543.5 c 128,-1,41
 289 519 289 519 260.5 481 c 128,-1,42
 232 443 232 443 216.5 396 c 128,-1,43
 201 349 201 349 201 304 c 0,44,45
 201 271 201 271 209 241.5 c 128,-1,46
 217 212 217 212 233 189.5 c 128,-1,47
 249 167 249 167 274 153.5 c 128,-1,48
 299 140 299 140 333 140 c 0,29,30
EndSplineSet
EndChar

StartChar: Otilde
Encoding: 213 213 152
Width: 733
GlyphClass: 2
Flags: W
LayerCount: 2
Fore
SplineSet
301 -6 m 0,0,1
 236 -6 236 -6 186 18.5 c 128,-1,2
 136 43 136 43 102 84.5 c 128,-1,3
 68 126 68 126 50.5 179.5 c 128,-1,4
 33 233 33 233 33 291 c 0,5,6
 33 345 33 345 49 397 c 128,-1,7
 65 449 65 449 93.5 496 c 128,-1,8
 122 543 122 543 161 583 c 128,-1,9
 200 623 200 623 247.5 652 c 128,-1,10
 295 681 295 681 348 697.5 c 128,-1,11
 401 714 401 714 457 714 c 0,12,13
 521 714 521 714 571 689 c 128,-1,14
 621 664 621 664 654.5 623 c 128,-1,15
 688 582 688 582 705.5 528 c 128,-1,16
 723 474 723 474 723 417 c 0,17,18
 723 337 723 337 688.5 261 c 128,-1,19
 654 185 654 185 595.5 125.5 c 128,-1,20
 537 66 537 66 461 30 c 128,-1,21
 385 -6 385 -6 301 -6 c 0,0,1
333 140 m 0,22,23
 385 140 385 140 426 165 c 128,-1,24
 467 190 467 190 495.5 228.5 c 128,-1,25
 524 267 524 267 539.5 314 c 128,-1,26
 555 361 555 361 555 406 c 0,27,28
 555 439 555 439 547 468 c 128,-1,29
 539 497 539 497 523 519.5 c 128,-1,30
 507 542 507 542 482 555 c 128,-1,31
 457 568 457 568 423 568 c 0,32,33
 372 568 372 568 330.5 543.5 c 128,-1,34
 289 519 289 519 260.5 481 c 128,-1,35
 232 443 232 443 216.5 396 c 128,-1,36
 201 349 201 349 201 304 c 0,37,38
 201 271 201 271 209 241.5 c 128,-1,39
 217 212 217 212 233 189.5 c 128,-1,40
 249 167 249 167 274 153.5 c 128,-1,41
 299 140 299 140 333 140 c 0,22,23
535 774 m 0,42,43
 513 774 513 774 498 781 c 128,-1,44
 483 788 483 788 470.5 797 c 128,-1,45
 458 806 458 806 446 813 c 128,-1,46
 434 820 434 820 418 820 c 256,47,48
 402 820 402 820 391.5 813 c 128,-1,49
 381 806 381 806 375 797 c 128,-1,50
 369 788 369 788 366.5 780.5 c 128,-1,51
 364 773 364 773 364 772 c 2,52,-1
 277 772 l 1,53,54
 279 783 279 783 290.5 806.5 c 128,-1,55
 302 830 302 830 322 854 c 128,-1,56
 342 878 342 878 369.5 896 c 128,-1,57
 397 914 397 914 431 914 c 0,58,59
 454 914 454 914 469 906.5 c 128,-1,60
 484 899 484 899 496 890 c 128,-1,61
 508 881 508 881 519.5 873.5 c 128,-1,62
 531 866 531 866 548 866 c 0,63,64
 564 866 564 866 575.5 873.5 c 128,-1,65
 587 881 587 881 594 890 c 128,-1,66
 601 899 601 899 604.5 907 c 128,-1,67
 608 915 608 915 608 916 c 2,68,-1
 693 916 l 1,69,70
 691 908 691 908 679.5 885 c 128,-1,71
 668 862 668 862 647.5 837 c 128,-1,72
 627 812 627 812 598.5 793 c 128,-1,73
 570 774 570 774 535 774 c 0,42,43
EndSplineSet
EndChar

StartChar: Odieresis
Encoding: 214 214 153
Width: 733
GlyphClass: 2
Flags: W
LayerCount: 2
Fore
SplineSet
301 780 m 1,0,-1
 329 909 l 1,1,-1
 461 909 l 1,2,-1
 433 780 l 1,3,-1
 301 780 l 1,0,-1
506 780 m 1,4,-1
 534 909 l 1,5,-1
 665 909 l 1,6,-1
 638 780 l 1,7,-1
 506 780 l 1,4,-1
301 -6 m 0,8,9
 236 -6 236 -6 186 18.5 c 128,-1,10
 136 43 136 43 102 84.5 c 128,-1,11
 68 126 68 126 50.5 179.5 c 128,-1,12
 33 233 33 233 33 291 c 0,13,14
 33 345 33 345 49 397 c 128,-1,15
 65 449 65 449 93.5 496 c 128,-1,16
 122 543 122 543 161 583 c 128,-1,17
 200 623 200 623 247.5 652 c 128,-1,18
 295 681 295 681 348 697.5 c 128,-1,19
 401 714 401 714 457 714 c 0,20,21
 521 714 521 714 571 689 c 128,-1,22
 621 664 621 664 654.5 623 c 128,-1,23
 688 582 688 582 705.5 528 c 128,-1,24
 723 474 723 474 723 417 c 0,25,26
 723 337 723 337 688.5 261 c 128,-1,27
 654 185 654 185 595.5 125.5 c 128,-1,28
 537 66 537 66 461 30 c 128,-1,29
 385 -6 385 -6 301 -6 c 0,8,9
333 140 m 0,30,31
 385 140 385 140 426 165 c 128,-1,32
 467 190 467 190 495.5 228.5 c 128,-1,33
 524 267 524 267 539.5 314 c 128,-1,34
 555 361 555 361 555 406 c 0,35,36
 555 439 555 439 547 468 c 128,-1,37
 539 497 539 497 523 519.5 c 128,-1,38
 507 542 507 542 482 555 c 128,-1,39
 457 568 457 568 423 568 c 0,40,41
 372 568 372 568 330.5 543.5 c 128,-1,42
 289 519 289 519 260.5 481 c 128,-1,43
 232 443 232 443 216.5 396 c 128,-1,44
 201 349 201 349 201 304 c 0,45,46
 201 271 201 271 209 241.5 c 128,-1,47
 217 212 217 212 233 189.5 c 128,-1,48
 249 167 249 167 274 153.5 c 128,-1,49
 299 140 299 140 333 140 c 0,30,31
EndSplineSet
EndChar

StartChar: multiply
Encoding: 215 215 154
Width: 496
GlyphClass: 2
Flags: W
LayerCount: 2
Fore
SplineSet
435 181 m 1,0,-1
 335 82 l 1,1,-1
 239 177 l 1,2,-1
 144 82 l 1,3,-1
 45 181 l 1,4,-1
 140 276 l 1,5,-1
 50 367 l 1,6,-1
 150 466 l 1,7,-1
 240 376 l 1,8,-1
 330 466 l 1,9,-1
 429 367 l 1,10,-1
 339 277 l 1,11,-1
 435 181 l 1,0,-1
EndSplineSet
EndChar

StartChar: Oslash
Encoding: 216 216 155
Width: 733
GlyphClass: 2
Flags: W
LayerCount: 2
Fore
SplineSet
783 710 m 1,0,-1
 677 591 l 1,1,2
 700 553 700 553 711.5 508.5 c 128,-1,3
 723 464 723 464 723 417 c 0,4,5
 723 337 723 337 688.5 261 c 128,-1,6
 654 185 654 185 595.5 125.5 c 128,-1,7
 537 66 537 66 461 30 c 128,-1,8
 385 -6 385 -6 301 -6 c 0,9,10
 229 -6 229 -6 173 25 c 1,11,-1
 150 0 l 1,12,-1
 -26 0 l 1,13,-1
 78 117 l 1,14,15
 55 155 55 155 44 199 c 128,-1,16
 33 243 33 243 33 291 c 0,17,18
 33 345 33 345 49 397 c 128,-1,19
 65 449 65 449 93.5 496 c 128,-1,20
 122 543 122 543 161 583 c 128,-1,21
 200 623 200 623 247.5 652 c 128,-1,22
 295 681 295 681 348 697.5 c 128,-1,23
 401 714 401 714 457 714 c 0,24,25
 493 714 493 714 524.5 705.5 c 128,-1,26
 556 697 556 697 583 683 c 1,27,-1
 607 710 l 1,28,-1
 783 710 l 1,0,-1
333 140 m 0,29,30
 385 140 385 140 426 165 c 128,-1,31
 467 190 467 190 495.5 228.5 c 128,-1,32
 524 267 524 267 539.5 314 c 128,-1,33
 555 361 555 361 555 406 c 0,34,35
 555 417 555 417 554 428 c 128,-1,36
 553 439 553 439 551 450 c 1,37,-1
 283 149 l 1,38,39
 304 140 304 140 333 140 c 0,29,30
201 304 m 0,40,41
 201 279 201 279 205 259 c 1,42,-1
 472 559 l 1,43,44
 461 563 461 563 449 565.5 c 128,-1,45
 437 568 437 568 423 568 c 0,46,47
 372 568 372 568 330.5 543.5 c 128,-1,48
 289 519 289 519 260.5 481 c 128,-1,49
 232 443 232 443 216.5 396 c 128,-1,50
 201 349 201 349 201 304 c 0,40,41
EndSplineSet
EndChar

StartChar: Ugrave
Encoding: 217 217 156
Width: 716
GlyphClass: 2
Flags: W
LayerCount: 2
Fore
SplineSet
292 -6 m 0,0,1
 227 -6 227 -6 182 12.5 c 128,-1,2
 137 31 137 31 108.5 63.5 c 128,-1,3
 80 96 80 96 67 140.5 c 128,-1,4
 54 185 54 185 54 236 c 0,5,6
 54 290 54 290 66 347 c 2,7,-1
 144 710 l 1,8,-1
 308 710 l 1,9,-1
 230 347 l 2,10,11
 221 303 221 303 221 266 c 0,12,13
 221 239 221 239 226.5 216 c 128,-1,14
 232 193 232 193 244 176 c 128,-1,15
 256 159 256 159 275.5 149.5 c 128,-1,16
 295 140 295 140 323 140 c 0,17,18
 361 140 361 140 391 157.5 c 128,-1,19
 421 175 421 175 443 204 c 128,-1,20
 465 233 465 233 480 270.5 c 128,-1,21
 495 308 495 308 504 347 c 2,22,-1
 581 710 l 1,23,-1
 745 710 l 1,24,-1
 668 347 l 2,25,26
 652 273 652 273 620.5 209 c 128,-1,27
 589 145 589 145 542 97 c 128,-1,28
 495 49 495 49 432.5 21.5 c 128,-1,29
 370 -6 370 -6 292 -6 c 0,0,1
365 917 m 1,30,-1
 509 917 l 1,31,-1
 531 787 l 1,32,-1
 420 771 l 1,33,-1
 365 917 l 1,30,-1
EndSplineSet
EndChar

StartChar: Uacute
Encoding: 218 218 157
Width: 716
GlyphClass: 2
Flags: W
LayerCount: 2
Fore
SplineSet
490 772 m 1,0,-1
 384 786 l 1,1,-1
 461 916 l 1,2,-1
 605 916 l 1,3,-1
 490 772 l 1,0,-1
292 -6 m 0,4,5
 227 -6 227 -6 182 12.5 c 128,-1,6
 137 31 137 31 108.5 63.5 c 128,-1,7
 80 96 80 96 67 140.5 c 128,-1,8
 54 185 54 185 54 236 c 0,9,10
 54 290 54 290 66 347 c 2,11,-1
 144 710 l 1,12,-1
 308 710 l 1,13,-1
 230 347 l 2,14,15
 221 303 221 303 221 266 c 0,16,17
 221 239 221 239 226.5 216 c 128,-1,18
 232 193 232 193 244 176 c 128,-1,19
 256 159 256 159 275.5 149.5 c 128,-1,20
 295 140 295 140 323 140 c 0,21,22
 361 140 361 140 391 157.5 c 128,-1,23
 421 175 421 175 443 204 c 128,-1,24
 465 233 465 233 480 270.5 c 128,-1,25
 495 308 495 308 504 347 c 2,26,-1
 581 710 l 1,27,-1
 745 710 l 1,28,-1
 668 347 l 2,29,30
 652 273 652 273 620.5 209 c 128,-1,31
 589 145 589 145 542 97 c 128,-1,32
 495 49 495 49 432.5 21.5 c 128,-1,33
 370 -6 370 -6 292 -6 c 0,4,5
EndSplineSet
EndChar

StartChar: Ucircumflex
Encoding: 219 219 158
Width: 716
GlyphClass: 2
Flags: W
LayerCount: 2
Fore
SplineSet
301 808 m 1,0,-1
 429 916 l 1,1,-1
 543 916 l 1,2,-1
 625 808 l 1,3,-1
 536 772 l 1,4,-1
 469 835 l 1,5,-1
 375 772 l 1,6,-1
 301 808 l 1,0,-1
292 -6 m 0,7,8
 227 -6 227 -6 182 12.5 c 128,-1,9
 137 31 137 31 108.5 63.5 c 128,-1,10
 80 96 80 96 67 140.5 c 128,-1,11
 54 185 54 185 54 236 c 0,12,13
 54 290 54 290 66 347 c 2,14,-1
 144 710 l 1,15,-1
 308 710 l 1,16,-1
 230 347 l 2,17,18
 221 303 221 303 221 266 c 0,19,20
 221 239 221 239 226.5 216 c 128,-1,21
 232 193 232 193 244 176 c 128,-1,22
 256 159 256 159 275.5 149.5 c 128,-1,23
 295 140 295 140 323 140 c 0,24,25
 361 140 361 140 391 157.5 c 128,-1,26
 421 175 421 175 443 204 c 128,-1,27
 465 233 465 233 480 270.5 c 128,-1,28
 495 308 495 308 504 347 c 2,29,-1
 581 710 l 1,30,-1
 745 710 l 1,31,-1
 668 347 l 2,32,33
 652 273 652 273 620.5 209 c 128,-1,34
 589 145 589 145 542 97 c 128,-1,35
 495 49 495 49 432.5 21.5 c 128,-1,36
 370 -6 370 -6 292 -6 c 0,7,8
EndSplineSet
EndChar

StartChar: Udieresis
Encoding: 220 220 159
Width: 716
GlyphClass: 2
Flags: W
LayerCount: 2
Fore
SplineSet
287 780 m 1,0,-1
 315 909 l 1,1,-1
 447 909 l 1,2,-1
 419 780 l 1,3,-1
 287 780 l 1,0,-1
492 780 m 1,4,-1
 520 909 l 1,5,-1
 651 909 l 1,6,-1
 624 780 l 1,7,-1
 492 780 l 1,4,-1
292 -6 m 0,8,9
 227 -6 227 -6 182 12.5 c 128,-1,10
 137 31 137 31 108.5 63.5 c 128,-1,11
 80 96 80 96 67 140.5 c 128,-1,12
 54 185 54 185 54 236 c 0,13,14
 54 290 54 290 66 347 c 2,15,-1
 144 710 l 1,16,-1
 308 710 l 1,17,-1
 230 347 l 2,18,19
 221 303 221 303 221 266 c 0,20,21
 221 239 221 239 226.5 216 c 128,-1,22
 232 193 232 193 244 176 c 128,-1,23
 256 159 256 159 275.5 149.5 c 128,-1,24
 295 140 295 140 323 140 c 0,25,26
 361 140 361 140 391 157.5 c 128,-1,27
 421 175 421 175 443 204 c 128,-1,28
 465 233 465 233 480 270.5 c 128,-1,29
 495 308 495 308 504 347 c 2,30,-1
 581 710 l 1,31,-1
 745 710 l 1,32,-1
 668 347 l 2,33,34
 652 273 652 273 620.5 209 c 128,-1,35
 589 145 589 145 542 97 c 128,-1,36
 495 49 495 49 432.5 21.5 c 128,-1,37
 370 -6 370 -6 292 -6 c 0,8,9
EndSplineSet
EndChar

StartChar: Yacute
Encoding: 221 221 160
Width: 623
GlyphClass: 2
Flags: W
LayerCount: 2
Fore
SplineSet
213 244 m 1,0,-1
 77 710 l 1,1,-1
 255 710 l 1,2,-1
 324 384 l 1,3,-1
 535 710 l 1,4,-1
 713 710 l 1,5,-1
 375 242 l 1,6,-1
 324 0 l 1,7,-1
 160 0 l 1,8,-1
 213 244 l 1,0,-1
434 772 m 1,9,-1
 328 786 l 1,10,-1
 405 916 l 1,11,-1
 549 916 l 1,12,-1
 434 772 l 1,9,-1
EndSplineSet
EndChar

StartChar: Thorn
Encoding: 222 222 161
Width: 584
GlyphClass: 2
Flags: W
LayerCount: 2
Fore
SplineSet
155 710 m 1,0,-1
 319 710 l 1,1,-1
 293 586 l 1,2,-1
 402 586 l 2,3,4
 444 586 444 586 476.5 569 c 128,-1,5
 509 552 509 552 532 524.5 c 128,-1,6
 555 497 555 497 567 461 c 128,-1,7
 579 425 579 425 579 387 c 0,8,9
 579 336 579 336 557 285.5 c 128,-1,10
 535 235 535 235 497.5 195 c 128,-1,11
 460 155 460 155 410.5 130.5 c 128,-1,12
 361 106 361 106 305 106 c 2,13,-1
 190 106 l 1,14,-1
 168 0 l 1,15,-1
 4 0 l 1,16,-1
 155 710 l 1,0,-1
327 250 m 2,17,18
 342 250 342 250 357.5 259.5 c 128,-1,19
 373 269 373 269 385.5 285.5 c 128,-1,20
 398 302 398 302 405.5 324 c 128,-1,21
 413 346 413 346 413 370 c 0,22,23
 413 403 413 403 398.5 423 c 128,-1,24
 384 443 384 443 363 443 c 2,25,-1
 262 443 l 1,26,-1
 221 250 l 1,27,-1
 327 250 l 2,17,18
EndSplineSet
EndChar

StartChar: germandbls
Encoding: 223 223 162
Width: 542
GlyphClass: 2
Flags: W
LayerCount: 2
Fore
SplineSet
209 141 m 1,0,1
 234 141 234 141 257 148 c 128,-1,2
 280 155 280 155 297.5 168.5 c 128,-1,3
 315 182 315 182 325 202 c 128,-1,4
 335 222 335 222 335 249 c 0,5,6
 335 283 335 283 313.5 301 c 128,-1,7
 292 319 292 319 269 319 c 2,8,-1
 248 319 l 1,9,-1
 279 462 l 1,10,-1
 298 462 l 2,11,12
 315 462 315 462 327 468.5 c 128,-1,13
 339 475 339 475 347 485.5 c 128,-1,14
 355 496 355 496 359 508.5 c 128,-1,15
 363 521 363 521 363 533 c 0,16,17
 363 556 363 556 350.5 567.5 c 128,-1,18
 338 579 338 579 319 579 c 0,19,20
 290 579 290 579 273 556 c 128,-1,21
 256 533 256 533 248 497 c 2,22,-1
 142 0 l 1,23,-1
 -10 0 l 1,24,-1
 102 525 l 2,25,26
 111 566 111 566 135 600.5 c 128,-1,27
 159 635 159 635 194 660.5 c 128,-1,28
 229 686 229 686 272.5 700 c 128,-1,29
 316 714 316 714 363 714 c 0,30,31
 435 714 435 714 479 678 c 128,-1,32
 523 642 523 642 523 579 c 0,33,34
 523 549 523 549 513.5 520.5 c 128,-1,35
 504 492 504 492 488.5 468.5 c 128,-1,36
 473 445 473 445 453.5 428 c 128,-1,37
 434 411 434 411 415 403 c 1,38,39
 457 387 457 387 479.5 348 c 128,-1,40
 502 309 502 309 502 255 c 0,41,42
 502 182 502 182 472.5 132.5 c 128,-1,43
 443 83 443 83 396.5 52.5 c 128,-1,44
 350 22 350 22 292.5 8.5 c 128,-1,45
 235 -5 235 -5 178 -6 c 1,46,-1
 209 141 l 1,0,1
EndSplineSet
EndChar

StartChar: agrave
Encoding: 224 224 163
Width: 634
GlyphClass: 2
Flags: W
LayerCount: 2
Fore
SplineSet
197 -10 m 0,0,1
 153 -10 153 -10 118.5 6 c 128,-1,2
 84 22 84 22 60 50.5 c 128,-1,3
 36 79 36 79 23.5 118 c 128,-1,4
 11 157 11 157 11 203 c 0,5,6
 11 269 11 269 34.5 329.5 c 128,-1,7
 58 390 58 390 97 435.5 c 128,-1,8
 136 481 136 481 188 508 c 128,-1,9
 240 535 240 535 297 535 c 0,10,11
 348 535 348 535 384 509 c 128,-1,12
 420 483 420 483 434 439 c 1,13,-1
 452 522 l 1,14,-1
 613 522 l 1,15,-1
 539 180 l 2,16,17
 538 173 538 173 537.5 168.5 c 128,-1,18
 537 164 537 164 537 159 c 0,19,20
 537 136 537 136 562 135 c 1,21,-1
 534 0 l 1,22,23
 511 -5 511 -5 494.5 -6.5 c 128,-1,24
 478 -8 478 -8 466 -8 c 0,25,26
 427 -8 427 -8 404 7.5 c 128,-1,27
 381 23 381 23 381 59 c 0,28,29
 381 69 381 69 384 87 c 1,30,31
 347 38 347 38 297.5 14 c 128,-1,32
 248 -10 248 -10 197 -10 c 0,0,1
269 125 m 0,33,34
 299 125 299 125 330 144.5 c 128,-1,35
 361 164 361 164 384 198 c 1,36,-1
 407 308 l 1,37,38
 402 348 402 348 377 373.5 c 128,-1,39
 352 399 352 399 320 399 c 0,40,41
 293 399 293 399 267.5 384.5 c 128,-1,42
 242 370 242 370 222.5 346.5 c 128,-1,43
 203 323 203 323 191.5 292.5 c 128,-1,44
 180 262 180 262 180 229 c 0,45,46
 180 184 180 184 203.5 154.5 c 128,-1,47
 227 125 227 125 269 125 c 0,33,34
223 730 m 1,48,-1
 367 730 l 1,49,-1
 389 600 l 1,50,-1
 278 584 l 1,51,-1
 223 730 l 1,48,-1
EndSplineSet
EndChar

StartChar: aacute
Encoding: 225 225 164
Width: 634
GlyphClass: 2
Flags: W
LayerCount: 2
Fore
SplineSet
197 -10 m 0,0,1
 153 -10 153 -10 118.5 6 c 128,-1,2
 84 22 84 22 60 50.5 c 128,-1,3
 36 79 36 79 23.5 118 c 128,-1,4
 11 157 11 157 11 203 c 0,5,6
 11 269 11 269 34.5 329.5 c 128,-1,7
 58 390 58 390 97 435.5 c 128,-1,8
 136 481 136 481 188 508 c 128,-1,9
 240 535 240 535 297 535 c 0,10,11
 348 535 348 535 384 509 c 128,-1,12
 420 483 420 483 434 439 c 1,13,-1
 452 522 l 1,14,-1
 613 522 l 1,15,-1
 539 180 l 2,16,17
 538 173 538 173 537.5 168.5 c 128,-1,18
 537 164 537 164 537 159 c 0,19,20
 537 136 537 136 562 135 c 1,21,-1
 534 0 l 1,22,23
 511 -5 511 -5 494.5 -6.5 c 128,-1,24
 478 -8 478 -8 466 -8 c 0,25,26
 427 -8 427 -8 404 7.5 c 128,-1,27
 381 23 381 23 381 59 c 0,28,29
 381 69 381 69 384 87 c 1,30,31
 347 38 347 38 297.5 14 c 128,-1,32
 248 -10 248 -10 197 -10 c 0,0,1
269 125 m 0,33,34
 299 125 299 125 330 144.5 c 128,-1,35
 361 164 361 164 384 198 c 1,36,-1
 407 308 l 1,37,38
 402 348 402 348 377 373.5 c 128,-1,39
 352 399 352 399 320 399 c 0,40,41
 293 399 293 399 267.5 384.5 c 128,-1,42
 242 370 242 370 222.5 346.5 c 128,-1,43
 203 323 203 323 191.5 292.5 c 128,-1,44
 180 262 180 262 180 229 c 0,45,46
 180 184 180 184 203.5 154.5 c 128,-1,47
 227 125 227 125 269 125 c 0,33,34
367 586 m 1,48,-1
 261 600 l 1,49,-1
 338 730 l 1,50,-1
 482 730 l 1,51,-1
 367 586 l 1,48,-1
EndSplineSet
EndChar

StartChar: acircumflex
Encoding: 226 226 165
Width: 634
GlyphClass: 2
Flags: W
LayerCount: 2
Fore
SplineSet
197 -10 m 0,0,1
 153 -10 153 -10 118.5 6 c 128,-1,2
 84 22 84 22 60 50.5 c 128,-1,3
 36 79 36 79 23.5 118 c 128,-1,4
 11 157 11 157 11 203 c 0,5,6
 11 269 11 269 34.5 329.5 c 128,-1,7
 58 390 58 390 97 435.5 c 128,-1,8
 136 481 136 481 188 508 c 128,-1,9
 240 535 240 535 297 535 c 0,10,11
 348 535 348 535 384 509 c 128,-1,12
 420 483 420 483 434 439 c 1,13,-1
 452 522 l 1,14,-1
 613 522 l 1,15,-1
 539 180 l 2,16,17
 538 173 538 173 537.5 168.5 c 128,-1,18
 537 164 537 164 537 159 c 0,19,20
 537 136 537 136 562 135 c 1,21,-1
 534 0 l 1,22,23
 511 -5 511 -5 494.5 -6.5 c 128,-1,24
 478 -8 478 -8 466 -8 c 0,25,26
 427 -8 427 -8 404 7.5 c 128,-1,27
 381 23 381 23 381 59 c 0,28,29
 381 69 381 69 384 87 c 1,30,31
 347 38 347 38 297.5 14 c 128,-1,32
 248 -10 248 -10 197 -10 c 0,0,1
269 125 m 0,33,34
 299 125 299 125 330 144.5 c 128,-1,35
 361 164 361 164 384 198 c 1,36,-1
 407 308 l 1,37,38
 402 348 402 348 377 373.5 c 128,-1,39
 352 399 352 399 320 399 c 0,40,41
 293 399 293 399 267.5 384.5 c 128,-1,42
 242 370 242 370 222.5 346.5 c 128,-1,43
 203 323 203 323 191.5 292.5 c 128,-1,44
 180 262 180 262 180 229 c 0,45,46
 180 184 180 184 203.5 154.5 c 128,-1,47
 227 125 227 125 269 125 c 0,33,34
173 622 m 1,48,-1
 301 730 l 1,49,-1
 415 730 l 1,50,-1
 497 622 l 1,51,-1
 408 586 l 1,52,-1
 341 649 l 1,53,-1
 247 586 l 1,54,-1
 173 622 l 1,48,-1
EndSplineSet
EndChar

StartChar: atilde
Encoding: 227 227 166
Width: 634
GlyphClass: 2
Flags: W
LayerCount: 2
Fore
SplineSet
197 -10 m 0,0,1
 153 -10 153 -10 118.5 6 c 128,-1,2
 84 22 84 22 60 50.5 c 128,-1,3
 36 79 36 79 23.5 118 c 128,-1,4
 11 157 11 157 11 203 c 0,5,6
 11 269 11 269 34.5 329.5 c 128,-1,7
 58 390 58 390 97 435.5 c 128,-1,8
 136 481 136 481 188 508 c 128,-1,9
 240 535 240 535 297 535 c 0,10,11
 348 535 348 535 384 509 c 128,-1,12
 420 483 420 483 434 439 c 1,13,-1
 452 522 l 1,14,-1
 613 522 l 1,15,-1
 539 180 l 2,16,17
 538 173 538 173 537.5 168.5 c 128,-1,18
 537 164 537 164 537 159 c 0,19,20
 537 136 537 136 562 135 c 1,21,-1
 534 0 l 1,22,23
 511 -5 511 -5 494.5 -6.5 c 128,-1,24
 478 -8 478 -8 466 -8 c 0,25,26
 427 -8 427 -8 404 7.5 c 128,-1,27
 381 23 381 23 381 59 c 0,28,29
 381 69 381 69 384 87 c 1,30,31
 347 38 347 38 297.5 14 c 128,-1,32
 248 -10 248 -10 197 -10 c 0,0,1
269 125 m 0,33,34
 299 125 299 125 330 144.5 c 128,-1,35
 361 164 361 164 384 198 c 1,36,-1
 407 308 l 1,37,38
 402 348 402 348 377 373.5 c 128,-1,39
 352 399 352 399 320 399 c 0,40,41
 293 399 293 399 267.5 384.5 c 128,-1,42
 242 370 242 370 222.5 346.5 c 128,-1,43
 203 323 203 323 191.5 292.5 c 128,-1,44
 180 262 180 262 180 229 c 0,45,46
 180 184 180 184 203.5 154.5 c 128,-1,47
 227 125 227 125 269 125 c 0,33,34
390 588 m 0,48,49
 368 588 368 588 353 595 c 128,-1,50
 338 602 338 602 325.5 611 c 128,-1,51
 313 620 313 620 301 627 c 128,-1,52
 289 634 289 634 273 634 c 256,53,54
 257 634 257 634 246.5 627 c 128,-1,55
 236 620 236 620 230 611 c 128,-1,56
 224 602 224 602 221.5 594.5 c 128,-1,57
 219 587 219 587 219 586 c 2,58,-1
 132 586 l 1,59,60
 134 597 134 597 145.5 620.5 c 128,-1,61
 157 644 157 644 177 668 c 128,-1,62
 197 692 197 692 224.5 710 c 128,-1,63
 252 728 252 728 286 728 c 0,64,65
 309 728 309 728 324 720.5 c 128,-1,66
 339 713 339 713 351 704 c 128,-1,67
 363 695 363 695 374.5 687.5 c 128,-1,68
 386 680 386 680 403 680 c 0,69,70
 419 680 419 680 430.5 687.5 c 128,-1,71
 442 695 442 695 449 704 c 128,-1,72
 456 713 456 713 459.5 721 c 128,-1,73
 463 729 463 729 463 730 c 2,74,-1
 548 730 l 1,75,76
 546 722 546 722 534.5 699 c 128,-1,77
 523 676 523 676 502.5 651 c 128,-1,78
 482 626 482 626 453.5 607 c 128,-1,79
 425 588 425 588 390 588 c 0,48,49
EndSplineSet
EndChar

StartChar: adieresis
Encoding: 228 228 167
Width: 634
GlyphClass: 2
Flags: W
LayerCount: 2
Fore
SplineSet
197 -10 m 0,0,1
 153 -10 153 -10 118.5 6 c 128,-1,2
 84 22 84 22 60 50.5 c 128,-1,3
 36 79 36 79 23.5 118 c 128,-1,4
 11 157 11 157 11 203 c 0,5,6
 11 269 11 269 34.5 329.5 c 128,-1,7
 58 390 58 390 97 435.5 c 128,-1,8
 136 481 136 481 188 508 c 128,-1,9
 240 535 240 535 297 535 c 0,10,11
 348 535 348 535 384 509 c 128,-1,12
 420 483 420 483 434 439 c 1,13,-1
 452 522 l 1,14,-1
 613 522 l 1,15,-1
 539 180 l 2,16,17
 538 173 538 173 537.5 168.5 c 128,-1,18
 537 164 537 164 537 159 c 0,19,20
 537 136 537 136 562 135 c 1,21,-1
 534 0 l 1,22,23
 511 -5 511 -5 494.5 -6.5 c 128,-1,24
 478 -8 478 -8 466 -8 c 0,25,26
 427 -8 427 -8 404 7.5 c 128,-1,27
 381 23 381 23 381 59 c 0,28,29
 381 69 381 69 384 87 c 1,30,31
 347 38 347 38 297.5 14 c 128,-1,32
 248 -10 248 -10 197 -10 c 0,0,1
269 125 m 0,33,34
 299 125 299 125 330 144.5 c 128,-1,35
 361 164 361 164 384 198 c 1,36,-1
 407 308 l 1,37,38
 402 348 402 348 377 373.5 c 128,-1,39
 352 399 352 399 320 399 c 0,40,41
 293 399 293 399 267.5 384.5 c 128,-1,42
 242 370 242 370 222.5 346.5 c 128,-1,43
 203 323 203 323 191.5 292.5 c 128,-1,44
 180 262 180 262 180 229 c 0,45,46
 180 184 180 184 203.5 154.5 c 128,-1,47
 227 125 227 125 269 125 c 0,33,34
162 593 m 1,48,-1
 190 722 l 1,49,-1
 322 722 l 1,50,-1
 294 593 l 1,51,-1
 162 593 l 1,48,-1
367 593 m 1,52,-1
 395 722 l 1,53,-1
 526 722 l 1,54,-1
 499 593 l 1,55,-1
 367 593 l 1,52,-1
EndSplineSet
EndChar

StartChar: aring
Encoding: 229 229 168
Width: 634
GlyphClass: 2
Flags: W
LayerCount: 2
Fore
SplineSet
197 -10 m 0,0,1
 153 -10 153 -10 118.5 6 c 128,-1,2
 84 22 84 22 60 50.5 c 128,-1,3
 36 79 36 79 23.5 118 c 128,-1,4
 11 157 11 157 11 203 c 0,5,6
 11 269 11 269 34.5 329.5 c 128,-1,7
 58 390 58 390 97 435.5 c 128,-1,8
 136 481 136 481 188 508 c 128,-1,9
 240 535 240 535 297 535 c 0,10,11
 348 535 348 535 384 509 c 128,-1,12
 420 483 420 483 434 439 c 1,13,-1
 452 522 l 1,14,-1
 613 522 l 1,15,-1
 539 180 l 2,16,17
 538 173 538 173 537.5 168.5 c 128,-1,18
 537 164 537 164 537 159 c 0,19,20
 537 136 537 136 562 135 c 1,21,-1
 534 0 l 1,22,23
 511 -5 511 -5 494.5 -6.5 c 128,-1,24
 478 -8 478 -8 466 -8 c 0,25,26
 427 -8 427 -8 404 7.5 c 128,-1,27
 381 23 381 23 381 59 c 0,28,29
 381 69 381 69 384 87 c 1,30,31
 347 38 347 38 297.5 14 c 128,-1,32
 248 -10 248 -10 197 -10 c 0,0,1
269 125 m 0,33,34
 299 125 299 125 330 144.5 c 128,-1,35
 361 164 361 164 384 198 c 1,36,-1
 407 308 l 1,37,38
 402 348 402 348 377 373.5 c 128,-1,39
 352 399 352 399 320 399 c 0,40,41
 293 399 293 399 267.5 384.5 c 128,-1,42
 242 370 242 370 222.5 346.5 c 128,-1,43
 203 323 203 323 191.5 292.5 c 128,-1,44
 180 262 180 262 180 229 c 0,45,46
 180 184 180 184 203.5 154.5 c 128,-1,47
 227 125 227 125 269 125 c 0,33,34
233 632 m 0,48,49
 233 680 233 680 267.5 705 c 128,-1,50
 302 730 302 730 357 730 c 0,51,52
 399 730 399 730 422 713 c 128,-1,53
 445 696 445 696 445 664 c 0,54,55
 445 617 445 617 410.5 592 c 128,-1,56
 376 567 376 567 322 567 c 0,57,58
 280 567 280 567 256.5 583.5 c 128,-1,59
 233 600 233 600 233 632 c 0,48,49
346 683 m 0,60,61
 328 683 328 683 314.5 671.5 c 128,-1,62
 301 660 301 660 301 643 c 0,63,64
 301 630 301 630 309.5 622 c 128,-1,65
 318 614 318 614 332 614 c 0,66,67
 349 614 349 614 363.5 625.5 c 128,-1,68
 378 637 378 637 378 655 c 0,69,70
 378 667 378 667 369 675 c 128,-1,71
 360 683 360 683 346 683 c 0,60,61
EndSplineSet
EndChar

StartChar: ae
Encoding: 230 230 169
Width: 898
GlyphClass: 2
Flags: W
LayerCount: 2
Fore
SplineSet
131 -10 m 0,0,1
 98 -10 98 -10 72 0.5 c 128,-1,2
 46 11 46 11 27 29 c 128,-1,3
 8 47 8 47 -2 72.5 c 128,-1,4
 -12 98 -12 98 -12 128 c 0,5,6
 -12 171 -12 171 8 208.5 c 128,-1,7
 28 246 28 246 62.5 273.5 c 128,-1,8
 97 301 97 301 144 316.5 c 128,-1,9
 191 332 191 332 244 332 c 0,10,11
 274 332 274 332 300 326.5 c 128,-1,12
 326 321 326 321 345 312 c 1,13,14
 348 326 348 326 352 339 c 128,-1,15
 356 352 356 352 356 365 c 0,16,17
 356 394 356 394 336.5 409.5 c 128,-1,18
 317 425 317 425 276 425 c 256,19,20
 235 425 235 425 195 410.5 c 128,-1,21
 155 396 155 396 109 367 c 1,22,-1
 83 467 l 1,23,24
 196 535 196 535 315 535 c 0,25,26
 372 535 372 535 412.5 518.5 c 128,-1,27
 453 502 453 502 477 471 c 1,28,29
 515 500 515 500 561 517.5 c 128,-1,30
 607 535 607 535 661 535 c 256,31,32
 715 535 715 535 756 517.5 c 128,-1,33
 797 500 797 500 824.5 470 c 128,-1,34
 852 440 852 440 865.5 400.5 c 128,-1,35
 879 361 879 361 879 316 c 0,36,37
 879 278 879 278 871.5 253 c 128,-1,38
 864 228 864 228 857 213 c 1,39,-1
 492 213 l 1,40,41
 491 207 491 207 490.5 202 c 128,-1,42
 490 197 490 197 490 190 c 0,43,44
 490 148 490 148 515 126.5 c 128,-1,45
 540 105 540 105 576 105 c 0,46,47
 608 105 608 105 640.5 122 c 128,-1,48
 673 139 673 139 689 168 c 1,49,-1
 817 130 l 1,50,51
 775 68 775 68 704.5 29 c 128,-1,52
 634 -10 634 -10 546 -10 c 0,53,54
 471 -10 471 -10 422 18.5 c 128,-1,55
 373 47 373 47 350 95 c 1,56,57
 326 67 326 67 297.5 47 c 128,-1,58
 269 27 269 27 239.5 14.5 c 128,-1,59
 210 2 210 2 182 -4 c 128,-1,60
 154 -10 154 -10 131 -10 c 0,0,1
204 105 m 0,61,62
 219 105 219 105 236.5 109.5 c 128,-1,63
 254 114 254 114 270.5 121 c 128,-1,64
 287 128 287 128 301 137.5 c 128,-1,65
 315 147 315 147 324 158 c 0,66,67
 323 163 323 163 322.5 168 c 128,-1,68
 322 173 322 173 322 179 c 0,69,70
 322 190 322 190 323.5 202 c 128,-1,71
 325 214 325 214 327 228 c 1,72,73
 310 235 310 235 289.5 239 c 128,-1,74
 269 243 269 243 251 243 c 0,75,76
 230 243 230 243 210.5 236.5 c 128,-1,77
 191 230 191 230 176 219 c 128,-1,78
 161 208 161 208 152.5 192.5 c 128,-1,79
 144 177 144 177 144 159 c 0,80,81
 144 136 144 136 159.5 120.5 c 128,-1,82
 175 105 175 105 204 105 c 0,61,62
712 310 m 1,83,84
 713 315 713 315 713 319.5 c 128,-1,85
 713 324 713 324 713 331 c 0,86,87
 713 371 713 371 692 395.5 c 128,-1,88
 671 420 671 420 633 420 c 0,89,90
 591 420 591 420 557 390 c 128,-1,91
 523 360 523 360 509 310 c 1,92,-1
 712 310 l 1,83,84
EndSplineSet
EndChar

StartChar: ccedilla
Encoding: 231 231 170
Width: 548
GlyphClass: 2
Flags: W
LayerCount: 2
Fore
SplineSet
120 -127 m 1,0,1
 129 -134 129 -134 152.5 -140.5 c 128,-1,2
 176 -147 176 -147 202 -147 c 256,3,4
 228 -147 228 -147 245 -138.5 c 128,-1,5
 262 -130 262 -130 262 -109 c 0,6,7
 262 -95 262 -95 250 -89 c 128,-1,8
 238 -83 238 -83 217 -83 c 0,9,10
 197 -83 197 -83 174 -87 c 128,-1,11
 151 -91 151 -91 139 -94 c 1,12,-1
 198 -8 l 1,13,14
 151 -3 151 -3 116 16 c 128,-1,15
 81 35 81 35 57.5 64.5 c 128,-1,16
 34 94 34 94 22.5 131.5 c 128,-1,17
 11 169 11 169 11 211 c 0,18,19
 11 272 11 272 35.5 330.5 c 128,-1,20
 60 389 60 389 104 434.5 c 128,-1,21
 148 480 148 480 209.5 507.5 c 128,-1,22
 271 535 271 535 345 535 c 0,23,24
 433 535 433 535 484 496.5 c 128,-1,25
 535 458 535 458 552 396 c 1,26,-1
 387 349 l 1,27,28
 368 399 368 399 315 399 c 0,29,30
 289 399 289 399 264 386 c 128,-1,31
 239 373 239 373 219.5 350.5 c 128,-1,32
 200 328 200 328 188.5 297 c 128,-1,33
 177 266 177 266 177 229 c 0,34,35
 177 182 177 182 199 153.5 c 128,-1,36
 221 125 221 125 257 125 c 0,37,38
 283 125 283 125 308.5 139.5 c 128,-1,39
 334 154 334 154 350 177 c 1,40,-1
 496 129 l 1,41,42
 458 73 458 73 398 36 c 128,-1,43
 338 -1 338 -1 262 -8 c 1,44,-1
 237 -38 l 1,45,46
 249 -35 249 -35 265 -35 c 0,47,48
 294 -35 294 -35 315.5 -49 c 128,-1,49
 337 -63 337 -63 337 -95 c 0,50,51
 337 -117 337 -117 327 -136.5 c 128,-1,52
 317 -156 317 -156 297.5 -171 c 128,-1,53
 278 -186 278 -186 248.5 -195 c 128,-1,54
 219 -204 219 -204 179 -204 c 0,55,56
 146 -204 146 -204 120.5 -197.5 c 128,-1,57
 95 -191 95 -191 78 -183 c 1,58,-1
 120 -127 l 1,0,1
EndSplineSet
EndChar

StartChar: egrave
Encoding: 232 232 171
Width: 558
GlyphClass: 2
Flags: W
LayerCount: 2
Fore
SplineSet
232 -10 m 0,0,1
 181 -10 181 -10 140 6.5 c 128,-1,2
 99 23 99 23 70.5 52 c 128,-1,3
 42 81 42 81 27 122 c 128,-1,4
 12 163 12 163 12 212 c 0,5,6
 12 278 12 278 38 337 c 128,-1,7
 64 396 64 396 110 440 c 128,-1,8
 156 484 156 484 217.5 509.5 c 128,-1,9
 279 535 279 535 350 535 c 0,10,11
 441 535 441 535 492.5 496 c 128,-1,12
 544 457 544 457 544 385 c 0,13,14
 544 299 544 299 466 255 c 128,-1,15
 388 211 388 211 232 211 c 0,16,17
 219 211 219 211 205.5 211 c 128,-1,18
 192 211 192 211 178 212 c 1,19,20
 178 159 178 159 197 132 c 128,-1,21
 216 105 216 105 261 105 c 0,22,23
 297 105 297 105 327.5 122 c 128,-1,24
 358 139 358 139 377 169 c 1,25,-1
 503 129 l 1,26,27
 482 98 482 98 452 72.5 c 128,-1,28
 422 47 422 47 386.5 28.5 c 128,-1,29
 351 10 351 10 311.5 0 c 128,-1,30
 272 -10 272 -10 232 -10 c 0,0,1
324 420 m 0,31,32
 279 420 279 420 246.5 389 c 128,-1,33
 214 358 214 358 196 310 c 1,34,-1
 232 310 l 2,35,36
 320 310 320 310 355 325 c 128,-1,37
 390 340 390 340 390 371 c 0,38,39
 390 394 390 394 371.5 407 c 128,-1,40
 353 420 353 420 324 420 c 0,31,32
264 730 m 1,41,-1
 408 730 l 1,42,-1
 430 600 l 1,43,-1
 319 584 l 1,44,-1
 264 730 l 1,41,-1
EndSplineSet
EndChar

StartChar: eacute
Encoding: 233 233 172
Width: 558
GlyphClass: 2
Flags: W
LayerCount: 2
Fore
SplineSet
385 586 m 1,0,-1
 279 600 l 1,1,-1
 356 730 l 1,2,-1
 500 730 l 1,3,-1
 385 586 l 1,0,-1
232 -10 m 0,4,5
 181 -10 181 -10 140 6.5 c 128,-1,6
 99 23 99 23 70.5 52 c 128,-1,7
 42 81 42 81 27 122 c 128,-1,8
 12 163 12 163 12 212 c 0,9,10
 12 278 12 278 38 337 c 128,-1,11
 64 396 64 396 110 440 c 128,-1,12
 156 484 156 484 217.5 509.5 c 128,-1,13
 279 535 279 535 350 535 c 0,14,15
 441 535 441 535 492.5 496 c 128,-1,16
 544 457 544 457 544 385 c 0,17,18
 544 299 544 299 466 255 c 128,-1,19
 388 211 388 211 232 211 c 0,20,21
 219 211 219 211 205.5 211 c 128,-1,22
 192 211 192 211 178 212 c 1,23,24
 178 159 178 159 197 132 c 128,-1,25
 216 105 216 105 261 105 c 0,26,27
 297 105 297 105 327.5 122 c 128,-1,28
 358 139 358 139 377 169 c 1,29,-1
 503 129 l 1,30,31
 482 98 482 98 452 72.5 c 128,-1,32
 422 47 422 47 386.5 28.5 c 128,-1,33
 351 10 351 10 311.5 0 c 128,-1,34
 272 -10 272 -10 232 -10 c 0,4,5
324 420 m 0,35,36
 279 420 279 420 246.5 389 c 128,-1,37
 214 358 214 358 196 310 c 1,38,-1
 232 310 l 2,39,40
 320 310 320 310 355 325 c 128,-1,41
 390 340 390 340 390 371 c 0,42,43
 390 394 390 394 371.5 407 c 128,-1,44
 353 420 353 420 324 420 c 0,35,36
EndSplineSet
EndChar

StartChar: ecircumflex
Encoding: 234 234 173
Width: 558
GlyphClass: 2
Flags: W
LayerCount: 2
Fore
SplineSet
209 622 m 1,0,-1
 337 730 l 1,1,-1
 451 730 l 1,2,-1
 533 622 l 1,3,-1
 444 586 l 1,4,-1
 377 649 l 1,5,-1
 283 586 l 1,6,-1
 209 622 l 1,0,-1
232 -10 m 0,7,8
 181 -10 181 -10 140 6.5 c 128,-1,9
 99 23 99 23 70.5 52 c 128,-1,10
 42 81 42 81 27 122 c 128,-1,11
 12 163 12 163 12 212 c 0,12,13
 12 278 12 278 38 337 c 128,-1,14
 64 396 64 396 110 440 c 128,-1,15
 156 484 156 484 217.5 509.5 c 128,-1,16
 279 535 279 535 350 535 c 0,17,18
 441 535 441 535 492.5 496 c 128,-1,19
 544 457 544 457 544 385 c 0,20,21
 544 299 544 299 466 255 c 128,-1,22
 388 211 388 211 232 211 c 0,23,24
 219 211 219 211 205.5 211 c 128,-1,25
 192 211 192 211 178 212 c 1,26,27
 178 159 178 159 197 132 c 128,-1,28
 216 105 216 105 261 105 c 0,29,30
 297 105 297 105 327.5 122 c 128,-1,31
 358 139 358 139 377 169 c 1,32,-1
 503 129 l 1,33,34
 482 98 482 98 452 72.5 c 128,-1,35
 422 47 422 47 386.5 28.5 c 128,-1,36
 351 10 351 10 311.5 0 c 128,-1,37
 272 -10 272 -10 232 -10 c 0,7,8
324 420 m 0,38,39
 279 420 279 420 246.5 389 c 128,-1,40
 214 358 214 358 196 310 c 1,41,-1
 232 310 l 2,42,43
 320 310 320 310 355 325 c 128,-1,44
 390 340 390 340 390 371 c 0,45,46
 390 394 390 394 371.5 407 c 128,-1,47
 353 420 353 420 324 420 c 0,38,39
EndSplineSet
EndChar

StartChar: edieresis
Encoding: 235 235 174
Width: 558
GlyphClass: 2
Flags: W
LayerCount: 2
Fore
SplineSet
193 593 m 1,0,-1
 221 722 l 1,1,-1
 353 722 l 1,2,-1
 325 593 l 1,3,-1
 193 593 l 1,0,-1
398 593 m 1,4,-1
 426 722 l 1,5,-1
 557 722 l 1,6,-1
 530 593 l 1,7,-1
 398 593 l 1,4,-1
232 -10 m 0,8,9
 181 -10 181 -10 140 6.5 c 128,-1,10
 99 23 99 23 70.5 52 c 128,-1,11
 42 81 42 81 27 122 c 128,-1,12
 12 163 12 163 12 212 c 0,13,14
 12 278 12 278 38 337 c 128,-1,15
 64 396 64 396 110 440 c 128,-1,16
 156 484 156 484 217.5 509.5 c 128,-1,17
 279 535 279 535 350 535 c 0,18,19
 441 535 441 535 492.5 496 c 128,-1,20
 544 457 544 457 544 385 c 0,21,22
 544 299 544 299 466 255 c 128,-1,23
 388 211 388 211 232 211 c 0,24,25
 219 211 219 211 205.5 211 c 128,-1,26
 192 211 192 211 178 212 c 1,27,28
 178 159 178 159 197 132 c 128,-1,29
 216 105 216 105 261 105 c 0,30,31
 297 105 297 105 327.5 122 c 128,-1,32
 358 139 358 139 377 169 c 1,33,-1
 503 129 l 1,34,35
 482 98 482 98 452 72.5 c 128,-1,36
 422 47 422 47 386.5 28.5 c 128,-1,37
 351 10 351 10 311.5 0 c 128,-1,38
 272 -10 272 -10 232 -10 c 0,8,9
324 420 m 0,39,40
 279 420 279 420 246.5 389 c 128,-1,41
 214 358 214 358 196 310 c 1,42,-1
 232 310 l 2,43,44
 320 310 320 310 355 325 c 128,-1,45
 390 340 390 340 390 371 c 0,46,47
 390 394 390 394 371.5 407 c 128,-1,48
 353 420 353 420 324 420 c 0,39,40
EndSplineSet
EndChar

StartChar: igrave
Encoding: 236 236 175
Width: 268
GlyphClass: 2
Flags: W
LayerCount: 2
Fore
SplineSet
102 525 m 1,0,-1
 262 525 l 1,1,-1
 150 0 l 1,2,-1
 -10 0 l 1,3,-1
 102 525 l 1,0,-1
98 730 m 1,4,-1
 242 730 l 1,5,-1
 264 600 l 1,6,-1
 153 584 l 1,7,-1
 98 730 l 1,4,-1
EndSplineSet
EndChar

StartChar: iacute
Encoding: 237 237 176
Width: 268
GlyphClass: 2
Flags: W
LayerCount: 2
Fore
SplineSet
228 586 m 1,0,-1
 122 600 l 1,1,-1
 199 730 l 1,2,-1
 343 730 l 1,3,-1
 228 586 l 1,0,-1
102 525 m 1,4,-1
 262 525 l 1,5,-1
 150 0 l 1,6,-1
 -10 0 l 1,7,-1
 102 525 l 1,4,-1
EndSplineSet
EndChar

StartChar: icircumflex
Encoding: 238 238 177
Width: 268
GlyphClass: 2
Flags: W
LayerCount: 2
Fore
SplineSet
46 622 m 1,0,-1
 174 730 l 1,1,-1
 288 730 l 1,2,-1
 370 622 l 1,3,-1
 281 586 l 1,4,-1
 214 649 l 1,5,-1
 120 586 l 1,6,-1
 46 622 l 1,0,-1
102 525 m 1,7,-1
 262 525 l 1,8,-1
 150 0 l 1,9,-1
 -10 0 l 1,10,-1
 102 525 l 1,7,-1
EndSplineSet
EndChar

StartChar: idieresis
Encoding: 239 239 178
Width: 268
GlyphClass: 2
Flags: W
LayerCount: 2
Fore
SplineSet
27 593 m 1,0,-1
 55 722 l 1,1,-1
 187 722 l 1,2,-1
 159 593 l 1,3,-1
 27 593 l 1,0,-1
232 593 m 1,4,-1
 260 722 l 1,5,-1
 391 722 l 1,6,-1
 364 593 l 1,7,-1
 232 593 l 1,4,-1
102 525 m 1,8,-1
 262 525 l 1,9,-1
 150 0 l 1,10,-1
 -10 0 l 1,11,-1
 102 525 l 1,8,-1
EndSplineSet
EndChar

StartChar: eth
Encoding: 240 240 179
Width: 597
GlyphClass: 2
Flags: W
LayerCount: 2
Fore
SplineSet
593 651 m 1,0,-1
 516 613 l 1,1,2
 545 561 545 561 559.5 500 c 128,-1,3
 574 439 574 439 574 377 c 0,4,5
 574 289 574 289 548 217.5 c 128,-1,6
 522 146 522 146 476 95.5 c 128,-1,7
 430 45 430 45 366.5 17.5 c 128,-1,8
 303 -10 303 -10 229 -10 c 0,9,10
 178 -10 178 -10 137.5 5 c 128,-1,11
 97 20 97 20 68 46.5 c 128,-1,12
 39 73 39 73 23.5 110 c 128,-1,13
 8 147 8 147 8 191 c 0,14,15
 8 248 8 248 32 299 c 128,-1,16
 56 350 56 350 95.5 388.5 c 128,-1,17
 135 427 135 427 186 449.5 c 128,-1,18
 237 472 237 472 292 472 c 0,19,20
 334 472 334 472 369 454.5 c 128,-1,21
 404 437 404 437 424 408 c 1,22,23
 423 425 423 425 421.5 441 c 128,-1,24
 420 457 420 457 417 472 c 0,25,26
 412 495 412 495 404 516.5 c 128,-1,27
 396 538 396 538 385 558 c 1,28,-1
 301 516 l 1,29,-1
 269 577 l 1,30,-1
 347 616 l 1,31,32
 322 646 322 646 288.5 674 c 128,-1,33
 255 702 255 702 211 730 c 1,34,-1
 408 730 l 1,35,36
 428 719 428 719 445 703.5 c 128,-1,37
 462 688 462 688 477 670 c 1,38,-1
 561 712 l 1,39,-1
 593 651 l 1,0,-1
175 212 m 0,40,41
 175 174 175 174 197.5 149.5 c 128,-1,42
 220 125 220 125 259 125 c 0,43,44
 286 125 286 125 310 135.5 c 128,-1,45
 334 146 334 146 351.5 164 c 128,-1,46
 369 182 369 182 379.5 206.5 c 128,-1,47
 390 231 390 231 390 258 c 0,48,49
 390 296 390 296 368 320 c 128,-1,50
 346 344 346 344 306 344 c 0,51,52
 279 344 279 344 255 334 c 128,-1,53
 231 324 231 324 213.5 306 c 128,-1,54
 196 288 196 288 185.5 264 c 128,-1,55
 175 240 175 240 175 212 c 0,40,41
EndSplineSet
EndChar

StartChar: ntilde
Encoding: 241 241 180
Width: 591
GlyphClass: 2
Flags: W
LayerCount: 2
Fore
SplineSet
102 525 m 1,0,-1
 246 525 l 1,1,-1
 227 437 l 1,2,3
 264 484 264 484 319 509.5 c 128,-1,4
 374 535 374 535 440 535 c 0,5,6
 475 535 475 535 497.5 525 c 128,-1,7
 520 515 520 515 533.5 498.5 c 128,-1,8
 547 482 547 482 552.5 460 c 128,-1,9
 558 438 558 438 558 414 c 0,10,11
 558 394 558 394 555.5 374.5 c 128,-1,12
 553 355 553 355 549 336 c 2,13,-1
 478 0 l 1,14,-1
 318 0 l 1,15,-1
 381 295 l 2,16,17
 385 315 385 315 385 335 c 0,18,19
 385 366 385 366 372 380 c 128,-1,20
 359 394 359 394 337 394 c 0,21,22
 308 394 308 394 272 368 c 128,-1,23
 236 342 236 342 214 301 c 1,24,-1
 150 0 l 1,25,-1
 -10 0 l 1,26,-1
 102 525 l 1,0,-1
417 588 m 0,27,28
 395 588 395 588 380 595 c 128,-1,29
 365 602 365 602 352.5 611 c 128,-1,30
 340 620 340 620 328 627 c 128,-1,31
 316 634 316 634 300 634 c 256,32,33
 284 634 284 634 273.5 627 c 128,-1,34
 263 620 263 620 257 611 c 128,-1,35
 251 602 251 602 248.5 594.5 c 128,-1,36
 246 587 246 587 246 586 c 2,37,-1
 159 586 l 1,38,39
 161 597 161 597 172.5 620.5 c 128,-1,40
 184 644 184 644 204 668 c 128,-1,41
 224 692 224 692 251.5 710 c 128,-1,42
 279 728 279 728 313 728 c 0,43,44
 336 728 336 728 351 720.5 c 128,-1,45
 366 713 366 713 378 704 c 128,-1,46
 390 695 390 695 401.5 687.5 c 128,-1,47
 413 680 413 680 430 680 c 0,48,49
 446 680 446 680 457.5 687.5 c 128,-1,50
 469 695 469 695 476 704 c 128,-1,51
 483 713 483 713 486.5 721 c 128,-1,52
 490 729 490 729 490 730 c 2,53,-1
 575 730 l 1,54,55
 573 722 573 722 561.5 699 c 128,-1,56
 550 676 550 676 529.5 651 c 128,-1,57
 509 626 509 626 480.5 607 c 128,-1,58
 452 588 452 588 417 588 c 0,27,28
EndSplineSet
EndChar

StartChar: ograve
Encoding: 242 242 181
Width: 591
GlyphClass: 2
Flags: W
LayerCount: 2
Fore
SplineSet
229 -10 m 0,0,1
 174 -10 174 -10 133 7.5 c 128,-1,2
 92 25 92 25 65 55 c 128,-1,3
 38 85 38 85 24.5 124.5 c 128,-1,4
 11 164 11 164 11 209 c 0,5,6
 11 271 11 271 35 329.5 c 128,-1,7
 59 388 59 388 103 434 c 128,-1,8
 147 480 147 480 208.5 507.5 c 128,-1,9
 270 535 270 535 345 535 c 0,10,11
 399 535 399 535 440 517.5 c 128,-1,12
 481 500 481 500 508.5 470 c 128,-1,13
 536 440 536 440 549.5 400.5 c 128,-1,14
 563 361 563 361 563 316 c 0,15,16
 563 254 563 254 539 195.5 c 128,-1,17
 515 137 515 137 471 91.5 c 128,-1,18
 427 46 427 46 365.5 18 c 128,-1,19
 304 -10 304 -10 229 -10 c 0,0,1
258 125 m 0,20,21
 285 125 285 125 310 138 c 128,-1,22
 335 151 335 151 354 174.5 c 128,-1,23
 373 198 373 198 384.5 229 c 128,-1,24
 396 260 396 260 396 296 c 0,25,26
 396 343 396 343 374.5 371 c 128,-1,27
 353 399 353 399 316 399 c 0,28,29
 289 399 289 399 264 386 c 128,-1,30
 239 373 239 373 220 349.5 c 128,-1,31
 201 326 201 326 189.5 295 c 128,-1,32
 178 264 178 264 178 228 c 0,33,34
 178 181 178 181 199.5 153 c 128,-1,35
 221 125 221 125 258 125 c 0,20,21
272 730 m 1,36,-1
 416 730 l 1,37,-1
 438 600 l 1,38,-1
 327 584 l 1,39,-1
 272 730 l 1,36,-1
EndSplineSet
EndChar

StartChar: oacute
Encoding: 243 243 182
Width: 591
GlyphClass: 2
Flags: W
LayerCount: 2
Fore
SplineSet
395 586 m 1,0,-1
 289 600 l 1,1,-1
 366 730 l 1,2,-1
 510 730 l 1,3,-1
 395 586 l 1,0,-1
229 -10 m 0,4,5
 174 -10 174 -10 133 7.5 c 128,-1,6
 92 25 92 25 65 55 c 128,-1,7
 38 85 38 85 24.5 124.5 c 128,-1,8
 11 164 11 164 11 209 c 0,9,10
 11 271 11 271 35 329.5 c 128,-1,11
 59 388 59 388 103 434 c 128,-1,12
 147 480 147 480 208.5 507.5 c 128,-1,13
 270 535 270 535 345 535 c 0,14,15
 399 535 399 535 440 517.5 c 128,-1,16
 481 500 481 500 508.5 470 c 128,-1,17
 536 440 536 440 549.5 400.5 c 128,-1,18
 563 361 563 361 563 316 c 0,19,20
 563 254 563 254 539 195.5 c 128,-1,21
 515 137 515 137 471 91.5 c 128,-1,22
 427 46 427 46 365.5 18 c 128,-1,23
 304 -10 304 -10 229 -10 c 0,4,5
258 125 m 0,24,25
 285 125 285 125 310 138 c 128,-1,26
 335 151 335 151 354 174.5 c 128,-1,27
 373 198 373 198 384.5 229 c 128,-1,28
 396 260 396 260 396 296 c 0,29,30
 396 343 396 343 374.5 371 c 128,-1,31
 353 399 353 399 316 399 c 0,32,33
 289 399 289 399 264 386 c 128,-1,34
 239 373 239 373 220 349.5 c 128,-1,35
 201 326 201 326 189.5 295 c 128,-1,36
 178 264 178 264 178 228 c 0,37,38
 178 181 178 181 199.5 153 c 128,-1,39
 221 125 221 125 258 125 c 0,24,25
EndSplineSet
EndChar

StartChar: ocircumflex
Encoding: 244 244 183
Width: 591
GlyphClass: 2
Flags: W
LayerCount: 2
Fore
SplineSet
209 622 m 1,0,-1
 337 730 l 1,1,-1
 451 730 l 1,2,-1
 533 622 l 1,3,-1
 444 586 l 1,4,-1
 377 649 l 1,5,-1
 283 586 l 1,6,-1
 209 622 l 1,0,-1
229 -10 m 0,7,8
 174 -10 174 -10 133 7.5 c 128,-1,9
 92 25 92 25 65 55 c 128,-1,10
 38 85 38 85 24.5 124.5 c 128,-1,11
 11 164 11 164 11 209 c 0,12,13
 11 271 11 271 35 329.5 c 128,-1,14
 59 388 59 388 103 434 c 128,-1,15
 147 480 147 480 208.5 507.5 c 128,-1,16
 270 535 270 535 345 535 c 0,17,18
 399 535 399 535 440 517.5 c 128,-1,19
 481 500 481 500 508.5 470 c 128,-1,20
 536 440 536 440 549.5 400.5 c 128,-1,21
 563 361 563 361 563 316 c 0,22,23
 563 254 563 254 539 195.5 c 128,-1,24
 515 137 515 137 471 91.5 c 128,-1,25
 427 46 427 46 365.5 18 c 128,-1,26
 304 -10 304 -10 229 -10 c 0,7,8
258 125 m 0,27,28
 285 125 285 125 310 138 c 128,-1,29
 335 151 335 151 354 174.5 c 128,-1,30
 373 198 373 198 384.5 229 c 128,-1,31
 396 260 396 260 396 296 c 0,32,33
 396 343 396 343 374.5 371 c 128,-1,34
 353 399 353 399 316 399 c 0,35,36
 289 399 289 399 264 386 c 128,-1,37
 239 373 239 373 220 349.5 c 128,-1,38
 201 326 201 326 189.5 295 c 128,-1,39
 178 264 178 264 178 228 c 0,40,41
 178 181 178 181 199.5 153 c 128,-1,42
 221 125 221 125 258 125 c 0,27,28
EndSplineSet
EndChar

StartChar: otilde
Encoding: 245 245 184
Width: 591
GlyphClass: 2
Flags: W
LayerCount: 2
Fore
SplineSet
229 -10 m 0,0,1
 174 -10 174 -10 133 7.5 c 128,-1,2
 92 25 92 25 65 55 c 128,-1,3
 38 85 38 85 24.5 124.5 c 128,-1,4
 11 164 11 164 11 209 c 0,5,6
 11 271 11 271 35 329.5 c 128,-1,7
 59 388 59 388 103 434 c 128,-1,8
 147 480 147 480 208.5 507.5 c 128,-1,9
 270 535 270 535 345 535 c 0,10,11
 399 535 399 535 440 517.5 c 128,-1,12
 481 500 481 500 508.5 470 c 128,-1,13
 536 440 536 440 549.5 400.5 c 128,-1,14
 563 361 563 361 563 316 c 0,15,16
 563 254 563 254 539 195.5 c 128,-1,17
 515 137 515 137 471 91.5 c 128,-1,18
 427 46 427 46 365.5 18 c 128,-1,19
 304 -10 304 -10 229 -10 c 0,0,1
258 125 m 0,20,21
 285 125 285 125 310 138 c 128,-1,22
 335 151 335 151 354 174.5 c 128,-1,23
 373 198 373 198 384.5 229 c 128,-1,24
 396 260 396 260 396 296 c 0,25,26
 396 343 396 343 374.5 371 c 128,-1,27
 353 399 353 399 316 399 c 0,28,29
 289 399 289 399 264 386 c 128,-1,30
 239 373 239 373 220 349.5 c 128,-1,31
 201 326 201 326 189.5 295 c 128,-1,32
 178 264 178 264 178 228 c 0,33,34
 178 181 178 181 199.5 153 c 128,-1,35
 221 125 221 125 258 125 c 0,20,21
422 588 m 0,36,37
 400 588 400 588 385 595 c 128,-1,38
 370 602 370 602 357.5 611 c 128,-1,39
 345 620 345 620 333 627 c 128,-1,40
 321 634 321 634 305 634 c 256,41,42
 289 634 289 634 278.5 627 c 128,-1,43
 268 620 268 620 262 611 c 128,-1,44
 256 602 256 602 253.5 594.5 c 128,-1,45
 251 587 251 587 251 586 c 2,46,-1
 164 586 l 1,47,48
 166 597 166 597 177.5 620.5 c 128,-1,49
 189 644 189 644 209 668 c 128,-1,50
 229 692 229 692 256.5 710 c 128,-1,51
 284 728 284 728 318 728 c 0,52,53
 341 728 341 728 356 720.5 c 128,-1,54
 371 713 371 713 383 704 c 128,-1,55
 395 695 395 695 406.5 687.5 c 128,-1,56
 418 680 418 680 435 680 c 0,57,58
 451 680 451 680 462.5 687.5 c 128,-1,59
 474 695 474 695 481 704 c 128,-1,60
 488 713 488 713 491.5 721 c 128,-1,61
 495 729 495 729 495 730 c 2,62,-1
 580 730 l 1,63,64
 578 722 578 722 566.5 699 c 128,-1,65
 555 676 555 676 534.5 651 c 128,-1,66
 514 626 514 626 485.5 607 c 128,-1,67
 457 588 457 588 422 588 c 0,36,37
EndSplineSet
EndChar

StartChar: odieresis
Encoding: 246 246 185
Width: 591
GlyphClass: 2
Flags: W
LayerCount: 2
Fore
SplineSet
194 593 m 1,0,-1
 222 722 l 1,1,-1
 354 722 l 1,2,-1
 326 593 l 1,3,-1
 194 593 l 1,0,-1
399 593 m 1,4,-1
 427 722 l 1,5,-1
 558 722 l 1,6,-1
 531 593 l 1,7,-1
 399 593 l 1,4,-1
229 -10 m 0,8,9
 174 -10 174 -10 133 7.5 c 128,-1,10
 92 25 92 25 65 55 c 128,-1,11
 38 85 38 85 24.5 124.5 c 128,-1,12
 11 164 11 164 11 209 c 0,13,14
 11 271 11 271 35 329.5 c 128,-1,15
 59 388 59 388 103 434 c 128,-1,16
 147 480 147 480 208.5 507.5 c 128,-1,17
 270 535 270 535 345 535 c 0,18,19
 399 535 399 535 440 517.5 c 128,-1,20
 481 500 481 500 508.5 470 c 128,-1,21
 536 440 536 440 549.5 400.5 c 128,-1,22
 563 361 563 361 563 316 c 0,23,24
 563 254 563 254 539 195.5 c 128,-1,25
 515 137 515 137 471 91.5 c 128,-1,26
 427 46 427 46 365.5 18 c 128,-1,27
 304 -10 304 -10 229 -10 c 0,8,9
258 125 m 0,28,29
 285 125 285 125 310 138 c 128,-1,30
 335 151 335 151 354 174.5 c 128,-1,31
 373 198 373 198 384.5 229 c 128,-1,32
 396 260 396 260 396 296 c 0,33,34
 396 343 396 343 374.5 371 c 128,-1,35
 353 399 353 399 316 399 c 0,36,37
 289 399 289 399 264 386 c 128,-1,38
 239 373 239 373 220 349.5 c 128,-1,39
 201 326 201 326 189.5 295 c 128,-1,40
 178 264 178 264 178 228 c 0,41,42
 178 181 178 181 199.5 153 c 128,-1,43
 221 125 221 125 258 125 c 0,28,29
EndSplineSet
EndChar

StartChar: divide
Encoding: 247 247 186
Width: 513
GlyphClass: 2
Flags: W
LayerCount: 2
Fore
SplineSet
190 426 m 1,0,-1
 190 569 l 1,1,-1
 325 569 l 1,2,-1
 325 426 l 1,3,-1
 190 426 l 1,0,-1
190 38 m 1,4,-1
 190 181 l 1,5,-1
 325 181 l 1,6,-1
 325 38 l 1,7,-1
 190 38 l 1,4,-1
55 240 m 1,8,-1
 55 367 l 1,9,-1
 459 367 l 1,10,-1
 459 240 l 1,11,-1
 55 240 l 1,8,-1
EndSplineSet
EndChar

StartChar: oslash
Encoding: 248 248 187
Width: 591
GlyphClass: 2
Flags: W
LayerCount: 2
Fore
SplineSet
51 73 m 1,0,1
 31 101 31 101 21 136 c 128,-1,2
 11 171 11 171 11 209 c 0,3,4
 11 271 11 271 35 329.5 c 128,-1,5
 59 388 59 388 103 434 c 128,-1,6
 147 480 147 480 208.5 507.5 c 128,-1,7
 270 535 270 535 345 535 c 0,8,9
 387 535 387 535 419.5 524.5 c 128,-1,10
 452 514 452 514 478 496 c 1,11,-1
 514 530 l 1,12,-1
 601 530 l 1,13,-1
 521 455 l 1,14,15
 542 426 542 426 552.5 390.5 c 128,-1,16
 563 355 563 355 563 316 c 0,17,18
 563 254 563 254 539 195.5 c 128,-1,19
 515 137 515 137 471 91.5 c 128,-1,20
 427 46 427 46 365.5 18 c 128,-1,21
 304 -10 304 -10 229 -10 c 0,22,23
 186 -10 186 -10 152 0.5 c 128,-1,24
 118 11 118 11 92 31 c 1,25,-1
 53 -5 l 1,26,-1
 -33 -5 l 1,27,-1
 51 73 l 1,0,1
258 125 m 0,28,29
 285 125 285 125 310 138 c 128,-1,30
 335 151 335 151 354.5 174.5 c 128,-1,31
 374 198 374 198 385.5 229 c 128,-1,32
 397 260 397 260 397 296 c 0,33,34
 397 316 397 316 392 334 c 1,35,-1
 206 145 l 1,36,37
 228 125 228 125 258 125 c 0,28,29
178 228 m 0,38,39
 178 210 178 210 181 194 c 1,40,-1
 364 381 l 1,41,42
 344 399 344 399 316 399 c 0,43,44
 289 399 289 399 264 386 c 128,-1,45
 239 373 239 373 220 349.5 c 128,-1,46
 201 326 201 326 189.5 295 c 128,-1,47
 178 264 178 264 178 228 c 0,38,39
EndSplineSet
EndChar

StartChar: ugrave
Encoding: 249 249 188
Width: 606
GlyphClass: 2
Flags: W
LayerCount: 2
Fore
SplineSet
139 -10 m 0,0,1
 78 -10 78 -10 47 22 c 128,-1,2
 16 54 16 54 16 116 c 0,3,4
 16 148 16 148 25 189 c 2,5,-1
 97 525 l 1,6,-1
 256 525 l 1,7,-1
 192 224 l 2,8,9
 187 199 187 199 187 185 c 0,10,11
 187 125 187 125 237 125 c 0,12,13
 264 125 264 125 294.5 142 c 128,-1,14
 325 159 325 159 356 201 c 1,15,-1
 425 525 l 1,16,-1
 585 525 l 1,17,-1
 512 180 l 2,18,19
 509 166 509 166 509 159 c 0,20,21
 509 136 509 136 535 135 c 1,22,-1
 506 0 l 1,23,24
 484 -5 484 -5 467.5 -6.5 c 128,-1,25
 451 -8 451 -8 438 -8 c 0,26,27
 400 -8 400 -8 376 7 c 128,-1,28
 352 22 352 22 352 56 c 0,29,30
 352 62 352 62 353.5 69.5 c 128,-1,31
 355 77 355 77 357 91 c 1,32,33
 312 39 312 39 257 14.5 c 128,-1,34
 202 -10 202 -10 139 -10 c 0,0,1
258 730 m 1,35,-1
 402 730 l 1,36,-1
 424 600 l 1,37,-1
 313 584 l 1,38,-1
 258 730 l 1,35,-1
EndSplineSet
EndChar

StartChar: uacute
Encoding: 250 250 189
Width: 606
GlyphClass: 2
Flags: W
LayerCount: 2
Fore
SplineSet
378 586 m 1,0,-1
 272 600 l 1,1,-1
 349 730 l 1,2,-1
 493 730 l 1,3,-1
 378 586 l 1,0,-1
139 -10 m 0,4,5
 78 -10 78 -10 47 22 c 128,-1,6
 16 54 16 54 16 116 c 0,7,8
 16 148 16 148 25 189 c 2,9,-1
 97 525 l 1,10,-1
 256 525 l 1,11,-1
 192 224 l 2,12,13
 187 199 187 199 187 185 c 0,14,15
 187 125 187 125 237 125 c 0,16,17
 264 125 264 125 294.5 142 c 128,-1,18
 325 159 325 159 356 201 c 1,19,-1
 425 525 l 1,20,-1
 585 525 l 1,21,-1
 512 180 l 2,22,23
 509 166 509 166 509 159 c 0,24,25
 509 136 509 136 535 135 c 1,26,-1
 506 0 l 1,27,28
 484 -5 484 -5 467.5 -6.5 c 128,-1,29
 451 -8 451 -8 438 -8 c 0,30,31
 400 -8 400 -8 376 7 c 128,-1,32
 352 22 352 22 352 56 c 0,33,34
 352 62 352 62 353.5 69.5 c 128,-1,35
 355 77 355 77 357 91 c 1,36,37
 312 39 312 39 257 14.5 c 128,-1,38
 202 -10 202 -10 139 -10 c 0,4,5
EndSplineSet
EndChar

StartChar: ucircumflex
Encoding: 251 251 190
Width: 606
GlyphClass: 2
Flags: W
LayerCount: 2
Fore
SplineSet
203 622 m 1,0,-1
 331 730 l 1,1,-1
 445 730 l 1,2,-1
 527 622 l 1,3,-1
 438 586 l 1,4,-1
 371 649 l 1,5,-1
 277 586 l 1,6,-1
 203 622 l 1,0,-1
139 -10 m 0,7,8
 78 -10 78 -10 47 22 c 128,-1,9
 16 54 16 54 16 116 c 0,10,11
 16 148 16 148 25 189 c 2,12,-1
 97 525 l 1,13,-1
 256 525 l 1,14,-1
 192 224 l 2,15,16
 187 199 187 199 187 185 c 0,17,18
 187 125 187 125 237 125 c 0,19,20
 264 125 264 125 294.5 142 c 128,-1,21
 325 159 325 159 356 201 c 1,22,-1
 425 525 l 1,23,-1
 585 525 l 1,24,-1
 512 180 l 2,25,26
 509 166 509 166 509 159 c 0,27,28
 509 136 509 136 535 135 c 1,29,-1
 506 0 l 1,30,31
 484 -5 484 -5 467.5 -6.5 c 128,-1,32
 451 -8 451 -8 438 -8 c 0,33,34
 400 -8 400 -8 376 7 c 128,-1,35
 352 22 352 22 352 56 c 0,36,37
 352 62 352 62 353.5 69.5 c 128,-1,38
 355 77 355 77 357 91 c 1,39,40
 312 39 312 39 257 14.5 c 128,-1,41
 202 -10 202 -10 139 -10 c 0,7,8
EndSplineSet
EndChar

StartChar: udieresis
Encoding: 252 252 191
Width: 606
GlyphClass: 2
Flags: W
LayerCount: 2
Fore
SplineSet
181 593 m 1,0,-1
 209 722 l 1,1,-1
 341 722 l 1,2,-1
 313 593 l 1,3,-1
 181 593 l 1,0,-1
386 593 m 1,4,-1
 414 722 l 1,5,-1
 545 722 l 1,6,-1
 518 593 l 1,7,-1
 386 593 l 1,4,-1
139 -10 m 0,8,9
 78 -10 78 -10 47 22 c 128,-1,10
 16 54 16 54 16 116 c 0,11,12
 16 148 16 148 25 189 c 2,13,-1
 97 525 l 1,14,-1
 256 525 l 1,15,-1
 192 224 l 2,16,17
 187 199 187 199 187 185 c 0,18,19
 187 125 187 125 237 125 c 0,20,21
 264 125 264 125 294.5 142 c 128,-1,22
 325 159 325 159 356 201 c 1,23,-1
 425 525 l 1,24,-1
 585 525 l 1,25,-1
 512 180 l 2,26,27
 509 166 509 166 509 159 c 0,28,29
 509 136 509 136 535 135 c 1,30,-1
 506 0 l 1,31,32
 484 -5 484 -5 467.5 -6.5 c 128,-1,33
 451 -8 451 -8 438 -8 c 0,34,35
 400 -8 400 -8 376 7 c 128,-1,36
 352 22 352 22 352 56 c 0,37,38
 352 62 352 62 353.5 69.5 c 128,-1,39
 355 77 355 77 357 91 c 1,40,41
 312 39 312 39 257 14.5 c 128,-1,42
 202 -10 202 -10 139 -10 c 0,8,9
EndSplineSet
EndChar

StartChar: yacute
Encoding: 253 253 192
Width: 531
GlyphClass: 2
Flags: W
LayerCount: 2
Fore
SplineSet
-50 -111 m 1,0,1
 -20 -110 -20 -110 1 -106.5 c 128,-1,2
 22 -103 22 -103 38 -96 c 128,-1,3
 54 -89 54 -89 67 -77.5 c 128,-1,4
 80 -66 80 -66 94 -48 c 2,5,-1
 123 -11 l 1,6,-1
 45 525 l 1,7,-1
 208 525 l 1,8,-1
 237 137 l 1,9,-1
 271 193 l 2,10,11
 322 275 322 275 353 354.5 c 128,-1,12
 384 434 384 434 404 525 c 1,13,-1
 558 525 l 1,14,15
 544 477 544 477 529 435 c 128,-1,16
 514 393 514 393 491 345.5 c 128,-1,17
 468 298 468 298 434.5 240.5 c 128,-1,18
 401 183 401 183 352 103 c 2,19,-1
 272 -26 l 2,20,21
 237 -83 237 -83 203 -122 c 128,-1,22
 169 -161 169 -161 133 -185 c 128,-1,23
 97 -209 97 -209 57 -220 c 128,-1,24
 17 -231 17 -231 -31 -231 c 1,25,-1
 -50 -111 l 1,0,1
349 586 m 1,26,-1
 243 600 l 1,27,-1
 320 730 l 1,28,-1
 464 730 l 1,29,-1
 349 586 l 1,26,-1
EndSplineSet
EndChar

StartChar: thorn
Encoding: 254 254 193
Width: 576
GlyphClass: 2
Flags: W
LayerCount: 2
Fore
SplineSet
140 710 m 1,0,-1
 305 710 l 1,1,2
 294 660 294 660 285.5 621.5 c 128,-1,3
 277 583 277 583 272 557 c 0,4,5
 265 526 265 526 261 503 c 1,6,7
 274 520 274 520 297 530.5 c 128,-1,8
 320 541 320 541 355 541 c 0,9,10
 403 541 403 541 439.5 522.5 c 128,-1,11
 476 504 476 504 500.5 473.5 c 128,-1,12
 525 443 525 443 537.5 403.5 c 128,-1,13
 550 364 550 364 550 322 c 0,14,15
 550 263 550 263 527 201.5 c 128,-1,16
 504 140 504 140 462 89 c 128,-1,17
 420 38 420 38 362.5 5.5 c 128,-1,18
 305 -27 305 -27 236 -27 c 0,19,20
 195 -27 195 -27 177.5 -15.5 c 128,-1,21
 160 -4 160 -4 155 8 c 1,22,23
 149 -21 149 -21 142 -55 c 0,24,25
 136 -84 136 -84 127.5 -124.5 c 128,-1,26
 119 -165 119 -165 109 -213 c 1,27,-1
 -56 -213 l 1,28,-1
 140 710 l 1,0,-1
260 116 m 0,29,30
 289 116 289 116 312 131.5 c 128,-1,31
 335 147 335 147 351.5 172 c 128,-1,32
 368 197 368 197 376.5 229 c 128,-1,33
 385 261 385 261 385 295 c 0,34,35
 385 341 385 341 368 369.5 c 128,-1,36
 351 398 351 398 316 398 c 0,37,38
 288 398 288 398 266 379.5 c 128,-1,39
 244 361 244 361 224 332 c 1,40,-1
 191 177 l 2,41,42
 191 175 191 175 190.5 173.5 c 128,-1,43
 190 172 190 172 190 169 c 0,44,45
 190 161 190 161 194.5 152 c 128,-1,46
 199 143 199 143 207.5 135 c 128,-1,47
 216 127 216 127 229 121.5 c 128,-1,48
 242 116 242 116 260 116 c 0,29,30
EndSplineSet
EndChar

StartChar: ydieresis
Encoding: 255 255 194
Width: 531
GlyphClass: 2
Flags: W
LayerCount: 2
Fore
SplineSet
-50 -111 m 1,0,1
 -20 -110 -20 -110 1 -106.5 c 128,-1,2
 22 -103 22 -103 38 -96 c 128,-1,3
 54 -89 54 -89 67 -77.5 c 128,-1,4
 80 -66 80 -66 94 -48 c 2,5,-1
 123 -11 l 1,6,-1
 45 525 l 1,7,-1
 208 525 l 1,8,-1
 237 137 l 1,9,-1
 271 193 l 2,10,11
 322 275 322 275 353 354.5 c 128,-1,12
 384 434 384 434 404 525 c 1,13,-1
 558 525 l 1,14,15
 544 477 544 477 529 435 c 128,-1,16
 514 393 514 393 491 345.5 c 128,-1,17
 468 298 468 298 434.5 240.5 c 128,-1,18
 401 183 401 183 352 103 c 2,19,-1
 272 -26 l 2,20,21
 237 -83 237 -83 203 -122 c 128,-1,22
 169 -161 169 -161 133 -185 c 128,-1,23
 97 -209 97 -209 57 -220 c 128,-1,24
 17 -231 17 -231 -31 -231 c 1,25,-1
 -50 -111 l 1,0,1
155 593 m 1,26,-1
 183 722 l 1,27,-1
 315 722 l 1,28,-1
 287 593 l 1,29,-1
 155 593 l 1,26,-1
360 593 m 1,30,-1
 388 722 l 1,31,-1
 519 722 l 1,32,-1
 492 593 l 1,33,-1
 360 593 l 1,30,-1
EndSplineSet
EndChar

StartChar: Amacron
Encoding: 256 256 195
Width: 641
GlyphClass: 2
Flags: W
LayerCount: 2
Fore
SplineSet
337 710 m 1,0,-1
 486 710 l 1,1,-1
 578 0 l 1,2,-1
 410 0 l 1,3,-1
 395 159 l 1,4,-1
 193 159 l 1,5,-1
 112 0 l 1,6,-1
 -57 0 l 1,7,-1
 337 710 l 1,0,-1
392 272 m 1,8,-1
 372 523 l 1,9,-1
 242 272 l 1,10,-1
 392 272 l 1,8,-1
283 806 m 1,11,-1
 303 903 l 1,12,-1
 594 903 l 1,13,-1
 573 806 l 1,14,-1
 283 806 l 1,11,-1
EndSplineSet
EndChar

StartChar: amacron
Encoding: 257 257 196
Width: 634
GlyphClass: 2
Flags: W
LayerCount: 2
Fore
SplineSet
197 -10 m 0,0,1
 153 -10 153 -10 118.5 6 c 128,-1,2
 84 22 84 22 60 50.5 c 128,-1,3
 36 79 36 79 23.5 118 c 128,-1,4
 11 157 11 157 11 203 c 0,5,6
 11 269 11 269 34.5 329.5 c 128,-1,7
 58 390 58 390 97 435.5 c 128,-1,8
 136 481 136 481 188 508 c 128,-1,9
 240 535 240 535 297 535 c 0,10,11
 348 535 348 535 384 509 c 128,-1,12
 420 483 420 483 434 439 c 1,13,-1
 452 522 l 1,14,-1
 613 522 l 1,15,-1
 539 180 l 2,16,17
 538 173 538 173 537.5 168.5 c 128,-1,18
 537 164 537 164 537 159 c 0,19,20
 537 136 537 136 562 135 c 1,21,-1
 534 0 l 1,22,23
 511 -5 511 -5 494.5 -6.5 c 128,-1,24
 478 -8 478 -8 466 -8 c 0,25,26
 427 -8 427 -8 404 7.5 c 128,-1,27
 381 23 381 23 381 59 c 0,28,29
 381 69 381 69 384 87 c 1,30,31
 347 38 347 38 297.5 14 c 128,-1,32
 248 -10 248 -10 197 -10 c 0,0,1
269 125 m 0,33,34
 299 125 299 125 330 144.5 c 128,-1,35
 361 164 361 164 384 198 c 1,36,-1
 407 308 l 1,37,38
 402 348 402 348 377 373.5 c 128,-1,39
 352 399 352 399 320 399 c 0,40,41
 293 399 293 399 267.5 384.5 c 128,-1,42
 242 370 242 370 222.5 346.5 c 128,-1,43
 203 323 203 323 191.5 292.5 c 128,-1,44
 180 262 180 262 180 229 c 0,45,46
 180 184 180 184 203.5 154.5 c 128,-1,47
 227 125 227 125 269 125 c 0,33,34
192 620 m 1,48,-1
 212 717 l 1,49,-1
 503 717 l 1,50,-1
 482 620 l 1,51,-1
 192 620 l 1,48,-1
EndSplineSet
EndChar

StartChar: Abreve
Encoding: 258 258 197
Width: 641
GlyphClass: 2
Flags: W
LayerCount: 2
Fore
SplineSet
337 710 m 1,0,-1
 486 710 l 1,1,-1
 578 0 l 1,2,-1
 410 0 l 1,3,-1
 395 159 l 1,4,-1
 193 159 l 1,5,-1
 112 0 l 1,6,-1
 -57 0 l 1,7,-1
 337 710 l 1,0,-1
392 272 m 1,8,-1
 372 523 l 1,9,-1
 242 272 l 1,10,-1
 392 272 l 1,8,-1
428 839 m 0,11,12
 449 839 449 839 469.5 860.5 c 128,-1,13
 490 882 490 882 501 916 c 1,14,-1
 585 916 l 1,15,16
 578 884 578 884 562 857 c 128,-1,17
 546 830 546 830 523 810.5 c 128,-1,18
 500 791 500 791 472 780 c 128,-1,19
 444 769 444 769 413 769 c 0,20,21
 359 769 359 769 328.5 799 c 128,-1,22
 298 829 298 829 298 879 c 0,23,24
 298 888 298 888 299.5 897 c 128,-1,25
 301 906 301 906 303 916 c 1,26,-1
 387 916 l 1,27,28
 384 905 384 905 384 895 c 0,29,30
 384 871 384 871 396 855 c 128,-1,31
 408 839 408 839 428 839 c 0,11,12
EndSplineSet
EndChar

StartChar: abreve
Encoding: 259 259 198
Width: 634
GlyphClass: 2
Flags: W
LayerCount: 2
Fore
SplineSet
197 -10 m 0,0,1
 153 -10 153 -10 118.5 6 c 128,-1,2
 84 22 84 22 60 50.5 c 128,-1,3
 36 79 36 79 23.5 118 c 128,-1,4
 11 157 11 157 11 203 c 0,5,6
 11 269 11 269 34.5 329.5 c 128,-1,7
 58 390 58 390 97 435.5 c 128,-1,8
 136 481 136 481 188 508 c 128,-1,9
 240 535 240 535 297 535 c 0,10,11
 348 535 348 535 384 509 c 128,-1,12
 420 483 420 483 434 439 c 1,13,-1
 452 522 l 1,14,-1
 613 522 l 1,15,-1
 539 180 l 2,16,17
 538 173 538 173 537.5 168.5 c 128,-1,18
 537 164 537 164 537 159 c 0,19,20
 537 136 537 136 562 135 c 1,21,-1
 534 0 l 1,22,23
 511 -5 511 -5 494.5 -6.5 c 128,-1,24
 478 -8 478 -8 466 -8 c 0,25,26
 427 -8 427 -8 404 7.5 c 128,-1,27
 381 23 381 23 381 59 c 0,28,29
 381 69 381 69 384 87 c 1,30,31
 347 38 347 38 297.5 14 c 128,-1,32
 248 -10 248 -10 197 -10 c 0,0,1
269 125 m 0,33,34
 299 125 299 125 330 144.5 c 128,-1,35
 361 164 361 164 384 198 c 1,36,-1
 407 308 l 1,37,38
 402 348 402 348 377 373.5 c 128,-1,39
 352 399 352 399 320 399 c 0,40,41
 293 399 293 399 267.5 384.5 c 128,-1,42
 242 370 242 370 222.5 346.5 c 128,-1,43
 203 323 203 323 191.5 292.5 c 128,-1,44
 180 262 180 262 180 229 c 0,45,46
 180 184 180 184 203.5 154.5 c 128,-1,47
 227 125 227 125 269 125 c 0,33,34
335 653 m 0,48,49
 356 653 356 653 376.5 674.5 c 128,-1,50
 397 696 397 696 408 730 c 1,51,-1
 492 730 l 1,52,53
 485 698 485 698 469 671 c 128,-1,54
 453 644 453 644 430 624.5 c 128,-1,55
 407 605 407 605 379 594 c 128,-1,56
 351 583 351 583 320 583 c 0,57,58
 266 583 266 583 235.5 613 c 128,-1,59
 205 643 205 643 205 693 c 0,60,61
 205 702 205 702 206.5 711 c 128,-1,62
 208 720 208 720 210 730 c 1,63,-1
 294 730 l 1,64,65
 291 719 291 719 291 709 c 0,66,67
 291 685 291 685 303 669 c 128,-1,68
 315 653 315 653 335 653 c 0,48,49
EndSplineSet
EndChar

StartChar: Aogonek
Encoding: 260 260 199
Width: 641
GlyphClass: 2
Flags: W
LayerCount: 2
Fore
SplineSet
496 -205 m 1,0,1
 439 -197 439 -197 411.5 -174.5 c 128,-1,2
 384 -152 384 -152 384 -123 c 0,3,4
 384 -59 384 -59 490 0 c 1,5,-1
 410 0 l 1,6,-1
 395 159 l 1,7,-1
 193 159 l 1,8,-1
 112 0 l 1,9,-1
 -57 0 l 1,10,-1
 337 710 l 1,11,-1
 486 710 l 1,12,-1
 578 0 l 1,13,14
 489 -51 489 -51 489 -88 c 0,15,16
 489 -102 489 -102 502.5 -111 c 128,-1,17
 516 -120 516 -120 545 -121 c 1,18,-1
 496 -205 l 1,0,1
392 272 m 1,19,-1
 372 523 l 1,20,-1
 242 272 l 1,21,-1
 392 272 l 1,19,-1
EndSplineSet
EndChar

StartChar: aogonek
Encoding: 261 261 200
Width: 634
GlyphClass: 2
Flags: W
LayerCount: 2
Fore
SplineSet
452 -205 m 1,0,1
 395 -197 395 -197 367.5 -174.5 c 128,-1,2
 340 -152 340 -152 340 -123 c 0,3,4
 340 -62 340 -62 437 -5 c 1,5,6
 411 0 411 0 396 15 c 128,-1,7
 381 30 381 30 381 59 c 0,8,9
 381 69 381 69 384 87 c 1,10,11
 347 38 347 38 297.5 14 c 128,-1,12
 248 -10 248 -10 197 -10 c 0,13,14
 153 -10 153 -10 118.5 6 c 128,-1,15
 84 22 84 22 60 50.5 c 128,-1,16
 36 79 36 79 23.5 118 c 128,-1,17
 11 157 11 157 11 203 c 0,18,19
 11 269 11 269 34.5 329.5 c 128,-1,20
 58 390 58 390 97 435.5 c 128,-1,21
 136 481 136 481 188 508 c 128,-1,22
 240 535 240 535 297 535 c 0,23,24
 348 535 348 535 384 509 c 128,-1,25
 420 483 420 483 434 439 c 1,26,-1
 452 522 l 1,27,-1
 613 522 l 1,28,-1
 539 180 l 2,29,30
 538 173 538 173 537.5 168.5 c 128,-1,31
 537 164 537 164 537 159 c 0,32,33
 537 136 537 136 562 135 c 1,34,-1
 534 0 l 1,35,36
 445 -51 445 -51 445 -88 c 0,37,38
 445 -102 445 -102 458.5 -111 c 128,-1,39
 472 -120 472 -120 501 -121 c 1,40,-1
 452 -205 l 1,0,1
269 125 m 0,41,42
 299 125 299 125 330 144.5 c 128,-1,43
 361 164 361 164 384 198 c 1,44,-1
 407 308 l 1,45,46
 402 348 402 348 377 373.5 c 128,-1,47
 352 399 352 399 320 399 c 0,48,49
 293 399 293 399 267.5 384.5 c 128,-1,50
 242 370 242 370 222.5 346.5 c 128,-1,51
 203 323 203 323 191.5 292.5 c 128,-1,52
 180 262 180 262 180 229 c 0,53,54
 180 184 180 184 203.5 154.5 c 128,-1,55
 227 125 227 125 269 125 c 0,41,42
EndSplineSet
EndChar

StartChar: Cacute
Encoding: 262 262 201
Width: 661
GlyphClass: 2
Flags: W
LayerCount: 2
Fore
SplineSet
513 772 m 1,0,-1
 407 786 l 1,1,-1
 484 916 l 1,2,-1
 628 916 l 1,3,-1
 513 772 l 1,0,-1
297 -6 m 0,4,5
 234 -6 234 -6 185 19.5 c 128,-1,6
 136 45 136 45 102 87.5 c 128,-1,7
 68 130 68 130 50.5 184.5 c 128,-1,8
 33 239 33 239 33 297 c 0,9,10
 33 346 33 346 47.5 396 c 128,-1,11
 62 446 62 446 88.5 492.5 c 128,-1,12
 115 539 115 539 153 579 c 128,-1,13
 191 619 191 619 238 649 c 128,-1,14
 285 679 285 679 340 696.5 c 128,-1,15
 395 714 395 714 456 714 c 0,16,17
 552 714 552 714 613 671 c 128,-1,18
 674 628 674 628 694 559 c 1,19,-1
 549 471 l 1,20,21
 544 499 544 499 531.5 517.5 c 128,-1,22
 519 536 519 536 501 547.5 c 128,-1,23
 483 559 483 559 462 563.5 c 128,-1,24
 441 568 441 568 421 568 c 0,25,26
 369 568 369 568 328 543.5 c 128,-1,27
 287 519 287 519 258.5 480.5 c 128,-1,28
 230 442 230 442 215 396 c 128,-1,29
 200 350 200 350 200 307 c 0,30,31
 200 273 200 273 208.5 243 c 128,-1,32
 217 213 217 213 233.5 190 c 128,-1,33
 250 167 250 167 275 153.5 c 128,-1,34
 300 140 300 140 332 140 c 0,35,36
 353 140 353 140 375.5 145.5 c 128,-1,37
 398 151 398 151 420.5 162.5 c 128,-1,38
 443 174 443 174 463.5 192.5 c 128,-1,39
 484 211 484 211 499 238 c 1,40,-1
 617 159 l 1,41,42
 593 120 593 120 556 89 c 128,-1,43
 519 58 519 58 475.5 37 c 128,-1,44
 432 16 432 16 385.5 5 c 128,-1,45
 339 -6 339 -6 297 -6 c 0,4,5
EndSplineSet
EndChar

StartChar: cacute
Encoding: 263 263 202
Width: 548
GlyphClass: 2
Flags: W
LayerCount: 2
Fore
SplineSet
383 586 m 1,0,-1
 277 600 l 1,1,-1
 354 730 l 1,2,-1
 498 730 l 1,3,-1
 383 586 l 1,0,-1
230 -10 m 0,4,5
 175 -10 175 -10 134 7.5 c 128,-1,6
 93 25 93 25 65.5 55.5 c 128,-1,7
 38 86 38 86 24.5 126 c 128,-1,8
 11 166 11 166 11 211 c 0,9,10
 11 272 11 272 35.5 330.5 c 128,-1,11
 60 389 60 389 104 434.5 c 128,-1,12
 148 480 148 480 209.5 507.5 c 128,-1,13
 271 535 271 535 345 535 c 0,14,15
 433 535 433 535 484 496.5 c 128,-1,16
 535 458 535 458 552 396 c 1,17,-1
 387 349 l 1,18,19
 368 399 368 399 315 399 c 0,20,21
 289 399 289 399 264 386 c 128,-1,22
 239 373 239 373 219.5 350.5 c 128,-1,23
 200 328 200 328 188.5 297 c 128,-1,24
 177 266 177 266 177 229 c 0,25,26
 177 182 177 182 199 153.5 c 128,-1,27
 221 125 221 125 257 125 c 0,28,29
 283 125 283 125 308.5 139.5 c 128,-1,30
 334 154 334 154 350 177 c 1,31,-1
 496 129 l 1,32,33
 454 68 454 68 386 29 c 128,-1,34
 318 -10 318 -10 230 -10 c 0,4,5
EndSplineSet
EndChar

StartChar: Ccircumflex
Encoding: 264 264 203
Width: 661
GlyphClass: 2
Flags: W
LayerCount: 2
Fore
SplineSet
316 808 m 1,0,-1
 444 916 l 1,1,-1
 558 916 l 1,2,-1
 640 808 l 1,3,-1
 551 772 l 1,4,-1
 484 835 l 1,5,-1
 390 772 l 1,6,-1
 316 808 l 1,0,-1
297 -6 m 0,7,8
 234 -6 234 -6 185 19.5 c 128,-1,9
 136 45 136 45 102 87.5 c 128,-1,10
 68 130 68 130 50.5 184.5 c 128,-1,11
 33 239 33 239 33 297 c 0,12,13
 33 346 33 346 47.5 396 c 128,-1,14
 62 446 62 446 88.5 492.5 c 128,-1,15
 115 539 115 539 153 579 c 128,-1,16
 191 619 191 619 238 649 c 128,-1,17
 285 679 285 679 340 696.5 c 128,-1,18
 395 714 395 714 456 714 c 0,19,20
 552 714 552 714 613 671 c 128,-1,21
 674 628 674 628 694 559 c 1,22,-1
 549 471 l 1,23,24
 544 499 544 499 531.5 517.5 c 128,-1,25
 519 536 519 536 501 547.5 c 128,-1,26
 483 559 483 559 462 563.5 c 128,-1,27
 441 568 441 568 421 568 c 0,28,29
 369 568 369 568 328 543.5 c 128,-1,30
 287 519 287 519 258.5 480.5 c 128,-1,31
 230 442 230 442 215 396 c 128,-1,32
 200 350 200 350 200 307 c 0,33,34
 200 273 200 273 208.5 243 c 128,-1,35
 217 213 217 213 233.5 190 c 128,-1,36
 250 167 250 167 275 153.5 c 128,-1,37
 300 140 300 140 332 140 c 0,38,39
 353 140 353 140 375.5 145.5 c 128,-1,40
 398 151 398 151 420.5 162.5 c 128,-1,41
 443 174 443 174 463.5 192.5 c 128,-1,42
 484 211 484 211 499 238 c 1,43,-1
 617 159 l 1,44,45
 593 120 593 120 556 89 c 128,-1,46
 519 58 519 58 475.5 37 c 128,-1,47
 432 16 432 16 385.5 5 c 128,-1,48
 339 -6 339 -6 297 -6 c 0,7,8
EndSplineSet
EndChar

StartChar: ccircumflex
Encoding: 265 265 204
Width: 548
GlyphClass: 2
Flags: W
LayerCount: 2
Fore
SplineSet
206 622 m 1,0,-1
 334 730 l 1,1,-1
 448 730 l 1,2,-1
 530 622 l 1,3,-1
 441 586 l 1,4,-1
 374 649 l 1,5,-1
 280 586 l 1,6,-1
 206 622 l 1,0,-1
230 -10 m 0,7,8
 175 -10 175 -10 134 7.5 c 128,-1,9
 93 25 93 25 65.5 55.5 c 128,-1,10
 38 86 38 86 24.5 126 c 128,-1,11
 11 166 11 166 11 211 c 0,12,13
 11 272 11 272 35.5 330.5 c 128,-1,14
 60 389 60 389 104 434.5 c 128,-1,15
 148 480 148 480 209.5 507.5 c 128,-1,16
 271 535 271 535 345 535 c 0,17,18
 433 535 433 535 484 496.5 c 128,-1,19
 535 458 535 458 552 396 c 1,20,-1
 387 349 l 1,21,22
 368 399 368 399 315 399 c 0,23,24
 289 399 289 399 264 386 c 128,-1,25
 239 373 239 373 219.5 350.5 c 128,-1,26
 200 328 200 328 188.5 297 c 128,-1,27
 177 266 177 266 177 229 c 0,28,29
 177 182 177 182 199 153.5 c 128,-1,30
 221 125 221 125 257 125 c 0,31,32
 283 125 283 125 308.5 139.5 c 128,-1,33
 334 154 334 154 350 177 c 1,34,-1
 496 129 l 1,35,36
 454 68 454 68 386 29 c 128,-1,37
 318 -10 318 -10 230 -10 c 0,7,8
EndSplineSet
EndChar

StartChar: Cdotaccent
Encoding: 266 266 205
Width: 661
GlyphClass: 2
Flags: W
LayerCount: 2
Fore
SplineSet
297 -6 m 0,0,1
 234 -6 234 -6 185 19.5 c 128,-1,2
 136 45 136 45 102 87.5 c 128,-1,3
 68 130 68 130 50.5 184.5 c 128,-1,4
 33 239 33 239 33 297 c 0,5,6
 33 346 33 346 47.5 396 c 128,-1,7
 62 446 62 446 88.5 492.5 c 128,-1,8
 115 539 115 539 153 579 c 128,-1,9
 191 619 191 619 238 649 c 128,-1,10
 285 679 285 679 340 696.5 c 128,-1,11
 395 714 395 714 456 714 c 0,12,13
 552 714 552 714 613 671 c 128,-1,14
 674 628 674 628 694 559 c 1,15,-1
 549 471 l 1,16,17
 544 499 544 499 531.5 517.5 c 128,-1,18
 519 536 519 536 501 547.5 c 128,-1,19
 483 559 483 559 462 563.5 c 128,-1,20
 441 568 441 568 421 568 c 0,21,22
 369 568 369 568 328 543.5 c 128,-1,23
 287 519 287 519 258.5 480.5 c 128,-1,24
 230 442 230 442 215 396 c 128,-1,25
 200 350 200 350 200 307 c 0,26,27
 200 273 200 273 208.5 243 c 128,-1,28
 217 213 217 213 233.5 190 c 128,-1,29
 250 167 250 167 275 153.5 c 128,-1,30
 300 140 300 140 332 140 c 0,31,32
 353 140 353 140 375.5 145.5 c 128,-1,33
 398 151 398 151 420.5 162.5 c 128,-1,34
 443 174 443 174 463.5 192.5 c 128,-1,35
 484 211 484 211 499 238 c 1,36,-1
 617 159 l 1,37,38
 593 120 593 120 556 89 c 128,-1,39
 519 58 519 58 475.5 37 c 128,-1,40
 432 16 432 16 385.5 5 c 128,-1,41
 339 -6 339 -6 297 -6 c 0,0,1
401 779 m 1,42,-1
 430 916 l 1,43,-1
 574 916 l 1,44,-1
 545 779 l 1,45,-1
 401 779 l 1,42,-1
EndSplineSet
EndChar

StartChar: cdotaccent
Encoding: 267 267 206
Width: 548
GlyphClass: 2
Flags: W
LayerCount: 2
Fore
SplineSet
230 -10 m 0,0,1
 175 -10 175 -10 134 7.5 c 128,-1,2
 93 25 93 25 65.5 55.5 c 128,-1,3
 38 86 38 86 24.5 126 c 128,-1,4
 11 166 11 166 11 211 c 0,5,6
 11 272 11 272 35.5 330.5 c 128,-1,7
 60 389 60 389 104 434.5 c 128,-1,8
 148 480 148 480 209.5 507.5 c 128,-1,9
 271 535 271 535 345 535 c 0,10,11
 433 535 433 535 484 496.5 c 128,-1,12
 535 458 535 458 552 396 c 1,13,-1
 387 349 l 1,14,15
 368 399 368 399 315 399 c 0,16,17
 289 399 289 399 264 386 c 128,-1,18
 239 373 239 373 219.5 350.5 c 128,-1,19
 200 328 200 328 188.5 297 c 128,-1,20
 177 266 177 266 177 229 c 0,21,22
 177 182 177 182 199 153.5 c 128,-1,23
 221 125 221 125 257 125 c 0,24,25
 283 125 283 125 308.5 139.5 c 128,-1,26
 334 154 334 154 350 177 c 1,27,-1
 496 129 l 1,28,29
 454 68 454 68 386 29 c 128,-1,30
 318 -10 318 -10 230 -10 c 0,0,1
285 593 m 1,31,-1
 314 730 l 1,32,-1
 458 730 l 1,33,-1
 429 593 l 1,34,-1
 285 593 l 1,31,-1
EndSplineSet
EndChar

StartChar: Ccaron
Encoding: 268 268 207
Width: 661
GlyphClass: 2
Flags: W
LayerCount: 2
Fore
SplineSet
328 879 m 1,0,-1
 417 916 l 1,1,-1
 484 853 l 1,2,-1
 578 916 l 1,3,-1
 653 879 l 1,4,-1
 525 772 l 1,5,-1
 410 772 l 1,6,-1
 328 879 l 1,0,-1
297 -6 m 0,7,8
 234 -6 234 -6 185 19.5 c 128,-1,9
 136 45 136 45 102 87.5 c 128,-1,10
 68 130 68 130 50.5 184.5 c 128,-1,11
 33 239 33 239 33 297 c 0,12,13
 33 346 33 346 47.5 396 c 128,-1,14
 62 446 62 446 88.5 492.5 c 128,-1,15
 115 539 115 539 153 579 c 128,-1,16
 191 619 191 619 238 649 c 128,-1,17
 285 679 285 679 340 696.5 c 128,-1,18
 395 714 395 714 456 714 c 0,19,20
 552 714 552 714 613 671 c 128,-1,21
 674 628 674 628 694 559 c 1,22,-1
 549 471 l 1,23,24
 544 499 544 499 531.5 517.5 c 128,-1,25
 519 536 519 536 501 547.5 c 128,-1,26
 483 559 483 559 462 563.5 c 128,-1,27
 441 568 441 568 421 568 c 0,28,29
 369 568 369 568 328 543.5 c 128,-1,30
 287 519 287 519 258.5 480.5 c 128,-1,31
 230 442 230 442 215 396 c 128,-1,32
 200 350 200 350 200 307 c 0,33,34
 200 273 200 273 208.5 243 c 128,-1,35
 217 213 217 213 233.5 190 c 128,-1,36
 250 167 250 167 275 153.5 c 128,-1,37
 300 140 300 140 332 140 c 0,38,39
 353 140 353 140 375.5 145.5 c 128,-1,40
 398 151 398 151 420.5 162.5 c 128,-1,41
 443 174 443 174 463.5 192.5 c 128,-1,42
 484 211 484 211 499 238 c 1,43,-1
 617 159 l 1,44,45
 593 120 593 120 556 89 c 128,-1,46
 519 58 519 58 475.5 37 c 128,-1,47
 432 16 432 16 385.5 5 c 128,-1,48
 339 -6 339 -6 297 -6 c 0,7,8
EndSplineSet
EndChar

StartChar: ccaron
Encoding: 269 269 208
Width: 548
GlyphClass: 2
Flags: W
LayerCount: 2
Fore
SplineSet
214 693 m 1,0,-1
 303 730 l 1,1,-1
 370 667 l 1,2,-1
 464 730 l 1,3,-1
 539 693 l 1,4,-1
 411 586 l 1,5,-1
 296 586 l 1,6,-1
 214 693 l 1,0,-1
230 -10 m 0,7,8
 175 -10 175 -10 134 7.5 c 128,-1,9
 93 25 93 25 65.5 55.5 c 128,-1,10
 38 86 38 86 24.5 126 c 128,-1,11
 11 166 11 166 11 211 c 0,12,13
 11 272 11 272 35.5 330.5 c 128,-1,14
 60 389 60 389 104 434.5 c 128,-1,15
 148 480 148 480 209.5 507.5 c 128,-1,16
 271 535 271 535 345 535 c 0,17,18
 433 535 433 535 484 496.5 c 128,-1,19
 535 458 535 458 552 396 c 1,20,-1
 387 349 l 1,21,22
 368 399 368 399 315 399 c 0,23,24
 289 399 289 399 264 386 c 128,-1,25
 239 373 239 373 219.5 350.5 c 128,-1,26
 200 328 200 328 188.5 297 c 128,-1,27
 177 266 177 266 177 229 c 0,28,29
 177 182 177 182 199 153.5 c 128,-1,30
 221 125 221 125 257 125 c 0,31,32
 283 125 283 125 308.5 139.5 c 128,-1,33
 334 154 334 154 350 177 c 1,34,-1
 496 129 l 1,35,36
 454 68 454 68 386 29 c 128,-1,37
 318 -10 318 -10 230 -10 c 0,7,8
EndSplineSet
EndChar

StartChar: Dcaron
Encoding: 270 270 209
Width: 693
GlyphClass: 2
Flags: W
LayerCount: 2
Fore
SplineSet
268 879 m 1,0,-1
 357 916 l 1,1,-1
 424 853 l 1,2,-1
 518 916 l 1,3,-1
 593 879 l 1,4,-1
 465 772 l 1,5,-1
 350 772 l 1,6,-1
 268 879 l 1,0,-1
155 710 m 1,7,-1
 409 710 l 2,8,9
 478 710 478 710 529.5 688.5 c 128,-1,10
 581 667 581 667 614.5 630 c 128,-1,11
 648 593 648 593 664.5 542.5 c 128,-1,12
 681 492 681 492 681 434 c 0,13,14
 681 340 681 340 649 260.5 c 128,-1,15
 617 181 617 181 560 123 c 128,-1,16
 503 65 503 65 425.5 32.5 c 128,-1,17
 348 0 348 0 258 0 c 2,18,-1
 4 0 l 1,19,-1
 155 710 l 1,7,-1
288 144 m 2,20,21
 338 144 338 144 379 165.5 c 128,-1,22
 420 187 420 187 449.5 224 c 128,-1,23
 479 261 479 261 495 309 c 128,-1,24
 511 357 511 357 511 410 c 0,25,26
 511 480 511 480 477.5 523 c 128,-1,27
 444 566 444 566 378 566 c 2,28,-1
 288 566 l 1,29,-1
 198 144 l 1,30,-1
 288 144 l 2,20,21
EndSplineSet
EndChar

